<?xml version="1.0" encoding="utf-8"?>
<!-- Generator: Adobe Illustrator 14.0.0, SVG Export Plug-In . SVG Version: 6.00 Build 43363)  -->
<!DOCTYPE svg PUBLIC "-//W3C//DTD SVG 1.1//EN" "http://www.w3.org/Graphics/SVG/1.1/DTD/svg11.dtd">
<svg version="1.1" id="Layer_1" xmlns="http://www.w3.org/2000/svg" xmlns:xlink="http://www.w3.org/1999/xlink" x="0px" y="0px"
	 width="87.777px" height="100.354px" viewBox="0 0 87.777 100.354" enable-background="new 0 0 87.777 100.354"
	 xml:space="preserve">
<path fill="#0089CF" d="M41.494,0c23.065,0,23.065,83.429,0,83.429c-23.066,0-41.49-18.724-41.49-41.64
	C-0.295,18.724,18.427,0,41.494,0L41.494,0z"/>
<path fill="#9ACA3C" d="M46.137,100.354c-23.066,0-23.066-83.428,0-83.428c23.066,0,41.639,18.723,41.639,41.639
	C87.926,81.781,69.204,100.354,46.137,100.354L46.137,100.354z"/>
<path fill="#00702F" d="M41.943,83.578c-5.542,0.15-10.485-1.197-10.485-1.197c-6.441-24.864-1.648-65.306,14.379-65.306
	c2.097,0,5.841,0.15,9.886,1.198c0,0,3.445,12.432,2.696,26.961C57.22,80.732,45.088,83.429,41.943,83.578L41.943,83.578z"/>
</svg>
