<?xml version="1.0" encoding="utf-8"?>
<!-- Generator: Adobe Illustrator 17.1.0, SVG Export Plug-In . SVG Version: 6.00 Build 0)  -->
<!DOCTYPE svg PUBLIC "-//W3C//DTD SVG 1.1//EN" "http://www.w3.org/Graphics/SVG/1.1/DTD/svg11.dtd">
<svg version="1.1" id="Layer_1" xmlns="http://www.w3.org/2000/svg" xmlns:xlink="http://www.w3.org/1999/xlink" x="0px" y="0px"
	 viewBox="0 -75.3 150.8 150.3" enable-background="new 0 -75.3 150.8 150.3" xml:space="preserve">
<g>
	<rect x="0" y="0" fill="#FFFFFF" width="150.8" height="75"/>
	<path fill="#231F20" d="M4.7,70.8h141.4V4.3H4.7V70.8z M144.7,5.6v63.8H5.9V5.6H144.7z"/>
	<g>
		<path fill="#222222" d="M53,41.7h1.3v0.3h-1v0.7h1v0.3h-1v1.2H53V41.7z"/>
		<path fill="#222222" d="M56.9,43.8c-0.2,0.2-0.6,0.4-0.9,0.4c-0.3,0-0.7-0.1-0.9-0.4c-0.2-0.2-0.4-0.6-0.4-0.9
			c0-0.3,0.1-0.7,0.4-0.9c0.2-0.2,0.6-0.4,0.9-0.4c0.3,0,0.7,0.1,0.9,0.4c0.2,0.2,0.4,0.6,0.4,0.9C57.2,43.2,57.1,43.5,56.9,43.8z
			 M56.7,43.6c0.2-0.2,0.3-0.4,0.3-0.7c0-0.3-0.1-0.5-0.3-0.7c-0.2-0.2-0.4-0.3-0.7-0.3c-0.3,0-0.5,0.1-0.7,0.3
			c-0.2,0.2-0.3,0.4-0.3,0.7c0,0.3,0.1,0.5,0.3,0.7c0.2,0.2,0.4,0.3,0.7,0.3C56.2,43.9,56.5,43.8,56.7,43.6z"/>
		<path fill="#222222" d="M57.8,41.6l1.8,1.9v-1.8h0.3v2.5l-1.8-1.9v1.8h-0.3V41.6z"/>
		<path fill="#222222" d="M60.5,41.7H61c0.5,0,0.8,0,1.1,0.2c0.3,0.2,0.4,0.6,0.4,1s-0.1,0.8-0.4,1c-0.3,0.2-0.6,0.2-1,0.2
			c0,0-0.1,0-0.1,0h-0.5V41.7z M61,43.8c0.4,0,0.7,0,0.9-0.2c0.2-0.2,0.3-0.4,0.3-0.8c0-0.3-0.1-0.6-0.3-0.8
			c-0.2-0.2-0.5-0.2-0.9-0.2h-0.2v1.9H61z"/>
		<path fill="#222222" d="M64.8,44.1h-0.3l-0.3-0.7h-0.9L63,44.1h-0.3l1.1-2.5L64.8,44.1z M63.3,43.1h0.8l-0.4-0.9L63.3,43.1z"/>
		<path fill="#222222" d="M65.4,41.9h-0.7v-0.3h1.7v0.3h-0.7v2.1h-0.3V41.9z"/>
		<path fill="#222222" d="M66.8,41.7h0.3v2.4h-0.3V41.7z"/>
		<path fill="#222222" d="M69.8,43.8c-0.2,0.2-0.6,0.4-0.9,0.4c-0.3,0-0.7-0.1-0.9-0.4c-0.2-0.2-0.4-0.6-0.4-0.9
			c0-0.3,0.1-0.7,0.4-0.9c0.2-0.2,0.6-0.4,0.9-0.4c0.3,0,0.7,0.1,0.9,0.4c0.2,0.2,0.4,0.6,0.4,0.9C70.2,43.2,70.1,43.5,69.8,43.8z
			 M69.6,43.6c0.2-0.2,0.3-0.4,0.3-0.7c0-0.3-0.1-0.5-0.3-0.7c-0.2-0.2-0.4-0.3-0.7-0.3c-0.3,0-0.5,0.1-0.7,0.3
			c-0.2,0.2-0.3,0.4-0.3,0.7c0,0.3,0.1,0.5,0.3,0.7c0.2,0.2,0.4,0.3,0.7,0.3C69.2,43.9,69.4,43.8,69.6,43.6z"/>
		<path fill="#222222" d="M70.8,41.6l1.8,1.9v-1.8h0.3v2.5L71,42.3v1.8h-0.3V41.6z"/>
		<path fill="#222222" d="M74.8,44.1h-0.3v-2.4H75c0,0,0.1,0,0.1,0c0.2,0,0.4,0,0.6,0.1c0.2,0.1,0.2,0.3,0.2,0.5
			c0,0.2-0.1,0.4-0.2,0.5C75.5,43,75.3,43,75,43c0,0-0.1,0-0.1,0h-0.1V44.1z M75,42.7c0.4,0,0.6-0.1,0.6-0.4c0-0.4-0.2-0.4-0.6-0.4
			h-0.1v0.8H75z"/>
		<path fill="#222222" d="M78.4,43.8c-0.2,0.2-0.6,0.4-0.9,0.4c-0.3,0-0.7-0.1-0.9-0.4c-0.2-0.2-0.4-0.6-0.4-0.9
			c0-0.3,0.1-0.7,0.4-0.9c0.2-0.2,0.6-0.4,0.9-0.4c0.3,0,0.7,0.1,0.9,0.4c0.2,0.2,0.4,0.6,0.4,0.9C78.8,43.2,78.7,43.5,78.4,43.8z
			 M78.2,43.6c0.2-0.2,0.3-0.4,0.3-0.7c0-0.3-0.1-0.5-0.3-0.7c-0.2-0.2-0.4-0.3-0.7-0.3c-0.3,0-0.5,0.1-0.7,0.3
			c-0.2,0.2-0.3,0.4-0.3,0.7c0,0.3,0.1,0.5,0.3,0.7c0.2,0.2,0.4,0.3,0.7,0.3C77.8,43.9,78,43.8,78.2,43.6z"/>
		<path fill="#222222" d="M79.6,41.7v1.5c0,0.5,0.2,0.7,0.6,0.7c0.4,0,0.6-0.2,0.6-0.7v-1.5h0.3v1.5c0,0.7-0.3,1-0.9,1
			c-0.6,0-0.9-0.3-0.9-1v-1.5H79.6z"/>
		<path fill="#222222" d="M81.9,41.7h0.5c0,0,0.1,0,0.1,0c0.2,0,0.4,0,0.6,0.1c0.1,0.1,0.2,0.3,0.2,0.5c0,0.4-0.2,0.6-0.7,0.6
			c0,0,0,0-0.1,0l0.9,1.2h-0.4l-0.9-1.2h0v1.2h-0.3V41.7z M82.1,42.7h0.2c0.4,0,0.6-0.1,0.6-0.4c0-0.4-0.2-0.4-0.6-0.4h-0.2V42.7z"
			/>
		<path fill="#222222" d="M84.8,41.7h0.3v2.1H86v0.3h-1.2V41.7z"/>
		<path fill="#222222" d="M88.3,44.1H88l-0.3-0.7h-0.9l-0.3,0.7h-0.3l1.1-2.5L88.3,44.1z M86.8,43.1h0.8l-0.4-0.9L86.8,43.1z"/>
		<path fill="#222222" d="M89.7,41.6l1.8,1.9v-1.8h0.3v2.5L90,42.3v1.8h-0.3V41.6z"/>
		<path fill="#222222" d="M94.3,44.1H94l-0.3-0.7h-0.9l-0.3,0.7h-0.3l1.1-2.5L94.3,44.1z M92.8,43.1h0.8l-0.4-0.9L92.8,43.1z"/>
		<path fill="#222222" d="M94.9,41.9h-0.7v-0.3h1.7v0.3h-0.7v2.1h-0.3V41.9z"/>
		<path fill="#222222" d="M96.5,41.7v1.5c0,0.5,0.2,0.7,0.6,0.7c0.4,0,0.6-0.2,0.6-0.7v-1.5h0.3v1.5c0,0.7-0.3,1-0.9,1
			c-0.6,0-0.9-0.3-0.9-1v-1.5H96.5z"/>
		<path fill="#222222" d="M98.7,41.7h0.5c0,0,0.1,0,0.1,0c0.2,0,0.4,0,0.6,0.1c0.1,0.1,0.2,0.3,0.2,0.5c0,0.4-0.2,0.6-0.7,0.6
			c0,0,0,0-0.1,0l0.9,1.2h-0.4l-0.9-1.2h0v1.2h-0.3V41.7z M99,42.7h0.2c0.4,0,0.6-0.1,0.6-0.4c0-0.4-0.2-0.4-0.6-0.4H99V42.7z"/>
		<path fill="#222222" d="M100.6,41.7h1.3v0.3h-1v0.7h1v0.3h-1v0.9h1v0.3h-1.3V41.7z"/>
		<path fill="#222222" d="M62.4,20.7c-3.3,0-6.1,0.5-8.8,1.6c1.3,2.6,4,4.4,7.1,4.4c3.5,0,6.5-2.3,7.6-5.5
			C66.1,20.9,64.2,20.7,62.4,20.7z"/>
		<path fill="#222222" d="M60.7,10.8c-4.4,0-7.9,3.6-7.9,7.9c0,0.7,0.1,1.4,0.3,2.1c4.9-2.1,10.3-2.5,15.5-2.9
			C68.2,14,64.8,10.8,60.7,10.8z"/>
		<path fill="#222222" d="M104.9,17.9c-11.2,7.8-22.2,1.6-33.5-0.4c-6.4-1.2-12.8-1.1-19.5,3.5c-2,1.4-4.1,3.2-6.1,5.5
			c-0.1,0.2-0.1,0.2,0.1,0.1c2.3-2.1,4.3-3.6,6.5-4.6c5.9-2.7,12.1-2.3,18.4-1.2C83.1,23,95.5,28.3,104.9,17.9
			C105.1,17.9,105,17.8,104.9,17.9z"/>
		<path fill="#222222" d="M91.2,40.4l1.6-3.5h5.4l1.5,3.5h2.3l-6.3-13.6h-0.5l-6.3,13.6H91.2z M95,32c0.2-0.4,0.3-0.9,0.5-1.5
			c0.2,0.7,0.4,1.2,0.5,1.5l1.4,3.1h-3.8L95,32z"/>
		<path fill="#222222" d="M56.2,33.8c0.1-0.6,0.2-1.2,0.2-1.9c0.2,0.6,0.4,1.2,0.7,1.7l3.3,6.8h0.5l3.3-6.7c0.3-0.6,0.5-1.2,0.6-1.9
			c0.1,1,0.2,1.6,0.2,1.9l1.5,6.7h2.1l-3.2-13.6h-0.4l-3.7,8c-0.2,0.5-0.5,1.1-0.8,1.8c-0.4-1-0.6-1.6-0.7-1.8l-3.8-8h-0.4
			l-3.1,13.6h2L56.2,33.8z"/>
		<path fill="#222222" d="M85.8,40.4l5.8-13.6h-2.3l-3,7.2c-0.3,0.8-0.6,1.5-0.7,2.2c-0.2-0.7-0.4-1.4-0.7-2.2l-3-7.2h-2.3l5.8,13.6
			H85.8z"/>
		<path fill="#222222" d="M73,37h5.4l1.5,3.5h2.3L76,26.9h-0.5l-6.3,13.6h2.3L73,37z M75.2,32c0.2-0.4,0.3-0.9,0.5-1.5
			c0.2,0.7,0.4,1.2,0.5,1.5l1.4,3.1h-3.8L75.2,32z"/>
	</g>
	<g>
		<path d="M15.5,50.8v0.6h-1.1v3h-0.8v-3h-1.1v-0.6H15.5z"/>
		<path d="M15.9,54.4v-3.6h0.7v1.4h1.4v-1.4h0.7v3.6h-0.7v-1.6h-1.4v1.6H15.9z"/>
		<path d="M22.2,51.4h-1.9v0.8h1.7v0.6h-1.7v0.9h2v0.6h-2.7v-3.6h2.6V51.4z"/>
		<path d="M24.3,50.8H25v3h1.8v0.6h-2.5V50.8z"/>
		<path d="M27.3,50.8h0.8V53c0,0.2,0,0.4,0.1,0.5c0.1,0.2,0.3,0.3,0.6,0.3c0.3,0,0.5-0.1,0.6-0.3c0.1-0.1,0.1-0.3,0.1-0.5v-2.2h0.8
			V53c0,0.4-0.1,0.7-0.2,0.9c-0.2,0.4-0.6,0.6-1.3,0.6s-1-0.2-1.3-0.6c-0.1-0.2-0.2-0.5-0.2-0.9V50.8z"/>
		<path d="M31.3,51.1c0.3-0.3,0.7-0.4,1.1-0.4c0.6,0,1,0.2,1.3,0.6c0.2,0.2,0.2,0.4,0.2,0.7h-0.8c0-0.2-0.1-0.3-0.2-0.4
			c-0.1-0.2-0.3-0.2-0.6-0.2c-0.3,0-0.5,0.1-0.6,0.3s-0.2,0.5-0.2,0.9c0,0.4,0.1,0.7,0.2,0.9c0.2,0.2,0.4,0.3,0.6,0.3
			c0.3,0,0.5-0.1,0.6-0.3c0.1-0.1,0.1-0.2,0.2-0.4h0.7c-0.1,0.4-0.2,0.7-0.5,1c-0.3,0.2-0.6,0.4-1,0.4c-0.5,0-0.9-0.2-1.2-0.5
			c-0.3-0.3-0.4-0.8-0.4-1.4C30.8,52,30.9,51.5,31.3,51.1z"/>
		<path d="M35.9,54.4v-3.6h0.7v1.4h1.4v-1.4h0.7v3.6h-0.7v-1.6h-1.4v1.6H35.9z"/>
		<path d="M42.3,54.1c-0.3,0.3-0.7,0.4-1.2,0.4s-0.9-0.1-1.2-0.4c-0.4-0.3-0.5-0.8-0.5-1.5c0-0.7,0.2-1.2,0.5-1.5
			c0.3-0.3,0.7-0.4,1.2-0.4s0.9,0.1,1.2,0.4c0.4,0.3,0.5,0.8,0.5,1.5C42.9,53.2,42.7,53.7,42.3,54.1z M41.9,53.5
			c0.2-0.2,0.3-0.5,0.3-0.9c0-0.4-0.1-0.7-0.3-0.9c-0.2-0.2-0.4-0.3-0.7-0.3s-0.5,0.1-0.7,0.3s-0.3,0.5-0.3,0.9s0.1,0.7,0.3,0.9
			s0.4,0.3,0.7,0.3S41.7,53.7,41.9,53.5z"/>
		<path d="M43.4,50.8H46v0.6h-1.8v0.8h1.6v0.6h-1.6v1.5h-0.7V50.8z"/>
		<path d="M46.5,50.8h2.6v0.6h-1.8v0.8h1.6v0.6h-1.6v1.5h-0.7V50.8z"/>
		<path d="M51.9,50.8H53v3.6h-0.7v-2.4c0-0.1,0-0.2,0-0.3c0-0.1,0-0.2,0-0.3l-0.7,3h-0.7l-0.7-3c0,0.1,0,0.2,0,0.3
			c0,0.1,0,0.2,0,0.3v2.4h-0.7v-3.6h1.1l0.7,2.8L51.9,50.8z"/>
		<path d="M54.7,50.8h0.9l1.3,3.6h-0.8l-0.2-0.7h-1.3l-0.2,0.7h-0.8L54.7,50.8z M54.7,53h0.9l-0.5-1.4L54.7,53z"/>
		<path d="M57.3,50.8h0.8l1.4,2.5v-2.5h0.7v3.6h-0.8L58,51.8v2.6h-0.7V50.8z"/>
		<path d="M60.9,50.8h0.8l1.4,2.5v-2.5h0.7v3.6h-0.8l-1.5-2.6v2.6h-0.7V50.8z"/>
		<path d="M66.6,54.4h-0.7v-3.6h0.7V54.4z"/>
		<path d="M67.3,50.8h0.8l1.4,2.5v-2.5h0.7v3.6h-0.8L68,51.8v2.6h-0.7V50.8z"/>
		<path d="M71.5,53.3c0,0.2,0.1,0.3,0.1,0.4c0.1,0.1,0.3,0.2,0.6,0.2c0.2,0,0.3,0,0.4-0.1c0.2-0.1,0.3-0.2,0.3-0.4
			c0-0.1-0.1-0.2-0.2-0.3c-0.1-0.1-0.3-0.1-0.5-0.2L72,52.8c-0.4-0.1-0.6-0.2-0.8-0.3c-0.2-0.2-0.4-0.4-0.4-0.8
			c0-0.3,0.1-0.6,0.4-0.8c0.2-0.2,0.6-0.3,1-0.3c0.4,0,0.7,0.1,1,0.3c0.3,0.2,0.4,0.5,0.4,0.9h-0.7c0-0.2-0.1-0.4-0.3-0.5
			c-0.1-0.1-0.3-0.1-0.4-0.1c-0.2,0-0.4,0-0.5,0.1c-0.1,0.1-0.2,0.2-0.2,0.3c0,0.1,0.1,0.2,0.2,0.3c0.1,0,0.2,0.1,0.5,0.1l0.6,0.1
			c0.3,0.1,0.5,0.2,0.6,0.3c0.2,0.2,0.3,0.4,0.3,0.7c0,0.3-0.1,0.6-0.4,0.8c-0.3,0.2-0.6,0.3-1.1,0.3c-0.5,0-0.8-0.1-1.1-0.3
			s-0.4-0.5-0.4-0.9H71.5z"/>
		<path d="M76.9,50.8v0.6h-1.1v3h-0.8v-3H74v-0.6H76.9z"/>
		<path d="M78,54.4h-0.7v-3.6H78V54.4z"/>
		<path d="M81.3,50.8v0.6h-1.1v3h-0.8v-3h-1.1v-0.6H81.3z"/>
		<path d="M81.8,50.8h0.8V53c0,0.2,0,0.4,0.1,0.5c0.1,0.2,0.3,0.3,0.6,0.3c0.3,0,0.5-0.1,0.6-0.3c0.1-0.1,0.1-0.3,0.1-0.5v-2.2h0.8
			V53c0,0.4-0.1,0.7-0.2,0.9c-0.2,0.4-0.6,0.6-1.3,0.6s-1-0.2-1.3-0.6c-0.1-0.2-0.2-0.5-0.2-0.9V50.8z"/>
		<path d="M88,50.8v0.6h-1.1v3h-0.8v-3h-1.1v-0.6H88z"/>
		<path d="M91.1,51.4h-1.9v0.8h1.7v0.6h-1.7v0.9h2v0.6h-2.7v-3.6h2.6V51.4z"/>
		<path d="M93.8,54.4h-0.7v-3.6h0.7V54.4z"/>
		<path d="M95.1,53.3c0,0.2,0.1,0.3,0.1,0.4c0.1,0.1,0.3,0.2,0.6,0.2c0.2,0,0.3,0,0.4-0.1c0.2-0.1,0.3-0.2,0.3-0.4
			c0-0.1-0.1-0.2-0.2-0.3C96.4,53,96.2,53,96,52.9l-0.4-0.1c-0.4-0.1-0.6-0.2-0.8-0.3c-0.2-0.2-0.4-0.4-0.4-0.8
			c0-0.3,0.1-0.6,0.4-0.8c0.2-0.2,0.6-0.3,1-0.3c0.4,0,0.7,0.1,1,0.3c0.3,0.2,0.4,0.5,0.4,0.9h-0.7c0-0.2-0.1-0.4-0.3-0.5
			c-0.1-0.1-0.3-0.1-0.4-0.1c-0.2,0-0.4,0-0.5,0.1c-0.1,0.1-0.2,0.2-0.2,0.3c0,0.1,0.1,0.2,0.2,0.3c0.1,0,0.2,0.1,0.5,0.1l0.6,0.1
			c0.3,0.1,0.5,0.2,0.6,0.3c0.2,0.2,0.3,0.4,0.3,0.7c0,0.3-0.1,0.6-0.4,0.8c-0.3,0.2-0.6,0.3-1.1,0.3c-0.5,0-0.8-0.1-1.1-0.3
			s-0.4-0.5-0.4-0.9H95.1z"/>
		<path d="M99.8,53.3c0,0.2,0.1,0.3,0.1,0.4c0.1,0.1,0.3,0.2,0.6,0.2c0.2,0,0.3,0,0.4-0.1c0.2-0.1,0.3-0.2,0.3-0.4
			c0-0.1-0.1-0.2-0.2-0.3c-0.1-0.1-0.3-0.1-0.5-0.2l-0.4-0.1c-0.4-0.1-0.6-0.2-0.8-0.3c-0.2-0.2-0.4-0.4-0.4-0.8
			c0-0.3,0.1-0.6,0.4-0.8c0.2-0.2,0.6-0.3,1-0.3c0.4,0,0.7,0.1,1,0.3c0.3,0.2,0.4,0.5,0.4,0.9h-0.7c0-0.2-0.1-0.4-0.3-0.5
			c-0.1-0.1-0.3-0.1-0.4-0.1c-0.2,0-0.4,0-0.5,0.1c-0.1,0.1-0.2,0.2-0.2,0.3c0,0.1,0.1,0.2,0.2,0.3c0.1,0,0.2,0.1,0.5,0.1l0.6,0.1
			c0.3,0.1,0.5,0.2,0.6,0.3c0.2,0.2,0.3,0.4,0.3,0.7c0,0.3-0.1,0.6-0.4,0.8c-0.3,0.2-0.6,0.3-1.1,0.3c-0.5,0-0.8-0.1-1.1-0.3
			s-0.4-0.5-0.4-0.9H99.8z"/>
		<path d="M102.6,50.8h0.8V53c0,0.2,0,0.4,0.1,0.5c0.1,0.2,0.3,0.3,0.6,0.3c0.3,0,0.5-0.1,0.6-0.3c0.1-0.1,0.1-0.3,0.1-0.5v-2.2h0.8
			V53c0,0.4-0.1,0.7-0.2,0.9c-0.2,0.4-0.6,0.6-1.3,0.6s-1-0.2-1.3-0.6c-0.1-0.2-0.2-0.5-0.2-0.9V50.8z"/>
		<path d="M108.6,52.8c-0.2,0.2-0.5,0.3-0.9,0.3H107v1.3h-0.7v-3.6h1.5c0.4,0,0.6,0.1,0.9,0.3s0.3,0.5,0.3,0.9
			C108.9,52.3,108.8,52.6,108.6,52.8z M108.1,51.5c-0.1-0.1-0.2-0.1-0.4-0.1H107v1.1h0.7c0.2,0,0.3,0,0.4-0.1
			c0.1-0.1,0.1-0.2,0.1-0.4C108.2,51.7,108.2,51.6,108.1,51.5z"/>
		<path d="M112,52.8c-0.2,0.2-0.5,0.3-0.9,0.3h-0.8v1.3h-0.7v-3.6h1.5c0.4,0,0.6,0.1,0.9,0.3s0.3,0.5,0.3,0.9
			C112.3,52.3,112.2,52.6,112,52.8z M111.4,51.5c-0.1-0.1-0.2-0.1-0.4-0.1h-0.7v1.1h0.7c0.2,0,0.3,0,0.4-0.1
			c0.1-0.1,0.1-0.2,0.1-0.4C111.5,51.7,111.5,51.6,111.4,51.5z"/>
		<path d="M115.7,54.1c-0.3,0.3-0.7,0.4-1.2,0.4s-0.9-0.1-1.2-0.4c-0.4-0.3-0.5-0.8-0.5-1.5c0-0.7,0.2-1.2,0.5-1.5
			c0.3-0.3,0.7-0.4,1.2-0.4s0.9,0.1,1.2,0.4c0.4,0.3,0.5,0.8,0.5,1.5C116.2,53.2,116,53.7,115.7,54.1z M115.2,53.5
			c0.2-0.2,0.3-0.5,0.3-0.9c0-0.4-0.1-0.7-0.3-0.9c-0.2-0.2-0.4-0.3-0.7-0.3s-0.5,0.1-0.7,0.3s-0.3,0.5-0.3,0.9s0.1,0.7,0.3,0.9
			s0.4,0.3,0.7,0.3S115,53.7,115.2,53.5z"/>
		<path d="M119.1,50.9c0.1,0.1,0.2,0.1,0.3,0.3c0.1,0.1,0.1,0.2,0.2,0.3c0,0.1,0.1,0.2,0.1,0.4c0,0.2,0,0.3-0.1,0.5
			c-0.1,0.2-0.2,0.3-0.4,0.4c0.2,0.1,0.3,0.2,0.4,0.3s0.1,0.3,0.1,0.6v0.2c0,0.2,0,0.3,0,0.3c0,0.1,0.1,0.2,0.1,0.2v0.1h-0.8
			c0-0.1,0-0.1,0-0.2c0-0.1,0-0.2,0-0.3l0-0.3c0-0.2,0-0.4-0.1-0.5c-0.1-0.1-0.2-0.1-0.4-0.1h-0.7v1.4h-0.7v-3.6h1.7
			C118.8,50.8,118.9,50.8,119.1,50.9z M117.5,51.4v1h0.8c0.2,0,0.3,0,0.4-0.1c0.1-0.1,0.2-0.2,0.2-0.4c0-0.2-0.1-0.4-0.2-0.4
			c-0.1,0-0.2-0.1-0.3-0.1H117.5z"/>
		<path d="M123,50.8v0.6h-1.1v3h-0.8v-3h-1.1v-0.6H123z"/>
		<path d="M126.1,51.4h-1.9v0.8h1.7v0.6h-1.7v0.9h2v0.6h-2.7v-3.6h2.6V51.4z"/>
		<path d="M128.9,50.9c0.3,0.1,0.5,0.2,0.6,0.5c0.1,0.2,0.2,0.4,0.3,0.6c0,0.2,0.1,0.4,0.1,0.6c0,0.5-0.1,0.9-0.3,1.2
			c-0.3,0.4-0.7,0.7-1.2,0.7h-1.6v-3.6h1.6C128.5,50.8,128.7,50.8,128.9,50.9z M127.5,51.4v2.3h0.7c0.4,0,0.6-0.2,0.7-0.5
			c0.1-0.2,0.1-0.4,0.1-0.7c0-0.4-0.1-0.6-0.2-0.8s-0.3-0.3-0.7-0.3H127.5z"/>
		<path d="M134.5,51.2c0.1,0.2,0.2,0.3,0.2,0.5c0,0.2-0.1,0.4-0.2,0.5c-0.1,0.1-0.2,0.1-0.3,0.2c0.2,0.1,0.3,0.2,0.4,0.3
			c0.1,0.1,0.1,0.3,0.1,0.5c0,0.2-0.1,0.4-0.2,0.6c-0.1,0.1-0.2,0.2-0.3,0.3c-0.1,0.1-0.2,0.1-0.4,0.2c-0.2,0-0.3,0-0.5,0h-1.6v-3.6
			h1.7C134,50.8,134.3,50.9,134.5,51.2z M132.5,51.4v0.8h0.9c0.2,0,0.3,0,0.4-0.1s0.1-0.2,0.1-0.3c0-0.2-0.1-0.3-0.2-0.3
			c-0.1,0-0.3-0.1-0.4-0.1H132.5z M132.5,52.8v1h0.9c0.2,0,0.3,0,0.4-0.1c0.2-0.1,0.2-0.2,0.2-0.4c0-0.2-0.1-0.3-0.2-0.4
			c-0.1,0-0.2-0.1-0.4-0.1H132.5z"/>
		<path d="M137.4,50.8h0.9l-1.2,2.2v1.3h-0.8V53l-1.2-2.2h0.9l0.7,1.6L137.4,50.8z"/>
		<path d="M15.2,56.8H16l1.3,3.6h-0.8l-0.2-0.7h-1.3l-0.2,0.7h-0.8L15.2,56.8z M15.1,59H16l-0.5-1.4L15.1,59z"/>
		<path d="M21.4,57.9c-0.1-0.2-0.2-0.4-0.4-0.5c-0.1-0.1-0.3-0.1-0.4-0.1c-0.3,0-0.5,0.1-0.7,0.3c-0.2,0.2-0.3,0.5-0.3,1
			c0,0.4,0.1,0.8,0.3,0.9s0.4,0.3,0.7,0.3c0.3,0,0.5-0.1,0.6-0.2s0.3-0.3,0.3-0.6h-0.8v-0.6h1.5v1.9h-0.5l-0.1-0.4
			c-0.1,0.2-0.3,0.3-0.4,0.4c-0.2,0.1-0.4,0.2-0.7,0.2c-0.5,0-0.9-0.2-1.2-0.5c-0.3-0.3-0.5-0.8-0.5-1.4c0-0.6,0.2-1,0.5-1.4
			c0.3-0.4,0.7-0.5,1.3-0.5c0.5,0,0.8,0.1,1.1,0.3c0.3,0.2,0.4,0.5,0.5,0.9H21.4z"/>
		<path d="M25.5,57.4h-1.9v0.8h1.7v0.6h-1.7v0.9h2v0.6h-2.7v-3.6h2.6V57.4z"/>
		<path d="M26.2,56.8H27l1.4,2.5v-2.5h0.7v3.6h-0.8l-1.5-2.6v2.6h-0.7V56.8z"/>
		<path d="M32.4,57.4h-1.9v0.8h1.7v0.6h-1.7v0.9h2v0.6h-2.7v-3.6h2.6V57.4z"/>
		<path d="M35.4,56.9c0.1,0.1,0.2,0.1,0.3,0.3c0.1,0.1,0.1,0.2,0.2,0.3c0,0.1,0.1,0.2,0.1,0.4c0,0.2,0,0.3-0.1,0.5
			c-0.1,0.2-0.2,0.3-0.4,0.4c0.2,0.1,0.3,0.2,0.4,0.3s0.1,0.3,0.1,0.6v0.2c0,0.2,0,0.3,0,0.3c0,0.1,0.1,0.2,0.1,0.2v0.1h-0.8
			c0-0.1,0-0.1,0-0.2c0-0.1,0-0.2,0-0.3l0-0.3c0-0.2,0-0.4-0.1-0.5C35,59,34.8,59,34.6,59h-0.7v1.4h-0.7v-3.6h1.7
			C35.1,56.8,35.3,56.8,35.4,56.9z M33.9,57.4v1h0.8c0.2,0,0.3,0,0.4-0.1c0.1-0.1,0.2-0.2,0.2-0.4c0-0.2-0.1-0.4-0.2-0.4
			c-0.1,0-0.2-0.1-0.3-0.1H33.9z"/>
		<path d="M39.5,60.1c-0.3,0.3-0.7,0.4-1.2,0.4s-0.9-0.1-1.2-0.4c-0.4-0.3-0.5-0.8-0.5-1.5c0-0.7,0.2-1.2,0.5-1.5
			c0.3-0.3,0.7-0.4,1.2-0.4s0.9,0.1,1.2,0.4c0.4,0.3,0.5,0.8,0.5,1.5C40,59.2,39.9,59.7,39.5,60.1z M39,59.5
			c0.2-0.2,0.3-0.5,0.3-0.9c0-0.4-0.1-0.7-0.3-0.9c-0.2-0.2-0.4-0.3-0.7-0.3s-0.5,0.1-0.7,0.3s-0.3,0.5-0.3,0.9s0.1,0.7,0.3,0.9
			s0.4,0.3,0.7,0.3S38.9,59.7,39,59.5z"/>
		<path d="M40.6,56.8h0.8V59c0,0.2,0,0.4,0.1,0.5c0.1,0.2,0.3,0.3,0.6,0.3c0.3,0,0.5-0.1,0.6-0.3c0.1-0.1,0.1-0.3,0.1-0.5v-2.2h0.8
			V59c0,0.4-0.1,0.7-0.2,0.9c-0.2,0.4-0.6,0.6-1.3,0.6s-1-0.2-1.3-0.6c-0.1-0.2-0.2-0.5-0.2-0.9V56.8z"/>
		<path d="M44.8,59.3c0,0.2,0.1,0.3,0.1,0.4c0.1,0.1,0.3,0.2,0.6,0.2c0.2,0,0.3,0,0.4-0.1c0.2-0.1,0.3-0.2,0.3-0.4
			c0-0.1-0.1-0.2-0.2-0.3c-0.1-0.1-0.3-0.1-0.5-0.2l-0.4-0.1c-0.4-0.1-0.6-0.2-0.8-0.3c-0.2-0.2-0.4-0.4-0.4-0.8
			c0-0.3,0.1-0.6,0.4-0.8c0.2-0.2,0.6-0.3,1-0.3c0.4,0,0.7,0.1,1,0.3c0.3,0.2,0.4,0.5,0.4,0.9h-0.7c0-0.2-0.1-0.4-0.3-0.5
			c-0.1-0.1-0.3-0.1-0.4-0.1c-0.2,0-0.4,0-0.5,0.1c-0.1,0.1-0.2,0.2-0.2,0.3c0,0.1,0.1,0.2,0.2,0.3c0.1,0,0.2,0.1,0.5,0.1l0.6,0.1
			c0.3,0.1,0.5,0.2,0.6,0.3c0.2,0.2,0.3,0.4,0.3,0.7c0,0.3-0.1,0.6-0.4,0.8c-0.3,0.2-0.6,0.3-1.1,0.3c-0.5,0-0.8-0.1-1.1-0.3
			s-0.4-0.5-0.4-0.9H44.8z"/>
		<path d="M51.4,57.9c-0.1-0.2-0.2-0.4-0.4-0.5c-0.1-0.1-0.3-0.1-0.4-0.1c-0.3,0-0.5,0.1-0.7,0.3c-0.2,0.2-0.3,0.5-0.3,1
			c0,0.4,0.1,0.8,0.3,0.9s0.4,0.3,0.7,0.3c0.3,0,0.5-0.1,0.6-0.2s0.3-0.3,0.3-0.6h-0.8v-0.6h1.5v1.9h-0.5l-0.1-0.4
			c-0.1,0.2-0.3,0.3-0.4,0.4c-0.2,0.1-0.4,0.2-0.7,0.2c-0.5,0-0.9-0.2-1.2-0.5c-0.3-0.3-0.5-0.8-0.5-1.4c0-0.6,0.2-1,0.5-1.4
			c0.3-0.4,0.7-0.5,1.3-0.5c0.5,0,0.8,0.1,1.1,0.3c0.3,0.2,0.4,0.5,0.5,0.9H51.4z"/>
		<path d="M53.5,60.4h-0.7v-3.6h0.7V60.4z"/>
		<path d="M54.2,56.8h2.6v0.6H55v0.8h1.6v0.6H55v1.5h-0.7V56.8z"/>
		<path d="M59.9,56.8v0.6h-1.1v3h-0.8v-3H57v-0.6H59.9z"/>
		<path d="M61.7,56.8h2.6v0.6h-1.8v0.8h1.6v0.6h-1.6v1.5h-0.7V56.8z"/>
		<path d="M67.1,56.9c0.1,0.1,0.2,0.1,0.3,0.3c0.1,0.1,0.1,0.2,0.2,0.3c0,0.1,0.1,0.2,0.1,0.4c0,0.2,0,0.3-0.1,0.5
			c-0.1,0.2-0.2,0.3-0.4,0.4c0.2,0.1,0.3,0.2,0.4,0.3s0.1,0.3,0.1,0.6v0.2c0,0.2,0,0.3,0,0.3c0,0.1,0.1,0.2,0.1,0.2v0.1h-0.8
			c0-0.1,0-0.1,0-0.2c0-0.1,0-0.2,0-0.3l0-0.3c0-0.2,0-0.4-0.1-0.5C66.6,59,66.5,59,66.3,59h-0.7v1.4h-0.7v-3.6h1.7
			C66.8,56.8,67,56.8,67.1,56.9z M65.5,57.4v1h0.8c0.2,0,0.3,0,0.4-0.1c0.1-0.1,0.2-0.2,0.2-0.4c0-0.2-0.1-0.4-0.2-0.4
			c-0.1,0-0.2-0.1-0.3-0.1H65.5z"/>
		<path d="M71.2,60.1c-0.3,0.3-0.7,0.4-1.2,0.4s-0.9-0.1-1.2-0.4c-0.4-0.3-0.5-0.8-0.5-1.5c0-0.7,0.2-1.2,0.5-1.5
			c0.3-0.3,0.7-0.4,1.2-0.4s0.9,0.1,1.2,0.4c0.4,0.3,0.5,0.8,0.5,1.5C71.7,59.2,71.5,59.7,71.2,60.1z M70.7,59.5
			c0.2-0.2,0.3-0.5,0.3-0.9c0-0.4-0.1-0.7-0.3-0.9c-0.2-0.2-0.4-0.3-0.7-0.3s-0.5,0.1-0.7,0.3S69,58.2,69,58.6s0.1,0.7,0.3,0.9
			s0.4,0.3,0.7,0.3S70.5,59.7,70.7,59.5z"/>
		<path d="M74.7,56.8h1.1v3.6h-0.7v-2.4c0-0.1,0-0.2,0-0.3c0-0.1,0-0.2,0-0.3l-0.7,3h-0.7l-0.7-3c0,0.1,0,0.2,0,0.3
			c0,0.1,0,0.2,0,0.3v2.4h-0.7v-3.6h1.1l0.7,2.8L74.7,56.8z"/>
		<path d="M80.5,56.8v0.6h-1.1v3h-0.8v-3h-1.1v-0.6H80.5z"/>
		<path d="M80.9,60.4v-3.6h0.7v1.4H83v-1.4h0.7v3.6H83v-1.6h-1.4v1.6H80.9z"/>
		<path d="M87.2,57.4h-1.9v0.8H87v0.6h-1.7v0.9h2v0.6h-2.7v-3.6h2.6V57.4z"/>
		<path d="M91.6,56.8h1.1v3.6H92v-2.4c0-0.1,0-0.2,0-0.3c0-0.1,0-0.2,0-0.3l-0.7,3h-0.7l-0.7-3c0,0.1,0,0.2,0,0.3c0,0.1,0,0.2,0,0.3
			v2.4h-0.7v-3.6h1.1l0.7,2.8L91.6,56.8z"/>
		<path d="M94.4,56.8h0.9l1.3,3.6h-0.8l-0.2-0.7h-1.3l-0.2,0.7h-0.8L94.4,56.8z M94.4,59h0.9l-0.5-1.4L94.4,59z"/>
		<path d="M98.7,56.8h0.8l-1.2,3.6h-0.7l-1.2-3.6h0.8l0.8,2.7L98.7,56.8z"/>
		<path d="M100.6,56.8h0.9l1.3,3.6h-0.8l-0.2-0.7h-1.3l-0.2,0.7h-0.8L100.6,56.8z M100.6,59h0.9l-0.5-1.4L100.6,59z"/>
		<path d="M104.4,56.8h2.6v0.6h-1.8v0.8h1.6v0.6h-1.6v1.5h-0.7V56.8z"/>
		<path d="M110.2,60.1c-0.3,0.3-0.7,0.4-1.2,0.4s-0.9-0.1-1.2-0.4c-0.4-0.3-0.5-0.8-0.5-1.5c0-0.7,0.2-1.2,0.5-1.5
			c0.3-0.3,0.7-0.4,1.2-0.4s0.9,0.1,1.2,0.4c0.4,0.3,0.5,0.8,0.5,1.5C110.8,59.2,110.6,59.7,110.2,60.1z M109.8,59.5
			c0.2-0.2,0.3-0.5,0.3-0.9c0-0.4-0.1-0.7-0.3-0.9c-0.2-0.2-0.4-0.3-0.7-0.3s-0.5,0.1-0.7,0.3s-0.3,0.5-0.3,0.9s0.1,0.7,0.3,0.9
			s0.4,0.3,0.7,0.3S109.6,59.7,109.8,59.5z"/>
		<path d="M111.4,56.8h0.8V59c0,0.2,0,0.4,0.1,0.5c0.1,0.2,0.3,0.3,0.6,0.3c0.3,0,0.5-0.1,0.6-0.3c0.1-0.1,0.1-0.3,0.1-0.5v-2.2h0.8
			V59c0,0.4-0.1,0.7-0.2,0.9c-0.2,0.4-0.6,0.6-1.3,0.6s-1-0.2-1.3-0.6c-0.1-0.2-0.2-0.5-0.2-0.9V56.8z"/>
		<path d="M115,56.8h0.8l1.4,2.5v-2.5h0.7v3.6h-0.8l-1.5-2.6v2.6H115V56.8z"/>
		<path d="M120.7,56.9c0.3,0.1,0.5,0.2,0.6,0.5c0.1,0.2,0.2,0.4,0.3,0.6c0,0.2,0.1,0.4,0.1,0.6c0,0.5-0.1,0.9-0.3,1.2
			c-0.3,0.4-0.7,0.7-1.2,0.7h-1.6v-3.6h1.6C120.4,56.8,120.5,56.8,120.7,56.9z M119.3,57.4v2.3h0.7c0.4,0,0.6-0.2,0.7-0.5
			c0.1-0.2,0.1-0.4,0.1-0.7c0-0.4-0.1-0.6-0.2-0.8s-0.3-0.3-0.7-0.3H119.3z"/>
		<path d="M123.2,56.8h0.9l1.3,3.6h-0.8l-0.2-0.7H123l-0.2,0.7h-0.8L123.2,56.8z M123.2,59h0.9l-0.5-1.4L123.2,59z"/>
		<path d="M128.1,56.8v0.6H127v3h-0.8v-3h-1.1v-0.6H128.1z"/>
		<path d="M129.2,60.4h-0.7v-3.6h0.7V60.4z"/>
		<path d="M132.7,60.1c-0.3,0.3-0.7,0.4-1.2,0.4s-0.9-0.1-1.2-0.4c-0.4-0.3-0.5-0.8-0.5-1.5c0-0.7,0.2-1.2,0.5-1.5
			c0.3-0.3,0.7-0.4,1.2-0.4s0.9,0.1,1.2,0.4c0.4,0.3,0.5,0.8,0.5,1.5C133.2,59.2,133,59.7,132.7,60.1z M132.2,59.5
			c0.2-0.2,0.3-0.5,0.3-0.9c0-0.4-0.1-0.7-0.3-0.9c-0.2-0.2-0.4-0.3-0.7-0.3s-0.5,0.1-0.7,0.3s-0.3,0.5-0.3,0.9s0.1,0.7,0.3,0.9
			s0.4,0.3,0.7,0.3S132,59.7,132.2,59.5z"/>
		<path d="M133.8,56.8h0.8l1.4,2.5v-2.5h0.7v3.6h-0.8l-1.5-2.6v2.6h-0.7V56.8z"/>
	</g>
</g>
<g>
	<rect x="0.1" y="-75.3" fill="#FFFFFF" width="150.8" height="75"/>
	<g>
		<path d="M26.8-22.3c-0.3,0-0.6,0.2-0.7,0.5l-1.3,3.4l-0.1,0.4l-0.1-0.4l-1-3.3c0,0,0,0,0,0v0l0,0c-0.1-0.3-0.4-0.5-0.7-0.5l0,0
			h-1.7l0,0c-0.4,0-0.7,0.3-0.7,0.7c0,0.1,0,0.2,0.1,0.4l0.2,0.7l-0.8,2l-0.1,0.4l-0.1-0.4l-1-3.3c0,0,0,0,0,0v0
			c-0.1-0.3-0.4-0.5-0.7-0.5l0,0h-1.7l0,0c-0.4,0-0.7,0.3-0.7,0.7c0,0.1,0,0.2,0.1,0.4l2.5,7.4c0.1,0.3,0.4,0.5,0.7,0.5
			c0.3,0,0.6-0.2,0.7-0.5l1.7-4.4l0.1-0.4l0.1,0.4l1.5,4.4c0.1,0.3,0.3,0.5,0.7,0.5c0.3,0,0.6-0.2,0.7-0.5l2.9-7.5
			c0-0.1,0.1-0.2,0.1-0.3C27.5-22,27.2-22.3,26.8-22.3L26.8-22.3z"/>
		<path d="M39.2-22.3c-0.3,0-0.6,0.2-0.7,0.5l-1.3,3.4l-0.1,0.4L37-18.5l-1-3.3c0,0,0,0,0,0v0l0,0c-0.1-0.3-0.4-0.5-0.7-0.5l0,0
			h-1.7l0,0c-0.4,0-0.7,0.3-0.7,0.7c0,0.1,0,0.2,0.1,0.4l0.2,0.7l-0.8,2l-0.1,0.4l-0.1-0.4l-1-3.3c0,0,0,0,0,0v0
			c-0.1-0.3-0.4-0.5-0.7-0.5l0,0h-1.7l0,0c-0.4,0-0.7,0.3-0.7,0.7c0,0.1,0,0.2,0.1,0.4l2.5,7.4c0.1,0.3,0.3,0.5,0.7,0.5
			c0.3,0,0.6-0.2,0.7-0.5l1.7-4.4l0.1-0.4l0.1,0.4l1.5,4.4c0.1,0.3,0.4,0.5,0.7,0.5c0.3,0,0.6-0.2,0.7-0.5l2.9-7.5
			c0-0.1,0.1-0.2,0.1-0.3C39.9-22,39.6-22.3,39.2-22.3L39.2-22.3z"/>
		<path d="M47.3-22.3c0,0-5.8,0-5.8,0l0,0c-0.3,0-0.6,0.3-0.6,0.6l0,0v0c0,0,0,0.6,0,1.5c0,2.1,0,6.2,0,6.2c0,0,0,0,0,0h0
			c0,0.3,0.3,0.6,0.7,0.6l0,0c1,0,1.6,0,1.6,0l0,0c0.4,0,0.6-0.3,0.6-0.7c0,0.1,0-3.6,0-3.6s2.4,0,2.4,0c0.3,0,0.6-0.3,0.6-0.6
			c0-0.3-0.3-0.6-0.6-0.6c0,0-2.4,0-2.4,0l0-2.1c0,0,3.5,0,3.5,0c0.4,0,0.7-0.3,0.7-0.7C48-22,47.6-22.3,47.3-22.3L47.3-22.3z"/>
		<path d="M38.3-46.9c1.1,1.2,1.2,4.7,3.8,3.3c1.6-0.8,1.6-4.4-0.6-5.7c-1.7-1-2.7,0.4-3.3,2C38.2-47.1,38.2-47,38.3-46.9L38.3-46.9
			z"/>
		<path d="M34.1-47.5c-1.1,0.9-1.9,3.4-3.9,2.6c-1.6-0.8-1.8-4.1,1-5.6c2-0.9,3,0.9,3,2.8C34.3-47.6,34.2-47.5,34.1-47.5L34.1-47.5z
			"/>
		<path d="M36.9-41c1.1-0.1,0.8-1.1,0-1.4c-0.7-0.2-1.9-0.4-2.7-0.4c-1.4,0-1.4,1.1-0.6,1.3c0.6,0.2,0.9,0.3,1.4,0.9
			C35.4-39.8,35.2-40.9,36.9-41L36.9-41z"/>
		<path d="M42-59.2c1.4-2.3,3.8-1.9,5-0.7c1.3,1.2,1.5,2.7,1,3.7c-0.7,1.4-2.5,3-3.6,1.4c-0.5-0.7-1.6-1.5-2.2-1.8
			C41.4-57,41.2-57.8,42-59.2L42-59.2z"/>
		<path d="M47.5-49.1c-0.1-0.4-0.3-0.4-0.3,0c0.1,4.2-2.4,8.7-7.7,8.7c-1.4,0-1,2.2-3.4,1.1c-1.8-1.2-2.8,1.2-4.1-1.4
			c-0.3-0.7-0.7-1-1.2-1.2c-5.3-1.3-7-8.6-2.3-14.4c0.9,0.5,1.3,0.6,2.2-0.3c0.5-0.5,1.4-1,1.8-1.2c1.1-0.4,1.7-0.9,0.8-3
			c-1.2-2.8-3.8-2-4.9-1C27-60.8,26-59.1,27.7-57c-4.7,3.2-5.5,7.1-5.4,10.5c0.1,3.6-0.8,3.3,0.3,7c0.1,0.3-0.1,0.3-0.3,0.2
			c-4.9-3.2-7.6-12.8,0.1-18.1c0.2-0.2,0.1-0.4-0.5,0c-6.6,3.5-7.3,10.3-6.2,14.9c0.5,2.2-0.3,2.6,0.6,5.5c2,6.1,3.7,6.6,6,6.7
			c4.3,0,1.4-2.4,1.6-5.4c0-0.2,0.2-0.3,0.3,0.1c2.4,5.4,4.1,10.2,10.3,9.8c3.6-0.5,1.6-2.3,1.4-3.3c-2.7-8.9,3.8-11,2-2.3
			c-1.2,5,2.6,4.5,5.3,2.7C46.1-30.4,49.5-42.5,47.5-49.1L47.5-49.1 M37-38.6c-0.6,1.6-3.7,1-3.8-0.5c0-0.1,0.1,0,0.1,0
			C34.7-38.9,36-38.7,37-38.6C36.9-38.7,37-38.7,37-38.6L37-38.6z"/>
		<path d="M23.1-27.9c0,0.6-0.5,1.2-1.2,1.2c-0.6,0-1.2-0.5-1.2-1.2c0-0.6,0.5-1.2,1.2-1.2C22.5-29.1,23.1-28.5,23.1-27.9
			 M21.9-29.3c-0.8,0-1.4,0.6-1.4,1.4c0,0.8,0.6,1.4,1.4,1.4c0.8,0,1.4-0.6,1.4-1.4C23.3-28.7,22.7-29.3,21.9-29.3z"/>
		<path d="M22.3-27.7c0,0.2-0.2,0.3-0.4,0.3c-0.3,0-0.4-0.2-0.4-0.5c0-0.3,0.2-0.5,0.4-0.5c0.2,0,0.3,0.1,0.4,0.3h0.2
			c0-0.3-0.3-0.5-0.6-0.5c-0.4,0-0.7,0.3-0.7,0.7c0,0.4,0.3,0.7,0.7,0.7c0.3,0,0.5-0.2,0.6-0.5L22.3-27.7L22.3-27.7z"/>
		<path d="M47.5-24.6c0,0.6-0.5,1.2-1.2,1.2c-0.6,0-1.2-0.5-1.2-1.2c0-0.6,0.5-1.2,1.2-1.2C47-25.7,47.5-25.2,47.5-24.6 M46.3-26
			c-0.8,0-1.4,0.6-1.4,1.4c0,0.8,0.6,1.4,1.4,1.4c0.8,0,1.4-0.6,1.4-1.4C47.7-25.4,47.1-26,46.3-26z"/>
		<path d="M46.1-24.5h0.2l0.4,0.6h0.2l-0.4-0.6c0.2,0,0.3-0.1,0.3-0.4c0-0.3-0.2-0.4-0.5-0.4h-0.5v1.3h0.2L46.1-24.5 M46.1-24.7
			v-0.4h0.3c0.1,0,0.3,0,0.3,0.2c0,0.2-0.1,0.2-0.3,0.2H46.1z"/>
	</g>
	<polygon fill="#231F20" points="55.5,-9.6 55,-9.6 55,-66.1 55.5,-66.1 	"/>
	<path fill="#231F20" d="M4.7-4.6h141.4v-66.5H4.7V-4.6z M144.8-69.8v63.8H6v-63.8H144.8z"/>
	<g>
		<path fill="#231F20" d="M62.6-55.5h1.6c0.4,0,0.7,0,0.8,0.1c0.3,0.1,0.5,0.2,0.7,0.4s0.3,0.4,0.4,0.7s0.1,0.6,0.1,1
			c0,0.4,0,0.7-0.1,0.9c-0.1,0.3-0.3,0.6-0.5,0.8c-0.2,0.2-0.4,0.3-0.6,0.4c-0.2,0.1-0.5,0.1-0.8,0.1h-1.7L62.6-55.5L62.6-55.5z
			 M63.5-54.7v2.9h0.7c0.2,0,0.4,0,0.5,0c0.1,0,0.3-0.1,0.4-0.2c0.1-0.1,0.2-0.2,0.2-0.4c0.1-0.2,0.1-0.5,0.1-0.8
			c0-0.3,0-0.6-0.1-0.8c-0.1-0.2-0.1-0.3-0.3-0.4c-0.1-0.1-0.2-0.2-0.4-0.2c-0.1,0-0.4,0-0.7,0H63.5z"/>
		<path fill="#231F20" d="M67.1-51v-4.4h3.3v0.8H68v1h2.2v0.7H68v1.2h2.5v0.7C70.5-51,67.1-51,67.1-51z"/>
		<path fill="#231F20" d="M71.3-51v-4.4h0.9v3.7h2.2v0.7C74.4-51,71.3-51,71.3-51z"/>
		<path fill="#231F20" d="M75-51v-4.4h0.9v4.4H75z"/>
		<path fill="#231F20" d="M77.9-51l-1.6-4.4h1l1.1,3.3l1.1-3.3h0.9L78.8-51H77.9z"/>
		<path fill="#231F20" d="M80.9-51v-4.4h3.3v0.8h-2.4v1H84v0.7h-2.2v1.2h2.5v0.7C84.3-51,80.9-51,80.9-51z"/>
		<path fill="#231F20" d="M85-51v-4.4h1.9c0.5,0,0.8,0,1,0.1s0.4,0.2,0.5,0.4c0.1,0.2,0.2,0.4,0.2,0.7c0,0.3-0.1,0.6-0.3,0.8
			c-0.2,0.2-0.5,0.4-0.9,0.4c0.2,0.1,0.4,0.2,0.5,0.4c0.1,0.1,0.3,0.4,0.5,0.7L89-51H88l-0.6-1c-0.2-0.3-0.4-0.6-0.5-0.7
			c-0.1-0.1-0.2-0.2-0.3-0.2c-0.1,0-0.2,0-0.4,0h-0.2v1.9L85-51L85-51z M85.9-53.6h0.7c0.4,0,0.7,0,0.8-0.1c0.1,0,0.2-0.1,0.3-0.2
			s0.1-0.2,0.1-0.3c0-0.1,0-0.3-0.1-0.4s-0.2-0.1-0.3-0.2c-0.1,0-0.3,0-0.7,0h-0.7V-53.6z"/>
		<path fill="#231F20" d="M89.5-51v-4.4h0.9v4.4H89.5z"/>
		<path fill="#231F20" d="M91.2-51v-4.4h0.9l1.8,3v-3h0.8v4.4h-0.9l-1.8-2.9v2.9C92.1-51,91.2-51,91.2-51z"/>
		<path fill="#231F20" d="M97.8-52.7v-0.7h1.9v1.8c-0.2,0.2-0.5,0.3-0.8,0.5C98.5-51,98.2-51,97.8-51c-0.5,0-0.9-0.1-1.2-0.3
			s-0.6-0.5-0.8-0.8c-0.2-0.4-0.3-0.8-0.3-1.2c0-0.5,0.1-0.9,0.3-1.2c0.2-0.4,0.5-0.6,0.9-0.8c0.3-0.1,0.6-0.2,1.1-0.2
			c0.6,0,1,0.1,1.3,0.3c0.3,0.2,0.5,0.6,0.6,1l-0.9,0.2c-0.1-0.2-0.2-0.4-0.4-0.5c-0.2-0.1-0.4-0.2-0.6-0.2c-0.4,0-0.7,0.1-0.9,0.4
			c-0.2,0.2-0.3,0.6-0.3,1.1c0,0.5,0.1,0.9,0.4,1.2c0.2,0.3,0.5,0.4,0.9,0.4c0.2,0,0.4,0,0.6-0.1c0.2-0.1,0.4-0.2,0.5-0.3v-0.6
			L97.8-52.7L97.8-52.7z"/>
		<path fill="#231F20" d="M102.3-51v-4.4h1.9c0.5,0,0.8,0,1,0.1s0.4,0.2,0.5,0.4c0.1,0.2,0.2,0.4,0.2,0.7c0,0.3-0.1,0.6-0.3,0.8
			c-0.2,0.2-0.5,0.4-0.9,0.4c0.2,0.1,0.4,0.2,0.5,0.4c0.1,0.1,0.3,0.4,0.5,0.7l0.5,0.9h-1.1l-0.6-1c-0.2-0.3-0.4-0.6-0.5-0.7
			c-0.1-0.1-0.2-0.2-0.3-0.2c-0.1,0-0.2,0-0.4,0h-0.2v1.9L102.3-51L102.3-51z M103.2-53.6h0.7c0.4,0,0.7,0,0.8-0.1
			c0.1,0,0.2-0.1,0.3-0.2s0.1-0.2,0.1-0.3c0-0.1,0-0.3-0.1-0.4s-0.2-0.1-0.3-0.2c-0.1,0-0.3,0-0.7,0h-0.7L103.2-53.6L103.2-53.6z"/>
		<path fill="#231F20" d="M106.7-51v-4.4h3.3v0.8h-2.4v1h2.2v0.7h-2.2v1.2h2.5v0.7C110.1-51,106.7-51,106.7-51z"/>
		<path fill="#231F20" d="M110.6-52.5l0.9-0.1c0.1,0.3,0.2,0.5,0.3,0.6c0.2,0.1,0.4,0.2,0.6,0.2c0.3,0,0.5-0.1,0.7-0.2
			c0.1-0.1,0.2-0.3,0.2-0.4c0-0.1,0-0.2-0.1-0.3c-0.1-0.1-0.2-0.1-0.3-0.2c-0.1,0-0.3-0.1-0.7-0.2c-0.5-0.1-0.8-0.3-1-0.4
			c-0.3-0.2-0.4-0.5-0.4-0.9c0-0.2,0.1-0.4,0.2-0.6c0.1-0.2,0.3-0.3,0.6-0.5s0.5-0.2,0.9-0.2c0.6,0,1,0.1,1.3,0.4
			c0.3,0.2,0.4,0.6,0.4,1l-0.9,0c0-0.2-0.1-0.4-0.2-0.5s-0.3-0.1-0.6-0.1c-0.3,0-0.5,0.1-0.6,0.2c-0.1,0.1-0.1,0.2-0.1,0.3
			c0,0.1,0,0.2,0.1,0.3c0.1,0.1,0.4,0.2,0.8,0.3c0.4,0.1,0.8,0.2,1,0.3s0.4,0.3,0.5,0.5c0.1,0.2,0.2,0.4,0.2,0.7
			c0,0.3-0.1,0.5-0.2,0.7c-0.1,0.2-0.3,0.4-0.6,0.5c-0.3,0.1-0.6,0.2-1,0.2c-0.6,0-1-0.1-1.3-0.4C110.9-51.6,110.7-52,110.6-52.5z"
			/>
		<path fill="#231F20" d="M115-51v-4.4h3.3v0.8h-2.4v1h2.2v0.7h-2.2v1.2h2.5v0.7C118.4-51,115-51,115-51z"/>
		<path fill="#231F20" d="M123.1-51h-1l-0.4-1H120l-0.4,1h-0.9l1.7-4.4h0.9L123.1-51z M121.5-52.8l-0.6-1.6l-0.6,1.6H121.5z"/>
		<path fill="#231F20" d="M123.6-51v-4.4h1.9c0.5,0,0.8,0,1,0.1s0.4,0.2,0.5,0.4c0.1,0.2,0.2,0.4,0.2,0.7c0,0.3-0.1,0.6-0.3,0.8
			c-0.2,0.2-0.5,0.4-0.9,0.4c0.2,0.1,0.4,0.2,0.5,0.4c0.1,0.1,0.3,0.4,0.5,0.7l0.5,0.9h-1.1l-0.6-1c-0.2-0.3-0.4-0.6-0.5-0.7
			c-0.1-0.1-0.2-0.2-0.3-0.2c-0.1,0-0.2,0-0.4,0h-0.2v1.9L123.6-51L123.6-51z M124.5-53.6h0.7c0.4,0,0.7,0,0.8-0.1
			c0.1,0,0.2-0.1,0.3-0.2s0.1-0.2,0.1-0.3c0-0.1,0-0.3-0.1-0.4s-0.2-0.1-0.3-0.2c-0.1,0-0.3,0-0.7,0h-0.7L124.5-53.6L124.5-53.6z"/>
		<path fill="#231F20" d="M130.9-52.7l0.9,0.3c-0.1,0.5-0.4,0.8-0.7,1.1c-0.3,0.2-0.7,0.4-1.2,0.4c-0.6,0-1.1-0.2-1.5-0.6
			c-0.4-0.4-0.6-1-0.6-1.7c0-0.7,0.2-1.3,0.6-1.7c0.4-0.4,0.9-0.6,1.5-0.6c0.5,0,1,0.2,1.3,0.5c0.2,0.2,0.4,0.5,0.5,0.8l-0.9,0.2
			c-0.1-0.2-0.2-0.4-0.3-0.5c-0.2-0.1-0.4-0.2-0.6-0.2c-0.3,0-0.6,0.1-0.8,0.4s-0.3,0.6-0.3,1.1c0,0.6,0.1,1,0.3,1.2
			c0.2,0.2,0.5,0.4,0.8,0.4c0.2,0,0.4-0.1,0.6-0.2C130.7-52.1,130.9-52.3,130.9-52.7z"/>
		<path fill="#231F20" d="M132.6-51v-4.4h0.9v1.7h1.8v-1.7h0.9v4.4h-0.9V-53h-1.8v1.9H132.6z"/>
		<path fill="#231F20" d="M69-43v-3.7h-1.3v-0.8h3.5v0.8h-1.3v3.7H69z"/>
		<path fill="#231F20" d="M71.8-43v-4.4h0.9v1.7h1.8v-1.7h0.9v4.4h-0.9V-45h-1.8v1.9H71.8z"/>
		<path fill="#231F20" d="M80.3-43h-1l-0.4-1h-1.8l-0.4,1h-0.9l1.7-4.4h0.9L80.3-43z M78.7-44.8L78-46.4l-0.6,1.6H78.7z"/>
		<path fill="#231F20" d="M81.3-43v-3.7H80v-0.8h3.5v0.8h-1.3v3.7H81.3z"/>
		<path fill="#231F20" d="M89.6-43h-1l-0.4-1h-1.8l-0.4,1h-0.9l1.7-4.4h0.9L89.6-43z M88-44.8l-0.6-1.6l-0.6,1.6H88z"/>
		<path fill="#231F20" d="M92.9-44.7l0.9,0.3c-0.1,0.5-0.4,0.8-0.7,1.1c-0.3,0.2-0.7,0.4-1.2,0.4c-0.6,0-1.1-0.2-1.5-0.6
			c-0.4-0.4-0.6-1-0.6-1.7c0-0.7,0.2-1.3,0.6-1.7c0.4-0.4,0.9-0.6,1.5-0.6c0.5,0,1,0.2,1.3,0.5c0.2,0.2,0.4,0.5,0.5,0.8L92.9-46
			c-0.1-0.2-0.2-0.4-0.3-0.5c-0.2-0.1-0.4-0.2-0.6-0.2c-0.3,0-0.6,0.1-0.8,0.4s-0.3,0.6-0.3,1.1c0,0.6,0.1,1,0.3,1.2
			c0.2,0.2,0.5,0.4,0.8,0.4c0.2,0,0.4-0.1,0.6-0.2C92.7-44.1,92.8-44.3,92.9-44.7z"/>
		<path fill="#231F20" d="M97.4-44.7l0.9,0.3c-0.1,0.5-0.4,0.8-0.7,1.1c-0.3,0.2-0.7,0.4-1.2,0.4c-0.6,0-1.1-0.2-1.5-0.6
			c-0.4-0.4-0.6-1-0.6-1.7c0-0.7,0.2-1.3,0.6-1.7c0.4-0.4,0.9-0.6,1.5-0.6c0.5,0,1,0.2,1.3,0.5c0.2,0.2,0.4,0.5,0.5,0.8L97.4-46
			c-0.1-0.2-0.2-0.4-0.3-0.5c-0.2-0.1-0.4-0.2-0.6-0.2c-0.3,0-0.6,0.1-0.8,0.4s-0.3,0.6-0.3,1.1c0,0.6,0.1,1,0.3,1.2
			c0.2,0.2,0.5,0.4,0.8,0.4c0.2,0,0.4-0.1,0.6-0.2C97.2-44.1,97.3-44.3,97.4-44.7z"/>
		<path fill="#231F20" d="M99-43v-4.4h3.3v0.8h-2.4v1h2.2v0.7h-2.2v1.2h2.5v0.7C102.4-43,99-43,99-43z"/>
		<path fill="#231F20" d="M103.2-43v-4.4h0.9v3.7h2.2v0.7H103.2z"/>
		<path fill="#231F20" d="M107-43v-4.4h3.3v0.8h-2.4v1h2.2v0.7h-2.2v1.2h2.5v0.7C110.3-43,107-43,107-43z"/>
		<path fill="#231F20" d="M111.1-43v-4.4h1.9c0.5,0,0.8,0,1,0.1s0.4,0.2,0.5,0.4c0.1,0.2,0.2,0.4,0.2,0.7c0,0.3-0.1,0.6-0.3,0.8
			c-0.2,0.2-0.5,0.4-0.9,0.4c0.2,0.1,0.4,0.2,0.5,0.4c0.1,0.1,0.3,0.4,0.5,0.7l0.5,0.9H114l-0.6-1c-0.2-0.3-0.4-0.6-0.5-0.7
			c-0.1-0.1-0.2-0.2-0.3-0.2c-0.1,0-0.2-0.1-0.4-0.1H112v1.9L111.1-43L111.1-43z M112-45.6h0.7c0.4,0,0.7,0,0.8-0.1
			c0.1,0,0.2-0.1,0.3-0.2s0.1-0.2,0.1-0.3c0-0.1,0-0.3-0.1-0.4s-0.2-0.1-0.3-0.2c-0.1,0-0.3,0-0.7,0H112L112-45.6L112-45.6z"/>
		<path fill="#231F20" d="M119.6-43h-1l-0.4-1h-1.8l-0.4,1h-0.9l1.7-4.4h0.9L119.6-43z M117.9-44.8l-0.6-1.6l-0.6,1.6H117.9z"/>
		<path fill="#231F20" d="M120.6-43v-3.7h-1.3v-0.8h3.5v0.8h-1.3v3.7H120.6z"/>
		<path fill="#231F20" d="M123.4-43v-4.4h3.3v0.8h-2.4v1h2.2v0.7h-2.2v1.2h2.5v0.7C126.7-43,123.4-43,123.4-43z"/>
		<path fill="#231F20" d="M127.3-44.5l0.9-0.1c0.1,0.3,0.2,0.5,0.3,0.6c0.2,0.1,0.4,0.2,0.6,0.2c0.3,0,0.5-0.1,0.7-0.2
			c0.1-0.1,0.2-0.3,0.2-0.4c0-0.1,0-0.2-0.1-0.3c-0.1-0.1-0.2-0.1-0.3-0.2c-0.1,0-0.3-0.1-0.7-0.2c-0.5-0.1-0.8-0.3-1-0.4
			c-0.3-0.2-0.4-0.5-0.4-0.9c0-0.2,0.1-0.4,0.2-0.6c0.1-0.2,0.3-0.3,0.6-0.5c0.2-0.1,0.5-0.2,0.9-0.2c0.6,0,1,0.1,1.3,0.4
			c0.3,0.2,0.4,0.6,0.4,1l-0.9,0c0-0.2-0.1-0.4-0.2-0.5c-0.1-0.1-0.3-0.1-0.6-0.1c-0.3,0-0.5,0.1-0.6,0.2c-0.1,0.1-0.1,0.2-0.1,0.3
			c0,0.1,0,0.2,0.1,0.3c0.1,0.1,0.4,0.2,0.8,0.3c0.4,0.1,0.8,0.2,1,0.3s0.4,0.3,0.5,0.5c0.1,0.2,0.2,0.4,0.2,0.7
			c0,0.3-0.1,0.5-0.2,0.7c-0.1,0.2-0.3,0.4-0.6,0.5c-0.3,0.1-0.6,0.2-1,0.2c-0.6,0-1-0.1-1.3-0.4C127.5-43.6,127.3-44,127.3-44.5z"
			/>
		<path fill="#231F20" d="M63.6-36.7v-0.7h1.9v1.8c-0.2,0.2-0.5,0.3-0.8,0.5C64.3-35,64-35,63.6-35c-0.5,0-0.9-0.1-1.2-0.3
			s-0.6-0.5-0.8-0.8c-0.2-0.4-0.3-0.8-0.3-1.2c0-0.5,0.1-0.9,0.3-1.2c0.2-0.4,0.5-0.6,0.9-0.8c0.3-0.1,0.6-0.2,1.1-0.2
			c0.6,0,1,0.1,1.3,0.3c0.3,0.2,0.5,0.5,0.6,1l-0.9,0.2c-0.1-0.2-0.2-0.4-0.4-0.5c-0.2-0.1-0.4-0.2-0.6-0.2c-0.4,0-0.7,0.1-0.9,0.4
			c-0.2,0.2-0.3,0.6-0.3,1.1c0,0.5,0.1,0.9,0.4,1.2c0.2,0.3,0.5,0.4,0.9,0.4c0.2,0,0.4,0,0.6-0.1c0.2-0.1,0.4-0.2,0.5-0.3v-0.6
			L63.6-36.7L63.6-36.7z"/>
		<path fill="#231F20" d="M66.3-35v-4.4h0.9v3.7h2.2v0.7H66.3z"/>
		<path fill="#231F20" d="M69.9-37.2c0-0.5,0.1-0.8,0.2-1.1c0.1-0.2,0.2-0.4,0.4-0.6c0.2-0.2,0.4-0.3,0.6-0.4c0.3-0.1,0.6-0.2,1-0.2
			c0.7,0,1.2,0.2,1.6,0.6s0.6,1,0.6,1.7c0,0.7-0.2,1.3-0.6,1.7S72.7-35,72.1-35c-0.7,0-1.2-0.2-1.6-0.6C70.1-36,69.9-36.5,69.9-37.2
			z M70.8-37.3c0,0.5,0.1,0.9,0.3,1.1s0.5,0.4,0.9,0.4s0.7-0.1,0.9-0.4c0.2-0.3,0.3-0.6,0.3-1.2c0-0.5-0.1-0.9-0.3-1.1
			s-0.5-0.4-0.9-0.4s-0.7,0.1-0.9,0.4C71-38.2,70.8-37.8,70.8-37.3z"/>
		<path fill="#231F20" d="M74.9-39.5h1.8c0.4,0,0.6,0,0.8,0s0.3,0.1,0.5,0.2c0.1,0.1,0.2,0.2,0.3,0.4s0.1,0.3,0.1,0.5
			c0,0.2-0.1,0.4-0.2,0.6c-0.1,0.2-0.3,0.3-0.5,0.4c0.3,0.1,0.5,0.2,0.6,0.4c0.1,0.2,0.2,0.4,0.2,0.7c0,0.2,0,0.4-0.1,0.6
			s-0.2,0.3-0.4,0.5c-0.2,0.1-0.4,0.2-0.6,0.2c-0.1,0-0.5,0-1.1,0h-1.5L74.9-39.5L74.9-39.5z M75.8-38.7v1h0.6c0.3,0,0.6,0,0.7,0
			c0.2,0,0.3-0.1,0.4-0.2s0.1-0.2,0.1-0.3c0-0.1,0-0.2-0.1-0.3c-0.1-0.1-0.2-0.1-0.3-0.2c-0.1,0-0.3,0-0.8,0
			C76.3-38.7,75.8-38.7,75.8-38.7z M75.8-37v1.2h0.8c0.3,0,0.5,0,0.6,0c0.1,0,0.2-0.1,0.3-0.2c0.1-0.1,0.1-0.2,0.1-0.4
			c0-0.1,0-0.2-0.1-0.3s-0.2-0.2-0.3-0.2S77-37,76.5-37L75.8-37L75.8-37z"/>
		<path fill="#231F20" d="M83.4-35h-1L82-36h-1.8l-0.4,1h-0.9l1.7-4.4h0.9L83.4-35z M81.8-36.8l-0.6-1.6l-0.6,1.6H81.8z"/>
		<path fill="#231F20" d="M83.9-35v-4.4h0.9v3.7H87v0.7H83.9z"/>
		<path fill="#231F20" d="M92.1-36.7l0.9,0.3c-0.1,0.5-0.4,0.8-0.7,1.1C92-35.1,91.6-35,91.1-35c-0.6,0-1.1-0.2-1.5-0.6
			c-0.4-0.4-0.6-1-0.6-1.7c0-0.7,0.2-1.3,0.6-1.7c0.4-0.4,0.9-0.6,1.5-0.6c0.5,0,1,0.2,1.3,0.5c0.2,0.2,0.4,0.5,0.5,0.8L92.1-38
			c-0.1-0.2-0.2-0.4-0.3-0.5c-0.2-0.1-0.4-0.2-0.6-0.2c-0.3,0-0.6,0.1-0.8,0.4S90-37.8,90-37.3c0,0.6,0.1,1,0.3,1.2
			c0.2,0.2,0.5,0.4,0.8,0.4c0.2,0,0.4-0.1,0.6-0.2C91.9-36.1,92-36.3,92.1-36.7z"/>
		<path fill="#231F20" d="M93.6-37.2c0-0.5,0.1-0.8,0.2-1.1c0.1-0.2,0.2-0.4,0.4-0.6c0.2-0.2,0.4-0.3,0.6-0.4c0.3-0.1,0.6-0.2,1-0.2
			c0.7,0,1.2,0.2,1.6,0.6s0.6,1,0.6,1.7c0,0.7-0.2,1.3-0.6,1.7S96.4-35,95.7-35c-0.7,0-1.2-0.2-1.6-0.6C93.8-36,93.6-36.5,93.6-37.2
			z M94.5-37.3c0,0.5,0.1,0.9,0.3,1.1s0.5,0.4,0.9,0.4s0.7-0.1,0.9-0.4c0.2-0.3,0.3-0.6,0.3-1.2c0-0.5-0.1-0.9-0.3-1.1
			s-0.5-0.4-0.9-0.4s-0.7,0.1-0.9,0.4C94.6-38.2,94.5-37.8,94.5-37.3z"/>
		<path fill="#231F20" d="M98.6-35v-4.4h0.9l1.8,3v-3h0.8v4.4h-0.9l-1.8-2.9v2.9H98.6z"/>
		<path fill="#231F20" d="M102.8-36.5l0.9-0.1c0.1,0.3,0.2,0.5,0.3,0.6c0.2,0.1,0.4,0.2,0.6,0.2c0.3,0,0.5-0.1,0.7-0.2
			s0.2-0.3,0.2-0.4c0-0.1,0-0.2-0.1-0.3s-0.2-0.1-0.3-0.2c-0.1,0-0.3-0.1-0.7-0.2c-0.5-0.1-0.8-0.3-1-0.4c-0.3-0.2-0.4-0.5-0.4-0.9
			c0-0.2,0.1-0.4,0.2-0.6c0.1-0.2,0.3-0.3,0.6-0.5s0.5-0.2,0.9-0.2c0.6,0,1,0.1,1.3,0.4c0.3,0.2,0.4,0.6,0.4,1l-0.9,0
			c0-0.2-0.1-0.4-0.2-0.5c-0.1-0.1-0.3-0.2-0.6-0.2c-0.3,0-0.5,0.1-0.6,0.2c-0.1,0.1-0.1,0.2-0.1,0.3c0,0.1,0,0.2,0.1,0.3
			c0.1,0.1,0.4,0.2,0.8,0.3s0.8,0.2,1,0.3s0.4,0.3,0.5,0.5s0.2,0.4,0.2,0.7c0,0.3-0.1,0.5-0.2,0.7c-0.1,0.2-0.3,0.4-0.6,0.5
			c-0.3,0.1-0.6,0.2-1,0.2c-0.6,0-1-0.1-1.3-0.4C103.1-35.6,102.9-36,102.8-36.5z"/>
		<path fill="#231F20" d="M107.2-35v-4.4h3.3v0.8h-2.4v1h2.2v0.7h-2.2v1.2h2.5v0.7C110.6-35,107.2-35,107.2-35z"/>
		<path fill="#231F20" d="M111.3-35v-4.4h1.9c0.5,0,0.8,0,1,0.1c0.2,0.1,0.4,0.2,0.5,0.4c0.1,0.2,0.2,0.4,0.2,0.7
			c0,0.3-0.1,0.6-0.3,0.8c-0.2,0.2-0.5,0.4-0.9,0.4c0.2,0.1,0.4,0.2,0.5,0.4c0.1,0.1,0.3,0.4,0.5,0.7l0.5,0.9h-1.1l-0.6-1
			c-0.2-0.3-0.4-0.6-0.5-0.7c-0.1-0.1-0.2-0.2-0.3-0.2c-0.1,0-0.2,0-0.4,0h-0.2v1.9L111.3-35L111.3-35z M112.2-37.6h0.7
			c0.4,0,0.7,0,0.8-0.1c0.1,0,0.2-0.1,0.3-0.2s0.1-0.2,0.1-0.3c0-0.1,0-0.3-0.1-0.4s-0.2-0.2-0.3-0.2c-0.1,0-0.3,0-0.7,0h-0.7
			L112.2-37.6L112.2-37.6z"/>
		<path fill="#231F20" d="M116.8-35l-1.6-4.4h1l1.1,3.3l1.1-3.3h0.9l-1.6,4.4H116.8z"/>
		<path fill="#231F20" d="M123.4-35h-1l-0.4-1h-1.8l-0.4,1h-0.9l1.7-4.4h0.9L123.4-35z M121.7-36.8l-0.6-1.6l-0.6,1.6H121.7z"/>
		<path fill="#231F20" d="M124.4-35v-3.7h-1.3v-0.8h3.5v0.8h-1.3v3.7H124.4z"/>
		<path fill="#231F20" d="M127.1-35v-4.4h0.9v4.4H127.1z"/>
		<path fill="#231F20" d="M128.7-37.2c0-0.5,0.1-0.8,0.2-1.1c0.1-0.2,0.2-0.4,0.4-0.6c0.2-0.2,0.4-0.3,0.6-0.4
			c0.3-0.1,0.6-0.2,1-0.2c0.7,0,1.2,0.2,1.6,0.6s0.6,1,0.6,1.7c0,0.7-0.2,1.3-0.6,1.7s-0.9,0.6-1.6,0.6c-0.7,0-1.2-0.2-1.6-0.6
			C128.9-36,128.7-36.5,128.7-37.2z M129.6-37.3c0,0.5,0.1,0.9,0.3,1.1s0.5,0.4,0.9,0.4s0.6-0.1,0.9-0.4c0.2-0.3,0.3-0.6,0.3-1.2
			c0-0.5-0.1-0.9-0.3-1.1s-0.5-0.4-0.9-0.4s-0.7,0.1-0.9,0.4C129.7-38.2,129.6-37.8,129.6-37.3z"/>
		<path fill="#231F20" d="M133.7-35v-4.4h0.9l1.8,3v-3h0.8v4.4h-0.9l-1.8-2.9v2.9H133.7z"/>
		<path fill="#231F20" d="M70.9-27v-3.7h-1.3v-0.8h3.5v0.8h-1.3v3.7H70.9z"/>
		<path fill="#231F20" d="M73.7-27v-4.4h0.9v1.7h1.8v-1.7h0.9v4.4h-0.9V-29h-1.8v1.9H73.7z"/>
		<path fill="#231F20" d="M78.1-27v-4.4H80c0.5,0,0.8,0,1,0.1c0.2,0.1,0.4,0.2,0.5,0.4c0.1,0.2,0.2,0.4,0.2,0.7
			c0,0.3-0.1,0.6-0.3,0.8c-0.2,0.2-0.5,0.4-0.9,0.4c0.2,0.1,0.4,0.2,0.5,0.4c0.1,0.1,0.3,0.4,0.5,0.7l0.5,0.9h-1.1l-0.6-1
			c-0.2-0.3-0.4-0.6-0.5-0.7c-0.1-0.1-0.2-0.2-0.3-0.2c-0.1,0-0.2,0-0.4,0H79v1.9L78.1-27L78.1-27z M79-29.6h0.7
			c0.4,0,0.7,0,0.8-0.1c0.1,0,0.2-0.1,0.3-0.2s0.1-0.2,0.1-0.3c0-0.1,0-0.3-0.1-0.4s-0.2-0.2-0.3-0.2c-0.1,0-0.3,0-0.7,0H79L79-29.6
			L79-29.6z"/>
		<path fill="#231F20" d="M82.4-29.2c0-0.5,0.1-0.8,0.2-1.1c0.1-0.2,0.2-0.4,0.4-0.6c0.2-0.2,0.4-0.3,0.6-0.4c0.3-0.1,0.6-0.2,1-0.2
			c0.7,0,1.2,0.2,1.6,0.6s0.6,1,0.6,1.7c0,0.7-0.2,1.3-0.6,1.7S85.2-27,84.6-27c-0.7,0-1.2-0.2-1.6-0.6C82.6-28,82.4-28.5,82.4-29.2
			z M83.4-29.3c0,0.5,0.1,0.9,0.3,1.1s0.5,0.4,0.9,0.4s0.7-0.1,0.9-0.4c0.2-0.3,0.3-0.6,0.3-1.2c0-0.5-0.1-0.9-0.3-1.1
			s-0.5-0.4-0.9-0.4s-0.7,0.1-0.9,0.4C83.5-30.2,83.4-29.8,83.4-29.3z"/>
		<path fill="#231F20" d="M87.4-31.5h0.9v2.4c0,0.4,0,0.6,0,0.7c0,0.2,0.1,0.3,0.3,0.4c0.1,0.1,0.3,0.2,0.6,0.2
			c0.3,0,0.4-0.1,0.6-0.2s0.2-0.2,0.2-0.4s0-0.4,0-0.8v-2.5H91v2.3c0,0.5,0,0.9-0.1,1.1c0,0.2-0.1,0.4-0.3,0.6s-0.3,0.3-0.5,0.4
			S89.6-27,89.3-27c-0.4,0-0.7,0-1-0.1c-0.2-0.1-0.4-0.2-0.5-0.4s-0.2-0.3-0.3-0.5c-0.1-0.3-0.1-0.6-0.1-1.1L87.4-31.5L87.4-31.5z"
			/>
		<path fill="#231F20" d="M94-28.7v-0.7h1.9v1.8c-0.2,0.2-0.5,0.3-0.8,0.5C94.7-27,94.4-27,94-27c-0.5,0-0.9-0.1-1.2-0.3
			s-0.6-0.5-0.8-0.8c-0.2-0.4-0.3-0.8-0.3-1.2c0-0.5,0.1-0.9,0.3-1.2c0.2-0.4,0.5-0.6,0.9-0.8c0.3-0.1,0.6-0.2,1.1-0.2
			c0.6,0,1,0.1,1.3,0.3c0.3,0.2,0.5,0.5,0.6,1L95-30.1c-0.1-0.2-0.2-0.4-0.4-0.5c-0.2-0.1-0.4-0.2-0.6-0.2c-0.4,0-0.7,0.1-0.9,0.4
			c-0.2,0.2-0.3,0.6-0.3,1.1c0,0.5,0.1,0.9,0.4,1.2c0.2,0.3,0.5,0.4,0.9,0.4c0.2,0,0.4,0,0.6-0.1c0.2-0.1,0.4-0.2,0.5-0.3v-0.6
			L94-28.7L94-28.7z"/>
		<path fill="#231F20" d="M96.7-27v-4.4h0.9v1.7h1.8v-1.7h0.9v4.4h-0.9V-29h-1.8v1.9H96.7z"/>
		<path fill="#231F20" d="M103.9-27v-3.7h-1.3v-0.8h3.5v0.8h-1.3v3.7H103.9z"/>
		<path fill="#231F20" d="M106.7-27v-4.4h0.9v1.7h1.8v-1.7h0.9v4.4h-0.9V-29h-1.8v1.9H106.7z"/>
		<path fill="#231F20" d="M111.2-27v-4.4h3.3v0.8h-2.4v1h2.2v0.7h-2.2v1.2h2.5v0.7C114.6-27,111.2-27,111.2-27z"/>
		<path fill="#231F20" d="M117.1-27v-4.4h0.9v3.7h2.2v0.7H117.1z"/>
		<path fill="#231F20" d="M120.8-31.5h0.9v2.4c0,0.4,0,0.6,0,0.7c0,0.2,0.1,0.3,0.3,0.4c0.1,0.1,0.3,0.2,0.6,0.2
			c0.3,0,0.4-0.1,0.6-0.2s0.2-0.2,0.2-0.4s0-0.4,0-0.8v-2.5h0.9v2.3c0,0.5,0,0.9-0.1,1.1c0,0.2-0.1,0.4-0.3,0.6s-0.3,0.3-0.5,0.4
			S123-27,122.7-27c-0.4,0-0.7,0-1-0.1c-0.2-0.1-0.4-0.2-0.5-0.4s-0.2-0.3-0.3-0.5c-0.1-0.3-0.1-0.6-0.1-1.1L120.8-31.5L120.8-31.5z
			"/>
		<path fill="#231F20" d="M128.2-28.7l0.9,0.3c-0.1,0.5-0.4,0.8-0.7,1.1c-0.3,0.2-0.7,0.4-1.2,0.4c-0.6,0-1.1-0.2-1.5-0.6
			c-0.4-0.4-0.6-1-0.6-1.7c0-0.7,0.2-1.3,0.6-1.7c0.4-0.4,0.9-0.6,1.5-0.6c0.5,0,1,0.2,1.3,0.5c0.2,0.2,0.4,0.5,0.5,0.8l-0.9,0.2
			c-0.1-0.2-0.2-0.4-0.3-0.5c-0.2-0.1-0.4-0.2-0.6-0.2c-0.3,0-0.6,0.1-0.8,0.4s-0.3,0.6-0.3,1.1c0,0.6,0.1,1,0.3,1.2
			c0.2,0.2,0.5,0.4,0.8,0.4c0.2,0,0.4-0.1,0.6-0.2C128-28.1,128.1-28.3,128.2-28.7z"/>
		<path fill="#231F20" d="M65.2-19v-4.4h0.9v1.7h1.8v-1.7h0.9v4.4h-0.9V-21h-1.8v1.9H65.2z"/>
		<path fill="#231F20" d="M69.5-21.2c0-0.5,0.1-0.8,0.2-1.1c0.1-0.2,0.2-0.4,0.4-0.6c0.2-0.2,0.4-0.3,0.6-0.4c0.3-0.1,0.6-0.2,1-0.2
			c0.7,0,1.2,0.2,1.6,0.6s0.6,1,0.6,1.7c0,0.7-0.2,1.3-0.6,1.7S72.3-19,71.7-19c-0.7,0-1.2-0.2-1.6-0.6C69.7-20,69.5-20.5,69.5-21.2
			z M70.4-21.3c0,0.5,0.1,0.9,0.3,1.1s0.5,0.4,0.9,0.4s0.7-0.1,0.9-0.4c0.2-0.3,0.3-0.6,0.3-1.2c0-0.5-0.1-0.9-0.3-1.1
			s-0.5-0.4-0.9-0.4s-0.7,0.1-0.9,0.4S70.4-21.8,70.4-21.3z"/>
		<path fill="#231F20" d="M74.5-19v-4.4h3v0.8h-2.1v1.1h1.9v0.8h-1.9v1.9L74.5-19L74.5-19z"/>
		<path fill="#231F20" d="M78.3-19v-4.4h3v0.8h-2.1v1.1h1.9v0.8h-1.9v1.9L78.3-19L78.3-19z"/>
		<path fill="#231F20" d="M82.1-19v-4.4h1.3l0.8,3l0.8-3h1.3v4.4h-0.8v-3.5L84.7-19h-0.9l-0.9-3.5v3.5H82.1z"/>
		<path fill="#231F20" d="M91.3-19h-1l-0.4-1h-1.8l-0.4,1h-0.9l1.7-4.4h0.9L91.3-19z M89.6-20.8L89-22.4l-0.6,1.6H89.6z"/>
		<path fill="#231F20" d="M91.8-19v-4.4h0.9l1.8,3v-3h0.8v4.4h-0.9l-1.8-2.9v2.9H91.8z"/>
		<path fill="#231F20" d="M96.2-19v-4.4h0.9l1.8,3v-3h0.8v4.4h-0.9l-1.8-2.9v2.9H96.2z"/>
		<path fill="#231F20" d="M102.4-19v-4.4h0.9v4.4H102.4z"/>
		<path fill="#231F20" d="M104.2-19v-4.4h0.9l1.8,3v-3h0.8v4.4h-0.9l-1.8-2.9v2.9H104.2z"/>
		<path fill="#231F20" d="M108.4-20.5l0.9-0.1c0.1,0.3,0.2,0.5,0.3,0.6c0.2,0.1,0.4,0.2,0.6,0.2c0.3,0,0.5-0.1,0.7-0.2
			s0.2-0.3,0.2-0.4c0-0.1,0-0.2-0.1-0.3s-0.2-0.1-0.3-0.2c-0.1,0-0.3-0.1-0.7-0.2c-0.5-0.1-0.8-0.3-1-0.4c-0.3-0.2-0.4-0.5-0.4-0.9
			c0-0.2,0.1-0.4,0.2-0.6c0.1-0.2,0.3-0.3,0.6-0.5s0.5-0.2,0.9-0.2c0.6,0,1,0.1,1.3,0.4c0.3,0.2,0.4,0.6,0.4,1l-0.9,0
			c0-0.2-0.1-0.4-0.2-0.5c-0.1-0.1-0.3-0.2-0.6-0.2c-0.3,0-0.5,0.1-0.6,0.2c-0.1,0.1-0.1,0.2-0.1,0.3c0,0.1,0,0.2,0.1,0.3
			c0.1,0.1,0.4,0.2,0.8,0.3s0.8,0.2,1,0.3s0.4,0.3,0.5,0.5s0.2,0.4,0.2,0.7c0,0.3-0.1,0.5-0.2,0.7c-0.1,0.2-0.3,0.4-0.6,0.5
			c-0.3,0.1-0.6,0.2-1,0.2c-0.6,0-1-0.1-1.3-0.4C108.6-19.6,108.5-20,108.4-20.5z"/>
		<path fill="#231F20" d="M113.8-19v-3.7h-1.3v-0.8h3.5v0.8h-1.3v3.7H113.8z"/>
		<path fill="#231F20" d="M116.5-19v-4.4h0.9v4.4H116.5z"/>
		<path fill="#231F20" d="M119.3-19v-3.7h-1.3v-0.8h3.5v0.8h-1.3v3.7H119.3z"/>
		<path fill="#231F20" d="M122-23.5h0.9v2.4c0,0.4,0,0.6,0,0.7c0,0.2,0.1,0.3,0.3,0.4c0.1,0.1,0.3,0.2,0.6,0.2
			c0.3,0,0.4-0.1,0.6-0.2s0.2-0.2,0.2-0.4s0-0.4,0-0.8v-2.5h0.9v2.3c0,0.5,0,0.9-0.1,1.1c0,0.2-0.1,0.4-0.3,0.6s-0.3,0.3-0.5,0.4
			s-0.5,0.1-0.9,0.1c-0.4,0-0.7,0-1-0.1c-0.2-0.1-0.4-0.2-0.5-0.4s-0.2-0.3-0.3-0.5c-0.1-0.3-0.1-0.6-0.1-1.1L122-23.5L122-23.5z"/>
		<path fill="#231F20" d="M127.5-19v-3.7h-1.3v-0.8h3.5v0.8h-1.3v3.7H127.5z"/>
		<path fill="#231F20" d="M130.3-19v-4.4h3.3v0.8h-2.4v1h2.2v0.7h-2.2v1.2h2.5v0.7C133.7-19,130.3-19,130.3-19z"/>
	</g>
</g>
</svg>
