<?xml version="1.0" encoding="utf-8"?>
<!-- Generator: Adobe Illustrator 17.0.0, SVG Export Plug-In . SVG Version: 6.00 Build 0)  -->
<!DOCTYPE svg PUBLIC "-//W3C//DTD SVG 1.1//EN" "http://www.w3.org/Graphics/SVG/1.1/DTD/svg11.dtd">
<svg version="1.1" xmlns="http://www.w3.org/2000/svg" xmlns:xlink="http://www.w3.org/1999/xlink" x="0px" y="0px" width="400px"
	 height="127.764px" viewBox="-100.375 -29.014 400 127.764" enable-background="new -100.375 -29.014 400 127.764"
	 xml:space="preserve">
<g id="Layer_2">
</g>
<g id="Layer_1">
	<g>
		<path fill="#0089CF" d="M-58.882-29.014c23.066,0,23.066,83.428,0,83.428s-41.49-18.723-41.49-41.639
			C-100.671-10.291-81.948-29.014-58.882-29.014L-58.882-29.014z"/>
		<path fill="#9ACA3C" d="M-54.238,71.34c-23.066,0-23.066-83.428,0-83.428s41.639,18.723,41.639,41.639
			C-12.449,52.767-31.172,71.34-54.238,71.34L-54.238,71.34z"/>
		<path fill="#00702F" d="M-58.432,54.564c-5.542,0.15-10.485-1.198-10.485-1.198c-6.441-24.864-1.648-65.305,14.379-65.305
			c2.097,0,5.841,0.15,9.886,1.198c0,0,3.445,12.432,2.696,26.961C-43.155,51.718-55.287,54.414-58.432,54.564L-58.432,54.564z"/>
		<path fill="none" stroke="#FFFFFF" stroke-width="0.4362" d="M171.932,75.234c-4.793,0-5.542,1.198-5.542,6.141v1.048h10.784
			c0-1.048,0-1.648,0-2.546C177.025,76.283,175.976,75.234,171.932,75.234L171.932,75.234z M139.579,25.507
			c-3.295,0-4.493,0.449-5.392,2.247c-0.899,1.498-1.048,3.745-1.048,7.19s0.449,5.841,1.048,7.19
			c0.899,1.797,2.097,2.247,5.392,2.247s4.493-0.449,5.392-2.247c0.899-1.498,1.048-3.745,1.048-7.19s-0.449-5.841-1.048-7.19
			C144.073,26.255,142.874,25.507,139.579,25.507L139.579,25.507z M230.347,40.635c0,3.145,0.899,4.344,2.846,4.344
			c2.247,0,5.991-1.648,8.238-3.445v-5.093c-1.498,0-2.546-0.15-3.745-0.15C231.695,36.141,230.347,36.89,230.347,40.635
			L230.347,40.635z"/>
		<path fill="#FFFFFF" d="M28.741,46.776v-1.648c0-1.198,0-1.797-1.198-1.797c-4.344,0-7.04,0-10.035,0.15
			c-0.449,0-1.048,0-1.498-0.449c-0.449-0.3-0.449-1.198-0.449-1.198V12.326c0-1.048-0.15-1.498-1.498-1.498h-2.247
			c-1.048,0-1.648,0-1.648,1.498v29.807c0,4.194,2.247,5.991,6.74,5.991h10.485C28.291,48.273,28.741,47.974,28.741,46.776
			L28.741,46.776z"/>
		<path fill="none" stroke="#FFFFFF" stroke-width="0.4362" d="M28.741,46.776v-1.648c0-1.198,0-1.797-1.198-1.797
			c-4.344,0-7.04,0-10.035,0.15c-0.449,0-1.048,0-1.498-0.449c-0.449-0.3-0.449-1.198-0.449-1.198V12.326
			c0-1.048-0.15-1.498-1.498-1.498h-2.247c-1.048,0-1.648,0-1.648,1.498v29.807c0,4.194,2.247,5.991,6.74,5.991h10.485
			C28.291,48.273,28.741,47.974,28.741,46.776L28.741,46.776z"/>
		<path fill="#FFFFFF" d="M51.358,48.273c1.198,0,1.498-0.15,1.498-1.498V23.709c0-1.498-0.15-1.648-1.797-1.648h-2.097
			c-1.048,0-1.198,0.449-1.198,1.648v17.375c-2.846,2.247-4.793,3.745-7.789,3.745c-1.498,0-2.097-0.449-2.546-0.899
			c-0.449-0.599-0.599-2.247-0.599-5.093V23.859c0-1.498-0.15-1.648-1.797-1.648h-2.097c-1.048,0-1.198,0.449-1.198,1.648v18.124
			c0,3.295,1.498,7.19,7.639,7.19c4.194,0,6.59-1.797,8.388-3.295v0.899c0,0.899,0.449,1.498,1.198,1.498h2.546v0H51.358z"/>
		<path fill="none" stroke="#FFFFFF" stroke-width="0.4362" d="M51.358,48.273c1.198,0,1.498-0.15,1.498-1.498V23.709
			c0-1.498-0.15-1.648-1.797-1.648h-2.097c-1.048,0-1.198,0.449-1.198,1.648v17.375c-2.846,2.247-4.793,3.745-7.789,3.745
			c-1.498,0-2.097-0.449-2.546-0.899c-0.449-0.599-0.599-2.247-0.599-5.093V23.859c0-1.498-0.15-1.648-1.797-1.648h-2.097
			c-1.048,0-1.198,0.449-1.198,1.648v18.124c0,3.295,1.498,7.19,7.639,7.19c4.194,0,6.59-1.797,8.388-3.295v0.899
			c0,0.899,0.449,1.498,1.198,1.498h2.546v0H51.358z"/>
		<path fill="#FFFFFF" d="M76.371,47.375c0-1.498-0.15-3.145-0.449-3.445c-0.15-0.15-0.15-0.15-0.599-0.15
			c-1.048,0-4.943,0.599-7.489,0.599c-3.145,0-4.344-1.048-4.493-3.745c-0.15-1.648-0.15-3.894-0.15-5.542
			c0-1.797,0-6.59,0.899-8.088c0.599-1.048,1.797-1.498,3.745-1.498c2.546,0,6.441,0.599,7.489,0.599
			c0.449,0,0.599-0.15,0.899-0.899c0.15-0.899,0.15-2.097,0.15-2.846c0-0.749-0.15-0.899-2.247-1.048
			c-1.648-0.15-2.846-0.15-4.493-0.15c-9.436,0-11.533,2.546-11.533,13.78s2.247,13.78,11.533,13.78c1.648,0,3.145,0,4.493-0.15
			C75.922,48.423,76.371,48.423,76.371,47.375L76.371,47.375z"/>
		<path fill="none" stroke="#FFFFFF" stroke-width="0.4362" d="M76.371,47.375c0-1.498-0.15-3.145-0.449-3.445
			c-0.15-0.15-0.15-0.15-0.599-0.15c-1.048,0-4.943,0.599-7.489,0.599c-3.145,0-4.344-1.048-4.493-3.745
			c-0.15-1.648-0.15-3.894-0.15-5.542c0-1.797,0-6.59,0.899-8.088c0.599-1.048,1.797-1.498,3.745-1.498
			c2.546,0,6.441,0.599,7.489,0.599c0.449,0,0.599-0.15,0.899-0.899c0.15-0.899,0.15-2.097,0.15-2.846
			c0-0.749-0.15-0.899-2.247-1.048c-1.648-0.15-2.846-0.15-4.493-0.15c-9.436,0-11.533,2.546-11.533,13.78s2.247,13.78,11.533,13.78
			c1.648,0,3.145,0,4.493-0.15C75.922,48.423,76.371,48.423,76.371,47.375L76.371,47.375z"/>
		<path fill="#FFFFFF" d="M120.557,48.273c1.048,0,1.498-0.449,1.498-1.648v-34.3c0-1.048-0.15-1.498-1.498-1.498h-2.247
			c-1.198,0-1.648,0-1.648,1.498v13.63c-2.247,0-4.793,0-7.639,0s-5.542,0-7.639,0v-13.63c0-1.048-0.15-1.498-1.498-1.498H97.64
			c-1.048,0-1.648,0-1.648,1.498v34.15c0,1.498,0.449,1.648,1.648,1.648h2.097c1.048,0,1.498-0.449,1.498-1.648V30.3
			c2.247,0,4.793,0,7.639,0c2.846,0,5.392,0,7.639,0v16.326c0,1.498,0.15,1.648,1.648,1.648L120.557,48.273L120.557,48.273z"/>
		<path fill="none" stroke="#FFFFFF" stroke-width="0.4362" d="M120.557,48.273c1.048,0,1.498-0.449,1.498-1.648v-34.3
			c0-1.048-0.15-1.498-1.498-1.498h-2.247c-1.198,0-1.648,0-1.648,1.498v13.63c-2.247,0-4.793,0-7.639,0s-5.542,0-7.639,0v-13.63
			c0-1.048-0.15-1.498-1.498-1.498H97.64c-1.048,0-1.648,0-1.648,1.498v34.15c0,1.498,0.449,1.648,1.648,1.648h2.097
			c1.048,0,1.498-0.449,1.498-1.648V30.3c2.247,0,4.793,0,7.639,0c2.846,0,5.392,0,7.639,0v16.326c0,1.498,0.15,1.648,1.648,1.648
			L120.557,48.273L120.557,48.273z"/>
		<path fill="#FFFFFF" d="M145.121,42.282c-1.048,1.797-2.097,2.247-5.392,2.247s-4.493-0.449-5.392-2.247
			c-0.899-1.498-1.048-3.745-1.048-7.19c0-3.445,0.449-5.841,1.048-7.19c1.048-1.797,2.097-2.247,5.392-2.247
			s4.493,0.449,5.392,2.247c0.899,1.498,1.048,3.745,1.048,7.19C146.17,38.538,145.72,40.784,145.121,42.282L145.121,42.282z
			 M151.262,35.093c0-4.943-0.899-7.789-2.846-10.335c-1.797-2.546-4.943-3.445-8.837-3.445c-3.894,0-7.04,1.048-8.837,3.445
			c-2.097,2.546-2.846,5.392-2.846,10.335s0.899,7.789,2.846,10.335c1.797,2.247,4.943,3.445,8.837,3.445
			c4.194,0,7.04-1.048,8.837-3.445C150.513,43.031,151.262,40.185,151.262,35.093L151.262,35.093z"/>
		<path fill="none" stroke="#FFFFFF" stroke-width="0.4362" d="M145.121,42.282c-1.048,1.797-2.097,2.247-5.392,2.247
			s-4.493-0.449-5.392-2.247c-0.899-1.498-1.048-3.745-1.048-7.19c0-3.445,0.449-5.841,1.048-7.19
			c1.048-1.797,2.097-2.247,5.392-2.247s4.493,0.449,5.392,2.247c0.899,1.498,1.048,3.745,1.048,7.19
			C146.17,38.538,145.72,40.784,145.121,42.282L145.121,42.282z M151.262,35.093c0-4.943-0.899-7.789-2.846-10.335
			c-1.797-2.546-4.943-3.445-8.837-3.445c-3.894,0-7.04,1.048-8.837,3.445c-2.097,2.546-2.846,5.392-2.846,10.335
			s0.899,7.789,2.846,10.335c1.797,2.247,4.943,3.445,8.837,3.445c4.194,0,7.04-1.048,8.837-3.445
			C150.513,43.031,151.262,40.185,151.262,35.093L151.262,35.093z"/>
		<path fill="#FFFFFF" d="M182.267,10.379c-4.943,0-7.19,0.899-8.837,3.145c-0.899,1.048-1.198,2.097-1.198,6.141v2.696h-10.934
			v-2.696c0-2.846,0.15-3.745,0.599-4.194c0.449-0.449,1.498-0.599,2.846-0.599c2.846,0,3.295,0.599,4.793,0.599
			c0.449,0,0.449-0.15,0.599-0.599c0.15-1.048,0.15-2.546,0.15-3.145c0-1.048-0.599-1.198-3.894-1.198
			c-4.943,0-7.19,0.899-8.837,3.145c-0.599,1.048-1.198,2.097-1.198,6.141v26.811c0,1.498,0.15,1.648,2.097,1.648h1.797
			c1.048,0,1.198-0.449,1.198-1.648V26.405h10.934v20.221c0,1.498,0.15,1.648,1.797,1.648h1.797c1.048,0,1.198-0.449,1.198-1.648
			V26.405h5.841c1.498,0,1.648-0.15,1.648-2.097V23.41c0-1.048-0.449-1.198-1.648-1.198h-5.692v-2.696
			c0-2.846,0.15-3.745,0.599-4.194s1.498-0.599,2.846-0.599c2.846,0,3.295,0.599,4.493,0.599c0.449,0,0.449-0.15,0.599-0.599
			c0.15-1.048,0.15-2.546,0.15-3.145C186.161,10.528,185.562,10.379,182.267,10.379L182.267,10.379z"/>
		<path fill="none" stroke="#FFFFFF" stroke-width="0.4362" d="M182.267,10.379c-4.943,0-7.19,0.899-8.837,3.145
			c-0.899,1.048-1.198,2.097-1.198,6.141v2.696h-10.934v-2.696c0-2.846,0.15-3.745,0.599-4.194c0.449-0.449,1.498-0.599,2.846-0.599
			c2.846,0,3.295,0.599,4.793,0.599c0.449,0,0.449-0.15,0.599-0.599c0.15-1.048,0.15-2.546,0.15-3.145
			c0-1.048-0.599-1.198-3.894-1.198c-4.943,0-7.19,0.899-8.837,3.145c-0.599,1.048-1.198,2.097-1.198,6.141v26.811
			c0,1.498,0.15,1.648,2.097,1.648h1.797c1.048,0,1.198-0.449,1.198-1.648V26.405h10.934v20.221c0,1.498,0.15,1.648,1.797,1.648
			h1.797c1.048,0,1.198-0.449,1.198-1.648V26.405h5.841c1.498,0,1.648-0.15,1.648-2.097V23.41c0-1.048-0.449-1.198-1.648-1.198
			h-5.692v-2.696c0-2.846,0.15-3.745,0.599-4.194s1.498-0.599,2.846-0.599c2.846,0,3.295,0.599,4.493,0.599
			c0.449,0,0.449-0.15,0.599-0.599c0.15-1.048,0.15-2.546,0.15-3.145C186.161,10.528,185.562,10.379,182.267,10.379L182.267,10.379z
			"/>
		<path fill="#FFFFFF" d="M215.369,21.313c-4.194,0-7.489,2.546-8.837,3.745c-0.599-2.247-2.247-3.745-4.943-3.745
			c-3.894,0-6.74,2.097-8.388,3.295v-1.048c0-0.899-0.449-1.498-1.198-1.498h-2.546c-1.198,0-1.498,0.15-1.498,1.498v23.066
			c0,1.498,0.15,1.648,1.797,1.648h1.797c1.048,0,1.198-0.449,1.198-1.648V29.251c1.648-1.498,4.493-3.745,6.59-3.745
			c0.899,0,1.198,0.15,1.648,0.899c0.449,0.599,0.599,2.247,0.599,5.093v14.978c0,1.498,0.15,1.648,1.797,1.648h2.097
			c1.048,0,1.198-0.449,1.198-1.648V29.251c1.648-1.498,4.493-3.745,6.59-3.745c0.599,0,1.198,0.15,1.648,0.899
			c0.449,0.599,0.449,2.247,0.449,5.093v14.978c0,1.498,0.15,1.648,1.797,1.648h1.797c1.048,0,1.198-0.449,1.198-1.648V28.502
			C220.761,24.159,219.113,21.313,215.369,21.313L215.369,21.313z"/>
		<path fill="none" stroke="#FFFFFF" stroke-width="0.4362" d="M215.369,21.313c-4.194,0-7.489,2.546-8.837,3.745
			c-0.599-2.247-2.247-3.745-4.943-3.745c-3.894,0-6.74,2.097-8.388,3.295v-1.048c0-0.899-0.449-1.498-1.198-1.498h-2.546
			c-1.198,0-1.498,0.15-1.498,1.498v23.066c0,1.498,0.15,1.648,1.797,1.648h1.797c1.048,0,1.198-0.449,1.198-1.648V29.251
			c1.648-1.498,4.493-3.745,6.59-3.745c0.899,0,1.198,0.15,1.648,0.899c0.449,0.599,0.599,2.247,0.599,5.093v14.978
			c0,1.498,0.15,1.648,1.797,1.648h2.097c1.048,0,1.198-0.449,1.198-1.648V29.251c1.648-1.498,4.493-3.745,6.59-3.745
			c0.599,0,1.198,0.15,1.648,0.899c0.449,0.599,0.449,2.247,0.449,5.093v14.978c0,1.498,0.15,1.648,1.797,1.648h1.797
			c1.048,0,1.198-0.449,1.198-1.648V28.502C220.761,24.159,219.113,21.313,215.369,21.313L215.369,21.313z"/>
		<path fill="#FFFFFF" d="M241.581,41.383c-2.247,1.797-6.141,3.445-8.238,3.445s-2.846-1.198-2.846-4.344
			c0-3.745,1.048-4.344,7.19-4.344c1.198,0,2.546,0,3.745,0.15v4.943h0.15V41.383z M237.686,21.462
			c-2.546,0-6.441,0.599-8.837,1.048c-0.599,0.15-0.899,0.449-0.899,1.498v2.097c0,0.899,0.15,1.048,0.899,1.048
			c0.15,0,0.449,0,0.599-0.15c2.546-0.599,6.441-1.498,8.388-1.498c1.498,0,2.846,0.599,3.145,1.648
			c0.449,1.048,0.599,3.295,0.599,4.943c-5.841,0-9.736,0.449-11.983,1.498c-2.696,1.048-4.194,3.745-4.194,7.639
			c0,5.093,2.247,7.639,7.04,7.639c2.846,0,5.841-1.048,9.137-3.445v1.498c0,1.498,0.15,1.648,1.797,1.648h2.097
			c1.048,0,1.198-0.449,1.198-1.648V32.846c0-5.841-0.599-7.04-1.797-8.837C243.228,21.912,239.933,21.462,237.686,21.462
			L237.686,21.462z"/>
		<path fill="none" stroke="#FFFFFF" stroke-width="0.4362" d="M241.581,41.383c-2.247,1.797-6.141,3.445-8.238,3.445
			s-2.846-1.198-2.846-4.344c0-3.745,1.048-4.344,7.19-4.344c1.198,0,2.546,0,3.745,0.15v4.943h0.15V41.383z M237.686,21.462
			c-2.546,0-6.441,0.599-8.837,1.048c-0.599,0.15-0.899,0.449-0.899,1.498v2.097c0,0.899,0.15,1.048,0.899,1.048
			c0.15,0,0.449,0,0.599-0.15c2.546-0.599,6.441-1.498,8.388-1.498c1.498,0,2.846,0.599,3.145,1.648
			c0.449,1.048,0.599,3.295,0.599,4.943c-5.841,0-9.736,0.449-11.983,1.498c-2.696,1.048-4.194,3.745-4.194,7.639
			c0,5.093,2.247,7.639,7.04,7.639c2.846,0,5.841-1.048,9.137-3.445v1.498c0,1.498,0.15,1.648,1.797,1.648h2.097
			c1.048,0,1.198-0.449,1.198-1.648V32.846c0-5.841-0.599-7.04-1.797-8.837C243.228,21.912,239.933,21.462,237.686,21.462
			L237.686,21.462z"/>
		<path fill="#FFFFFF" d="M265.845,21.313c-4.344,0-6.59,1.797-8.388,3.295v-0.899c0-0.899-0.449-1.498-1.198-1.498h-2.546
			c-1.198,0-1.498,0.15-1.498,1.498v22.917c0,1.498,0.15,1.648,1.797,1.648h1.797c1.048,0,1.198-0.449,1.198-1.648V29.251
			c2.846-2.247,4.793-3.745,7.789-3.745c1.498,0,2.097,0.449,2.546,0.899c0.449,0.599,0.599,2.247,0.599,5.093v14.978
			c0,1.498,0.15,1.648,1.797,1.648h2.097c1.048,0,1.198-0.449,1.198-1.648V28.502C273.334,25.207,271.986,21.313,265.845,21.313
			L265.845,21.313z"/>
		<path fill="none" stroke="#FFFFFF" stroke-width="0.4362" d="M265.845,21.313c-4.344,0-6.59,1.797-8.388,3.295v-0.899
			c0-0.899-0.449-1.498-1.198-1.498h-2.546c-1.198,0-1.498,0.15-1.498,1.498v22.917c0,1.498,0.15,1.648,1.797,1.648h1.797
			c1.048,0,1.198-0.449,1.198-1.648V29.251c2.846-2.247,4.793-3.745,7.789-3.745c1.498,0,2.097,0.449,2.546,0.899
			c0.449,0.599,0.599,2.247,0.599,5.093v14.978c0,1.498,0.15,1.648,1.797,1.648h2.097c1.048,0,1.198-0.449,1.198-1.648V28.502
			C273.334,25.207,271.986,21.313,265.845,21.313L265.845,21.313z"/>
		<path fill="#FFFFFF" d="M292.357,21.313c-4.344,0-6.59,1.797-8.388,3.295v-0.899c0-0.899-0.449-1.498-1.198-1.498h-2.546
			c-1.198,0-1.498,0.15-1.498,1.498v22.917c0,1.498,0.15,1.648,1.797,1.648h1.797c1.048,0,1.198-0.449,1.198-1.648V29.251
			c2.846-2.247,4.793-3.745,7.789-3.745c1.498,0,2.097,0.449,2.546,0.899c0.449,0.599,0.599,2.247,0.599,5.093v14.978
			c0,1.498,0.15,1.648,2.097,1.648h1.797c1.048,0,1.198-0.449,1.198-1.648V28.502C299.996,25.207,298.648,21.313,292.357,21.313
			L292.357,21.313z"/>
		<path fill="none" stroke="#FFFFFF" stroke-width="0.4362" d="M292.357,21.313c-4.344,0-6.59,1.797-8.388,3.295v-0.899
			c0-0.899-0.449-1.498-1.198-1.498h-2.546c-1.198,0-1.498,0.15-1.498,1.498v22.917c0,1.498,0.15,1.648,1.797,1.648h1.797
			c1.048,0,1.198-0.449,1.198-1.648V29.251c2.846-2.247,4.793-3.745,7.789-3.745c1.498,0,2.097,0.449,2.546,0.899
			c0.449,0.599,0.599,2.247,0.599,5.093v14.978c0,1.498,0.15,1.648,2.097,1.648h1.797c1.048,0,1.198-0.449,1.198-1.648V28.502
			C299.996,25.207,298.648,21.313,292.357,21.313L292.357,21.313z"/>
		<path fill="#FFFFFF" d="M14.511,60.406h-2.247c-1.048,0-1.648,0-1.648,1.498v34.15c0,1.498,0.15,1.648,1.648,1.648h2.247
			c1.048,0,1.498-0.449,1.498-1.648v-34.15C16.009,61.005,15.71,60.406,14.511,60.406L14.511,60.406z"/>
		<path fill="none" stroke="#FFFFFF" stroke-width="0.4362" d="M14.511,60.406h-2.247c-1.048,0-1.648,0-1.648,1.498v34.15
			c0,1.498,0.15,1.648,1.648,1.648h2.247c1.048,0,1.498-0.449,1.498-1.648v-34.15C16.009,61.005,15.71,60.406,14.511,60.406
			L14.511,60.406z"/>
		<path fill="#FFFFFF" d="M36.38,70.89c-4.344,0-6.59,1.797-8.388,3.295v-0.899c0-0.899-0.449-1.498-1.198-1.498h-2.546
			c-1.198,0-1.498,0.15-1.498,1.498v22.917c0,1.498,0.15,1.648,1.797,1.648h2.097c1.048,0,1.198-0.449,1.198-1.648V78.979
			c2.846-2.247,4.793-3.745,7.789-3.745c1.498,0,2.097,0.449,2.546,0.899c0.449,0.599,0.599,2.247,0.599,5.093v14.978
			c0,1.498,0.15,1.648,2.097,1.648h1.797c1.048,0,1.198-0.449,1.198-1.648V78.08C44.018,74.785,42.521,70.89,36.38,70.89
			L36.38,70.89z"/>
		<path fill="none" stroke="#FFFFFF" stroke-width="0.4362" d="M36.38,70.89c-4.344,0-6.59,1.797-8.388,3.295v-0.899
			c0-0.899-0.449-1.498-1.198-1.498h-2.546c-1.198,0-1.498,0.15-1.498,1.498v22.917c0,1.498,0.15,1.648,1.797,1.648h2.097
			c1.048,0,1.198-0.449,1.198-1.648V78.979c2.846-2.247,4.793-3.745,7.789-3.745c1.498,0,2.097,0.449,2.546,0.899
			c0.449,0.599,0.599,2.247,0.599,5.093v14.978c0,1.498,0.15,1.648,2.097,1.648h1.797c1.048,0,1.198-0.449,1.198-1.648V78.08
			C44.018,74.785,42.521,70.89,36.38,70.89L36.38,70.89z"/>
		<path fill="#FFFFFF" d="M62.741,83.622l-3.745-1.198c-4.344-1.498-4.943-1.648-5.093-2.546c-0.15-0.449-0.15-0.899-0.15-1.498
			c0-2.846,0.449-3.145,4.194-3.145s6.141,0.449,7.19,0.449c0.899,0,1.048-0.15,1.048-1.048c0-1.648,0-1.198,0-1.648
			c0-1.648-0.15-1.797-1.797-1.797c-1.198-0.15-2.696-0.15-4.194-0.15c-6.441,0-8.388,0.449-9.886,2.097
			c-1.048,1.198-1.648,3.145-1.648,5.841c0,2.247,0.599,3.894,1.498,4.793s2.846,1.648,5.841,2.546
			c4.793,1.498,5.542,1.648,6.141,2.247c0.449,0.449,0.449,1.198,0.449,2.546c0,2.546-0.599,3.145-3.745,3.145
			c-4.943,0-8.238-0.599-8.687-0.599s-0.599,0.15-0.599,0.899c0,1.498,0,1.048,0,2.097c0,1.498,0,1.648,0.899,1.648
			c1.648,0.15,4.344,0.449,7.789,0.449c7.639,0,9.436-1.498,9.436-7.789C67.384,86.168,66.486,84.97,62.741,83.622L62.741,83.622z"
			/>
		<path fill="none" stroke="#FFFFFF" stroke-width="0.4362" d="M62.741,83.622l-3.745-1.198c-4.344-1.498-4.943-1.648-5.093-2.546
			c-0.15-0.449-0.15-0.899-0.15-1.498c0-2.846,0.449-3.145,4.194-3.145s6.141,0.449,7.19,0.449c0.899,0,1.048-0.15,1.048-1.048
			c0-1.648,0-1.198,0-1.648c0-1.648-0.15-1.797-1.797-1.797c-1.198-0.15-2.696-0.15-4.194-0.15c-6.441,0-8.388,0.449-9.886,2.097
			c-1.048,1.198-1.648,3.145-1.648,5.841c0,2.247,0.599,3.894,1.498,4.793s2.846,1.648,5.841,2.546
			c4.793,1.498,5.542,1.648,6.141,2.247c0.449,0.449,0.449,1.198,0.449,2.546c0,2.546-0.599,3.145-3.745,3.145
			c-4.943,0-8.238-0.599-8.687-0.599s-0.599,0.15-0.599,0.899c0,1.498,0,1.048,0,2.097c0,1.498,0,1.648,0.899,1.648
			c1.648,0.15,4.344,0.449,7.789,0.449c7.639,0,9.436-1.498,9.436-7.789C67.384,86.168,66.486,84.97,62.741,83.622L62.741,83.622z"
			/>
		<path fill="#FFFFFF" d="M82.962,71.789H77.12v-5.093c0-0.899-0.449-1.498-1.198-1.498h-2.546c-1.198,0-1.498,0.15-1.498,1.498
			v23.666c0,6.59,1.048,8.088,6.141,8.088c1.797,0,2.846-0.15,4.793-0.15c1.498-0.15,1.498-0.15,1.498-1.648v-2.097
			c0-0.599,0-0.899-0.599-0.899c-0.899,0-2.846,0.899-4.493,0.899c-0.899,0-1.498-0.449-1.797-1.048
			c-0.15-0.599-0.449-1.048-0.449-3.295V75.983h5.841c1.498,0,1.648-0.15,1.648-2.097v-0.899
			C84.609,72.089,84.16,71.789,82.962,71.789L82.962,71.789z"/>
		<path fill="none" stroke="#FFFFFF" stroke-width="0.4362" d="M82.962,71.789H77.12v-5.093c0-0.899-0.449-1.498-1.198-1.498h-2.546
			c-1.198,0-1.498,0.15-1.498,1.498v23.666c0,6.59,1.048,8.088,6.141,8.088c1.797,0,2.846-0.15,4.793-0.15
			c1.498-0.15,1.498-0.15,1.498-1.648v-2.097c0-0.599,0-0.899-0.599-0.899c-0.899,0-2.846,0.899-4.493,0.899
			c-0.899,0-1.498-0.449-1.797-1.048c-0.15-0.599-0.449-1.048-0.449-3.295V75.983h5.841c1.498,0,1.648-0.15,1.648-2.097v-0.899
			C84.609,72.089,84.16,71.789,82.962,71.789L82.962,71.789z"/>
		<path fill="#FFFFFF" d="M93.446,62.503H90.75c-1.198,0-1.498,0.15-1.498,1.498v2.097c0,1.498,0.15,1.648,1.797,1.648h2.397
			c1.048,0,1.198-0.449,1.198-1.648V64C94.645,63.102,94.195,62.503,93.446,62.503L93.446,62.503z"/>
		<path fill="none" stroke="#FFFFFF" stroke-width="0.4362" d="M93.446,62.503H90.75c-1.198,0-1.498,0.15-1.498,1.498v2.097
			c0,1.498,0.15,1.648,1.797,1.648h2.397c1.048,0,1.198-0.449,1.198-1.648V64C94.645,63.102,94.195,62.503,93.446,62.503
			L93.446,62.503z"/>
		<path fill="#FFFFFF" d="M93.446,71.789H90.75c-1.198,0-1.498,0.15-1.498,1.498v22.917c0,1.498,0.15,1.648,1.797,1.648h2.397
			c1.048,0,1.198-0.449,1.198-1.648V73.437C94.645,72.538,94.195,71.789,93.446,71.789L93.446,71.789z"/>
		<path fill="none" stroke="#FFFFFF" stroke-width="0.4362" d="M93.446,71.789H90.75c-1.198,0-1.498,0.15-1.498,1.498v22.917
			c0,1.498,0.15,1.648,1.797,1.648h2.397c1.048,0,1.198-0.449,1.198-1.648V73.437C94.645,72.538,94.195,71.789,93.446,71.789
			L93.446,71.789z"/>
		<path fill="#FFFFFF" d="M111.72,71.789h-5.841v-5.093c0-0.899-0.449-1.498-1.198-1.498h-2.546c-1.198,0-1.498,0.15-1.498,1.498
			v23.666c0,6.59,1.048,8.088,6.141,8.088c1.797,0,2.846-0.15,4.793-0.15c1.498-0.15,1.498-0.15,1.498-1.648v-2.097
			c0-0.599,0-0.899-0.599-0.899c-0.899,0-2.846,0.899-4.493,0.899c-0.899,0-1.498-0.449-1.797-1.048
			c-0.15-0.599-0.449-1.048-0.449-3.295V75.983h5.841c1.498,0,1.648-0.15,1.648-2.097v-0.899
			C113.367,72.089,112.918,71.789,111.72,71.789L111.72,71.789z"/>
		<path fill="none" stroke="#FFFFFF" stroke-width="0.4362" d="M111.72,71.789h-5.841v-5.093c0-0.899-0.449-1.498-1.198-1.498
			h-2.546c-1.198,0-1.498,0.15-1.498,1.498v23.666c0,6.59,1.048,8.088,6.141,8.088c1.797,0,2.846-0.15,4.793-0.15
			c1.498-0.15,1.498-0.15,1.498-1.648v-2.097c0-0.599,0-0.899-0.599-0.899c-0.899,0-2.846,0.899-4.493,0.899
			c-0.899,0-1.498-0.449-1.797-1.048c-0.15-0.599-0.449-1.048-0.449-3.295V75.983h5.841c1.498,0,1.648-0.15,1.648-2.097v-0.899
			C113.367,72.089,112.918,71.789,111.72,71.789L111.72,71.789z"/>
		<path fill="#FFFFFF" d="M137.033,71.789h-2.097c-1.048,0-1.198,0.449-1.198,1.648v17.225c-2.846,2.247-4.793,3.745-7.789,3.745
			c-1.498,0-2.097-0.449-2.546-0.899c-0.449-0.599-0.599-2.247-0.599-5.093V73.437c0-1.498-0.15-1.648-1.797-1.648h-2.097
			c-1.048,0-1.198,0.449-1.198,1.648V91.56c0,3.295,1.498,7.19,7.639,7.19c4.194,0,6.59-1.797,8.388-3.295v0.899
			c0,0.899,0.449,1.498,1.198,1.498h2.546c1.198,0,1.498-0.15,1.498-1.498V73.437C138.98,71.939,138.681,71.789,137.033,71.789
			L137.033,71.789z"/>
		<path fill="none" stroke="#FFFFFF" stroke-width="0.4362" d="M137.033,71.789h-2.097c-1.048,0-1.198,0.449-1.198,1.648v17.225
			c-2.846,2.247-4.793,3.745-7.789,3.745c-1.498,0-2.097-0.449-2.546-0.899c-0.449-0.599-0.599-2.247-0.599-5.093V73.437
			c0-1.498-0.15-1.648-1.797-1.648h-2.097c-1.048,0-1.198,0.449-1.198,1.648V91.56c0,3.295,1.498,7.19,7.639,7.19
			c4.194,0,6.59-1.797,8.388-3.295v0.899c0,0.899,0.449,1.498,1.198,1.498h2.546c1.198,0,1.498-0.15,1.498-1.498V73.437
			C138.98,71.939,138.681,71.789,137.033,71.789L137.033,71.789z"/>
		<path fill="#FFFFFF" d="M155.905,71.789h-5.841v-5.093c0-0.899-0.449-1.498-1.198-1.498h-2.546c-1.198,0-1.498,0.15-1.498,1.498
			v23.666c0,6.59,1.048,8.088,6.141,8.088c1.797,0,2.846-0.15,4.793-0.15c1.498-0.15,1.498-0.15,1.498-1.648v-2.097
			c0-0.599,0-0.899-0.599-0.899c-0.899,0-2.846,0.899-4.493,0.899c-0.899,0-1.498-0.449-1.797-1.048
			c-0.15-0.599-0.449-1.048-0.449-3.295V75.983h5.841c1.498,0,1.648-0.15,1.648-2.097v-0.899
			C157.553,72.089,157.104,71.789,155.905,71.789L155.905,71.789z"/>
		<path fill="none" stroke="#FFFFFF" stroke-width="0.4362" d="M155.905,71.789h-5.841v-5.093c0-0.899-0.449-1.498-1.198-1.498
			h-2.546c-1.198,0-1.498,0.15-1.498,1.498v23.666c0,6.59,1.048,8.088,6.141,8.088c1.797,0,2.846-0.15,4.793-0.15
			c1.498-0.15,1.498-0.15,1.498-1.648v-2.097c0-0.599,0-0.899-0.599-0.899c-0.899,0-2.846,0.899-4.493,0.899
			c-0.899,0-1.498-0.449-1.797-1.048c-0.15-0.599-0.449-1.048-0.449-3.295V75.983h5.841c1.498,0,1.648-0.15,1.648-2.097v-0.899
			C157.553,72.089,157.104,71.789,155.905,71.789L155.905,71.789z"/>
		<path fill="#FFFFFF" d="M177.025,82.573H166.24v-0.899c0-4.943,1.048-6.141,5.542-6.141c4.194,0,5.093,1.048,5.093,4.943
			C177.025,80.926,177.025,81.675,177.025,82.573L177.025,82.573z M171.932,70.89c-4.493,0-7.639,1.198-9.137,3.745
			c-1.198,2.247-1.648,4.943-1.648,10.035c0,5.841,0.599,8.837,2.546,10.934c1.648,1.648,4.793,2.696,8.687,2.696
			c2.546,0,5.542-0.15,8.238-0.899c1.048-0.15,1.198-0.599,1.198-1.648c0-0.449,0-1.048,0-1.198c-0.15-1.198-0.15-1.648-0.599-1.648
			c-0.899,0-4.493,1.198-8.687,1.198c-1.498,0-3.145-0.449-4.194-0.899c-1.797-1.048-1.797-4.194-1.797-7.04h14.229
			c1.198,0,1.498-0.449,1.498-2.546c0-3.145,0-6.59-1.498-9.286C179.122,72.089,176.426,70.89,171.932,70.89L171.932,70.89z"/>
		<path fill="none" stroke="#FFFFFF" stroke-width="0.4362" d="M177.025,82.573H166.24v-0.899c0-4.943,1.048-6.141,5.542-6.141
			c4.194,0,5.093,1.048,5.093,4.943C177.025,80.926,177.025,81.675,177.025,82.573L177.025,82.573z M171.932,70.89
			c-4.493,0-7.639,1.198-9.137,3.745c-1.198,2.247-1.648,4.943-1.648,10.035c0,5.841,0.599,8.837,2.546,10.934
			c1.648,1.648,4.793,2.696,8.687,2.696c2.546,0,5.542-0.15,8.238-0.899c1.048-0.15,1.198-0.599,1.198-1.648
			c0-0.449,0-1.048,0-1.198c-0.15-1.198-0.15-1.648-0.599-1.648c-0.899,0-4.493,1.198-8.687,1.198c-1.498,0-3.145-0.449-4.194-0.899
			c-1.797-1.048-1.797-4.194-1.797-7.04h14.229c1.198,0,1.498-0.449,1.498-2.546c0-3.145,0-6.59-1.498-9.286
			C179.122,72.089,176.426,70.89,171.932,70.89L171.932,70.89z"/>
	</g>
</g>
</svg>
