<?xml version="1.0" encoding="utf-8"?>
<!-- Generator: Adobe Illustrator 17.1.0, SVG Export Plug-In . SVG Version: 6.00 Build 0)  -->
<!DOCTYPE svg PUBLIC "-//W3C//DTD SVG 1.1//EN" "http://www.w3.org/Graphics/SVG/1.1/DTD/svg11.dtd">
<svg version="1.1" id="Layer_1" xmlns="http://www.w3.org/2000/svg" xmlns:xlink="http://www.w3.org/1999/xlink" x="0px" y="0px"
	 viewBox="0 0 150.8 75" enable-background="new 0 0 150.8 75" xml:space="preserve">
<rect x="0" y="0" fill="#FFFFFF" width="150.8" height="75"/>
<path fill="#231F20" d="M4.7,70.8h141.4V4.3H4.7V70.8z M144.7,5.6v63.8H5.9V5.6H144.7z"/>
<g>
	<path fill="#222222" d="M53,41.7h1.3v0.3h-1v0.7h1v0.3h-1v1.2H53V41.7z"/>
	<path fill="#222222" d="M56.9,43.8c-0.2,0.2-0.6,0.4-0.9,0.4c-0.3,0-0.7-0.1-0.9-0.4c-0.2-0.2-0.4-0.6-0.4-0.9
		c0-0.3,0.1-0.7,0.4-0.9c0.2-0.2,0.6-0.4,0.9-0.4c0.3,0,0.7,0.1,0.9,0.4c0.2,0.2,0.4,0.6,0.4,0.9C57.2,43.2,57.1,43.5,56.9,43.8z
		 M56.7,43.6c0.2-0.2,0.3-0.4,0.3-0.7c0-0.3-0.1-0.5-0.3-0.7c-0.2-0.2-0.4-0.3-0.7-0.3c-0.3,0-0.5,0.1-0.7,0.3
		c-0.2,0.2-0.3,0.4-0.3,0.7c0,0.3,0.1,0.5,0.3,0.7c0.2,0.2,0.4,0.3,0.7,0.3C56.2,43.9,56.5,43.8,56.7,43.6z"/>
	<path fill="#222222" d="M57.8,41.6l1.8,1.9v-1.8h0.3v2.5l-1.8-1.9v1.8h-0.3V41.6z"/>
	<path fill="#222222" d="M60.5,41.7H61c0.5,0,0.8,0,1.1,0.2c0.3,0.2,0.4,0.6,0.4,1s-0.1,0.8-0.4,1c-0.3,0.2-0.6,0.2-1,0.2
		c0,0-0.1,0-0.1,0h-0.5V41.7z M61,43.8c0.4,0,0.7,0,0.9-0.2c0.2-0.2,0.3-0.4,0.3-0.8c0-0.3-0.1-0.6-0.3-0.8
		c-0.2-0.2-0.5-0.2-0.9-0.2h-0.2v1.9H61z"/>
	<path fill="#222222" d="M64.8,44.1h-0.3l-0.3-0.7h-0.9L63,44.1h-0.3l1.1-2.5L64.8,44.1z M63.3,43.1h0.8l-0.4-0.9L63.3,43.1z"/>
	<path fill="#222222" d="M65.4,41.9h-0.7v-0.3h1.7v0.3h-0.7v2.1h-0.3V41.9z"/>
	<path fill="#222222" d="M66.8,41.7h0.3v2.4h-0.3V41.7z"/>
	<path fill="#222222" d="M69.8,43.8c-0.2,0.2-0.6,0.4-0.9,0.4c-0.3,0-0.7-0.1-0.9-0.4c-0.2-0.2-0.4-0.6-0.4-0.9
		c0-0.3,0.1-0.7,0.4-0.9c0.2-0.2,0.6-0.4,0.9-0.4c0.3,0,0.7,0.1,0.9,0.4c0.2,0.2,0.4,0.6,0.4,0.9C70.2,43.2,70.1,43.5,69.8,43.8z
		 M69.6,43.6c0.2-0.2,0.3-0.4,0.3-0.7c0-0.3-0.1-0.5-0.3-0.7c-0.2-0.2-0.4-0.3-0.7-0.3c-0.3,0-0.5,0.1-0.7,0.3
		c-0.2,0.2-0.3,0.4-0.3,0.7c0,0.3,0.1,0.5,0.3,0.7c0.2,0.2,0.4,0.3,0.7,0.3C69.2,43.9,69.4,43.8,69.6,43.6z"/>
	<path fill="#222222" d="M70.8,41.6l1.8,1.9v-1.8h0.3v2.5L71,42.3v1.8h-0.3V41.6z"/>
	<path fill="#222222" d="M74.8,44.1h-0.3v-2.4H75c0,0,0.1,0,0.1,0c0.2,0,0.4,0,0.6,0.1c0.2,0.1,0.2,0.3,0.2,0.5
		c0,0.2-0.1,0.4-0.2,0.5C75.5,43,75.3,43,75,43c0,0-0.1,0-0.1,0h-0.1V44.1z M75,42.7c0.4,0,0.6-0.1,0.6-0.4c0-0.4-0.2-0.4-0.6-0.4
		h-0.1v0.8H75z"/>
	<path fill="#222222" d="M78.4,43.8c-0.2,0.2-0.6,0.4-0.9,0.4c-0.3,0-0.7-0.1-0.9-0.4c-0.2-0.2-0.4-0.6-0.4-0.9
		c0-0.3,0.1-0.7,0.4-0.9c0.2-0.2,0.6-0.4,0.9-0.4c0.3,0,0.7,0.1,0.9,0.4c0.2,0.2,0.4,0.6,0.4,0.9C78.8,43.2,78.7,43.5,78.4,43.8z
		 M78.2,43.6c0.2-0.2,0.3-0.4,0.3-0.7c0-0.3-0.1-0.5-0.3-0.7c-0.2-0.2-0.4-0.3-0.7-0.3c-0.3,0-0.5,0.1-0.7,0.3
		c-0.2,0.2-0.3,0.4-0.3,0.7c0,0.3,0.1,0.5,0.3,0.7c0.2,0.2,0.4,0.3,0.7,0.3C77.8,43.9,78,43.8,78.2,43.6z"/>
	<path fill="#222222" d="M79.6,41.7v1.5c0,0.5,0.2,0.7,0.6,0.7c0.4,0,0.6-0.2,0.6-0.7v-1.5h0.3v1.5c0,0.7-0.3,1-0.9,1
		c-0.6,0-0.9-0.3-0.9-1v-1.5H79.6z"/>
	<path fill="#222222" d="M81.9,41.7h0.5c0,0,0.1,0,0.1,0c0.2,0,0.4,0,0.6,0.1c0.1,0.1,0.2,0.3,0.2,0.5c0,0.4-0.2,0.6-0.7,0.6
		c0,0,0,0-0.1,0l0.9,1.2h-0.4l-0.9-1.2h0v1.2h-0.3V41.7z M82.1,42.7h0.2c0.4,0,0.6-0.1,0.6-0.4c0-0.4-0.2-0.4-0.6-0.4h-0.2V42.7z"/>
	<path fill="#222222" d="M84.8,41.7h0.3v2.1H86v0.3h-1.2V41.7z"/>
	<path fill="#222222" d="M88.3,44.1H88l-0.3-0.7h-0.9l-0.3,0.7h-0.3l1.1-2.5L88.3,44.1z M86.8,43.1h0.8l-0.4-0.9L86.8,43.1z"/>
	<path fill="#222222" d="M89.7,41.6l1.8,1.9v-1.8h0.3v2.5L90,42.3v1.8h-0.3V41.6z"/>
	<path fill="#222222" d="M94.3,44.1H94l-0.3-0.7h-0.9l-0.3,0.7h-0.3l1.1-2.5L94.3,44.1z M92.8,43.1h0.8l-0.4-0.9L92.8,43.1z"/>
	<path fill="#222222" d="M94.9,41.9h-0.7v-0.3h1.7v0.3h-0.7v2.1h-0.3V41.9z"/>
	<path fill="#222222" d="M96.5,41.7v1.5c0,0.5,0.2,0.7,0.6,0.7c0.4,0,0.6-0.2,0.6-0.7v-1.5h0.3v1.5c0,0.7-0.3,1-0.9,1
		c-0.6,0-0.9-0.3-0.9-1v-1.5H96.5z"/>
	<path fill="#222222" d="M98.7,41.7h0.5c0,0,0.1,0,0.1,0c0.2,0,0.4,0,0.6,0.1c0.1,0.1,0.2,0.3,0.2,0.5c0,0.4-0.2,0.6-0.7,0.6
		c0,0,0,0-0.1,0l0.9,1.2h-0.4l-0.9-1.2h0v1.2h-0.3V41.7z M99,42.7h0.2c0.4,0,0.6-0.1,0.6-0.4c0-0.4-0.2-0.4-0.6-0.4H99V42.7z"/>
	<path fill="#222222" d="M100.6,41.7h1.3v0.3h-1v0.7h1v0.3h-1v0.9h1v0.3h-1.3V41.7z"/>
	<path fill="#222222" d="M62.4,20.7c-3.3,0-6.1,0.5-8.8,1.6c1.3,2.6,4,4.4,7.1,4.4c3.5,0,6.5-2.3,7.6-5.5
		C66.1,20.9,64.2,20.7,62.4,20.7z"/>
	<path fill="#222222" d="M60.7,10.8c-4.4,0-7.9,3.6-7.9,7.9c0,0.7,0.1,1.4,0.3,2.1c4.9-2.1,10.3-2.5,15.5-2.9
		C68.2,14,64.8,10.8,60.7,10.8z"/>
	<path fill="#222222" d="M104.9,17.9c-11.2,7.8-22.2,1.6-33.5-0.4c-6.4-1.2-12.8-1.1-19.5,3.5c-2,1.4-4.1,3.2-6.1,5.5
		c-0.1,0.2-0.1,0.2,0.1,0.1c2.3-2.1,4.3-3.6,6.5-4.6c5.9-2.7,12.1-2.3,18.4-1.2C83.1,23,95.5,28.3,104.9,17.9
		C105.1,17.9,105,17.8,104.9,17.9z"/>
	<path fill="#222222" d="M91.2,40.4l1.6-3.5h5.4l1.5,3.5h2.3l-6.3-13.6h-0.5l-6.3,13.6H91.2z M95,32c0.2-0.4,0.3-0.9,0.5-1.5
		c0.2,0.7,0.4,1.2,0.5,1.5l1.4,3.1h-3.8L95,32z"/>
	<path fill="#222222" d="M56.2,33.8c0.1-0.6,0.2-1.2,0.2-1.9c0.2,0.6,0.4,1.2,0.7,1.7l3.3,6.8h0.5l3.3-6.7c0.3-0.6,0.5-1.2,0.6-1.9
		c0.1,1,0.2,1.6,0.2,1.9l1.5,6.7h2.1l-3.2-13.6h-0.4l-3.7,8c-0.2,0.5-0.5,1.1-0.8,1.8c-0.4-1-0.6-1.6-0.7-1.8l-3.8-8h-0.4l-3.1,13.6
		h2L56.2,33.8z"/>
	<path fill="#222222" d="M85.8,40.4l5.8-13.6h-2.3l-3,7.2c-0.3,0.8-0.6,1.5-0.7,2.2c-0.2-0.7-0.4-1.4-0.7-2.2l-3-7.2h-2.3l5.8,13.6
		H85.8z"/>
	<path fill="#222222" d="M73,37h5.4l1.5,3.5h2.3L76,26.9h-0.5l-6.3,13.6h2.3L73,37z M75.2,32c0.2-0.4,0.3-0.9,0.5-1.5
		c0.2,0.7,0.4,1.2,0.5,1.5l1.4,3.1h-3.8L75.2,32z"/>
</g>
<rect x="12.2" y="50.8" fill="none" width="126.4" height="52.9"/>
<text transform="matrix(1 0 0 1 12.4588 54.3696)"><tspan x="0" y="0" font-family="'Helvetica-Bold'" font-size="5">THE LUC HOFFMANN INSTITUTE IS SUPPORTED BY </tspan><tspan x="0.6" y="6" font-family="'Helvetica-Bold'" font-size="5">A GENEROUS GIFT FROM THE MAVA FOUNDATION</tspan></text>
</svg>
