<?xml version="1.0" encoding="utf-8"?>
<!-- Generator: Adobe Illustrator 17.0.0, SVG Export Plug-In . SVG Version: 6.00 Build 0)  -->
<!DOCTYPE svg PUBLIC "-//W3C//DTD SVG 1.1//EN" "http://www.w3.org/Graphics/SVG/1.1/DTD/svg11.dtd">
<svg version="1.1" xmlns="http://www.w3.org/2000/svg" xmlns:xlink="http://www.w3.org/1999/xlink" x="0px" y="0px"
	 width="263.623px" height="147.65px" viewBox="0 0 263.623 147.65" enable-background="new 0 0 263.623 147.65"
	 xml:space="preserve">
<g id="Calque_1">
	<path d="M32.297,136.925h5.655v1.17h-4.38v3.074h4.38v1.185h-4.38v5.295h-1.275V136.925z"/>
	<path d="M49.577,146.285c-1.095,1.064-2.564,1.65-4.064,1.65c-1.515,0-2.97-0.601-4.05-1.65c-1.095-1.064-1.68-2.445-1.68-3.975
		c0-1.53,0.585-2.926,1.68-3.99c1.08-1.05,2.535-1.635,4.05-1.635c1.515,0,2.985,0.585,4.064,1.635
		c1.095,1.064,1.665,2.46,1.665,3.99C51.242,143.839,50.657,145.234,49.577,146.285z M48.617,145.429
		c0.84-0.84,1.29-1.92,1.29-3.119c0-1.2-0.45-2.311-1.29-3.15c-0.84-0.84-1.92-1.29-3.104-1.29c-1.185,0-2.28,0.45-3.105,1.29
		c-0.84,0.855-1.29,1.95-1.29,3.15c0,1.199,0.45,2.265,1.29,3.119c0.855,0.855,1.92,1.305,3.105,1.305
		C46.682,146.734,47.762,146.285,48.617,145.429z"/>
	<path d="M53.702,136.505l7.845,8.564v-8.145h1.215v11.145l-7.845-8.475v8.055h-1.215V136.505z"/>
	<path d="M65.702,136.925h2.055c2.01,0,3.555,0,4.86,1.004c1.23,0.945,1.875,2.445,1.875,4.365c0,1.92-0.645,3.405-1.875,4.35
		c-1.245,0.961-2.655,1.006-4.394,1.006c-0.15,0-0.315,0-0.465,0h-2.055V136.925z M67.802,146.449c1.83,0,3.105-0.014,4.005-0.764
		c0.87-0.721,1.35-1.891,1.35-3.405c0-1.515-0.465-2.655-1.35-3.39c-0.885-0.75-2.16-0.78-4.005-0.78h-0.81v8.339H67.802z"/>
	<path d="M84.938,147.65h-1.38l-1.395-3.285h-4.185l-1.395,3.285h-1.38l4.86-11.145L84.938,147.65z M78.353,143.269h3.42
		l-1.71-3.944L78.353,143.269z"/>
	<path d="M87.463,138.14h-3.03v-1.215h7.335v1.215h-3.015v9.51h-1.29V138.14z"/>
	<path d="M93.584,136.925h1.275v10.725h-1.275V136.925z"/>
	<path d="M107.128,146.285c-1.095,1.064-2.564,1.65-4.064,1.65c-1.515,0-2.97-0.601-4.05-1.65c-1.095-1.064-1.68-2.445-1.68-3.975
		c0-1.53,0.585-2.926,1.68-3.99c1.08-1.05,2.535-1.635,4.05-1.635c1.515,0,2.985,0.585,4.064,1.635
		c1.095,1.064,1.665,2.46,1.665,3.99C108.793,143.839,108.208,145.234,107.128,146.285z M106.168,145.429
		c0.84-0.84,1.29-1.92,1.29-3.119c0-1.2-0.45-2.311-1.29-3.15c-0.84-0.84-1.92-1.29-3.104-1.29c-1.185,0-2.28,0.45-3.105,1.29
		c-0.84,0.855-1.29,1.95-1.29,3.15c0,1.199,0.45,2.265,1.29,3.119c0.855,0.855,1.92,1.305,3.105,1.305
		C104.233,146.734,105.313,146.285,106.168,145.429z"/>
	<path d="M111.253,136.505l7.845,8.564v-8.145h1.215v11.145l-7.845-8.475v8.055h-1.215V136.505z"/>
	<path d="M129.298,147.65h-1.245v-10.725h1.89c0.12,0,0.24,0,0.36,0c1.095,0,1.98,0.029,2.7,0.539
		c0.675,0.48,1.095,1.365,1.095,2.416c0,1.049-0.42,1.934-1.095,2.414c-0.72,0.51-1.59,0.54-2.7,0.54c-0.12,0-0.24,0-0.36,0h-0.645
		V147.65z M129.943,141.679c1.845,0,2.775-0.24,2.775-1.725c0-1.56-0.915-1.859-2.775-1.859h-0.645v3.584H129.943z"/>
	<path d="M145.347,146.285c-1.095,1.064-2.564,1.65-4.064,1.65c-1.515,0-2.97-0.601-4.05-1.65c-1.095-1.064-1.68-2.445-1.68-3.975
		c0-1.53,0.585-2.926,1.68-3.99c1.08-1.05,2.535-1.635,4.05-1.635c1.515,0,2.985,0.585,4.064,1.635
		c1.095,1.064,1.665,2.46,1.665,3.99C147.012,143.839,146.427,145.234,145.347,146.285z M144.387,145.429
		c0.84-0.84,1.29-1.92,1.29-3.119c0-1.2-0.45-2.311-1.29-3.15c-0.84-0.84-1.92-1.29-3.105-1.29c-1.185,0-2.28,0.45-3.105,1.29
		c-0.84,0.855-1.29,1.95-1.29,3.15c0,1.199,0.45,2.265,1.29,3.119c0.855,0.855,1.92,1.305,3.105,1.305
		C142.453,146.734,143.532,146.285,144.387,145.429z"/>
	<path d="M150.718,136.925v6.674c0,2.146,0.87,3.15,2.865,3.15c1.995,0,2.865-1.005,2.865-3.15v-6.674h1.29v6.674
		c0,2.896-1.365,4.336-4.155,4.336c-2.79,0-4.155-1.44-4.155-4.336v-6.674H150.718z"/>
	<path d="M160.648,136.925h2.19c0.12,0,0.225,0,0.33,0c1.02,0,1.8,0.029,2.46,0.539c0.615,0.48,1.005,1.336,1.005,2.385
		c0,1.756-1.005,2.686-2.895,2.686c-0.075,0-0.15,0-0.225,0l4.095,5.115h-1.62l-3.915-5.115h-0.18v5.115h-1.245V136.925z
		 M161.892,141.589h0.975c1.68,0,2.505-0.24,2.505-1.725c0-1.56-0.81-1.859-2.505-1.859h-0.975V141.589z"/>
	<path d="M173.848,136.925h1.275v9.51h4.05v1.215h-5.325V136.925z"/>
	<path d="M189.328,147.65h-1.381l-1.394-3.285h-4.186l-1.395,3.285h-1.38l4.86-11.145L189.328,147.65z M182.742,143.269h3.42
		l-1.709-3.944L182.742,143.269z"/>
	<path d="M195.613,136.505l7.844,8.564v-8.145h1.215v11.145l-7.844-8.475v8.055h-1.215V136.505z"/>
	<path d="M215.877,147.65h-1.379l-1.396-3.285h-4.185l-1.395,3.285h-1.381l4.859-11.145L215.877,147.65z M209.293,143.269h3.42
		l-1.711-3.944L209.293,143.269z"/>
	<path d="M218.402,138.14h-3.029v-1.215h7.334v1.215h-3.015v9.51h-1.29V138.14z"/>
	<path d="M225.752,136.925v6.674c0,2.146,0.871,3.15,2.865,3.15c1.995,0,2.865-1.005,2.865-3.15v-6.674h1.29v6.674
		c0,2.896-1.365,4.336-4.155,4.336c-2.789,0-4.154-1.44-4.154-4.336v-6.674H225.752z"/>
	<path d="M235.682,136.925h2.191c0.119,0,0.225,0,0.33,0c1.02,0,1.799,0.029,2.459,0.539c0.615,0.48,1.006,1.336,1.006,2.385
		c0,1.756-1.006,2.686-2.895,2.686c-0.075,0-0.149,0-0.226,0l4.096,5.115h-1.62l-3.915-5.115h-0.18v5.115h-1.245V136.925z
		 M236.927,141.589h0.975c1.68,0,2.505-0.24,2.505-1.725c0-1.56-0.81-1.859-2.505-1.859h-0.975V141.589z"/>
	<path d="M244.082,136.925h5.654v1.17h-4.379v3.074h4.379v1.185h-4.379v4.109h4.379v1.186h-5.654V136.925z"/>
	<path d="M74.024,43.858c-14.491,0-27.321,2.354-39.091,7.163c5.786,11.566,17.744,19.51,31.557,19.51
		c15.738,0,29.062-10.311,33.601-24.544C90.414,44.544,81.959,43.858,74.024,43.858z"/>
	<path d="M66.491,0C47.014,0,31.225,15.789,31.225,35.266c0,3.275,0.457,6.443,1.293,9.453
		c21.692-9.314,45.708-10.973,69.067-12.915C99.846,13.952,84.799,0,66.491,0z"/>
	<path d="M263.136,31.328c-49.598,34.465-98.52,7.326-148.872-1.945c-28.314-5.211-57.078-4.774-86.668,15.441
		C18.588,50.98,9.501,58.968,0.327,69.19c-0.611,0.682-0.295,1.011,0.373,0.408c10.166-9.167,18.924-16.03,28.891-20.626
		c26.238-12.1,53.967-10.314,81.637-5.166c55.047,10.244,109.853,33.794,152.188-12.216
		C263.802,31.17,263.615,30.995,263.136,31.328z"/>
	<path d="M202.206,131.562l7.009-15.538h23.897l6.839,15.538h10.389l-28.117-60.376h-2.202l-28.115,60.376H202.206z M219.011,94.069
		c0.674-1.604,1.434-3.799,2.196-6.839c0.842,3.04,1.603,5.235,2.278,6.839l6.163,13.766h-16.803L219.011,94.069z"/>
	<path d="M46.506,101.838c0.591-2.702,1.013-5.489,1.098-8.36c0.76,2.702,1.773,5.236,2.955,7.685l14.614,30.399h2.379
		l14.589-29.724c1.351-2.786,2.28-5.489,2.787-8.36c0.59,4.476,0.844,7.178,1.097,8.275l6.671,29.809h9.12L87.757,71.186h-1.636
		l-16.31,35.55c-0.929,2.111-2.28,4.812-3.462,8.191c-1.689-4.392-2.787-7.093-3.293-8.191L46.35,71.186h-1.649l-13.732,60.376
		h9.035L46.506,101.838z"/>
	<path d="M178.21,131.562l25.923-60.376h-10.136l-13.509,32.172c-1.435,3.378-2.535,6.587-3.293,9.711
		c-0.676-3.209-1.774-6.333-3.211-9.711l-13.509-32.172h-10.218l25.921,60.376H178.21z"/>
	<path d="M121.361,116.024h23.897l6.84,15.538h10.387l-28.117-60.376h-2.202l-28.115,60.376h10.302L121.361,116.024z
		 M131.157,94.069c0.675-1.604,1.436-3.799,2.195-6.839c0.845,3.04,1.604,5.235,2.28,6.839l6.165,13.766h-16.804L131.157,94.069z"/>
</g>
<g id="Layer_2">
</g>
</svg>
