<?xml version="1.0" encoding="utf-8"?>
<!-- Generator: Adobe Illustrator 17.0.0, SVG Export Plug-In . SVG Version: 6.00 Build 0)  -->
<!DOCTYPE svg PUBLIC "-//W3C//DTD SVG 1.1//EN" "http://www.w3.org/Graphics/SVG/1.1/DTD/svg11.dtd">
<svg version="1.1" id="Layer_1" xmlns="http://www.w3.org/2000/svg" xmlns:xlink="http://www.w3.org/1999/xlink" x="0px" y="0px"
	 width="120px" height="72.284px" viewBox="0 0 120 72.284" enable-background="new 0 0 120 72.284" xml:space="preserve">
<polygon points="15.258,61.927 17.816,61.927 17.816,62.456 15.835,62.456 15.835,63.846 17.816,63.846 17.816,64.383 
	15.835,64.383 15.835,66.777 15.258,66.777 "/>
<g>
	<defs>
		<rect id="SVGID_7_" x="0.651" y="0" width="119.266" height="68.753"/>
	</defs>
	<clipPath id="SVGID_1_">
		<use xlink:href="#SVGID_7_"  overflow="visible"/>
	</clipPath>
	<path clip-path="url(#SVGID_1_)" d="M23.074,66.159c-0.495,0.482-1.16,0.747-1.838,0.747c-0.685,0-1.344-0.272-1.832-0.747
		c-0.495-0.482-0.761-1.106-0.761-1.797c0-0.692,0.265-1.324,0.761-1.804c0.487-0.476,1.146-0.74,1.832-0.74
		c0.684,0,1.35,0.264,1.838,0.74c0.495,0.481,0.753,1.112,0.753,1.804C23.827,65.053,23.561,65.685,23.074,66.159 M22.639,65.773
		c0.38-0.38,0.583-0.868,0.583-1.411c0-0.542-0.204-1.045-0.583-1.424c-0.38-0.38-0.868-0.583-1.404-0.583
		c-0.537,0-1.032,0.204-1.405,0.583c-0.38,0.387-0.583,0.882-0.583,1.424c0,0.542,0.204,1.024,0.583,1.411
		c0.387,0.387,0.868,0.59,1.405,0.59C21.764,66.363,22.252,66.159,22.639,65.773"/>
	<polygon clip-path="url(#SVGID_1_)" points="24.939,61.737 28.487,65.61 28.487,61.927 29.037,61.927 29.037,66.967 25.488,63.135 
		25.488,66.777 24.939,66.777 	"/>
	<path clip-path="url(#SVGID_1_)" d="M30.366,61.927h0.929c0.909,0,1.608,0,2.199,0.454c0.556,0.428,0.848,1.106,0.848,1.973
		c0,0.868-0.292,1.541-0.848,1.968c-0.564,0.435-1.201,0.455-1.988,0.455h-0.21h-0.929V61.927z M31.316,66.234
		c0.827,0,1.404-0.007,1.811-0.345c0.394-0.326,0.611-0.856,0.611-1.54c0-0.685-0.21-1.201-0.611-1.533
		c-0.4-0.34-0.977-0.354-1.811-0.354H30.95v3.772H31.316z"/>
	<path clip-path="url(#SVGID_1_)" d="M39.066,66.777h-0.624l-0.632-1.486h-1.892l-0.631,1.486h-0.624l2.198-5.041L39.066,66.777z
		 M36.088,64.796h1.547l-0.773-1.783L36.088,64.796z"/>
	<polygon clip-path="url(#SVGID_1_)" points="40.208,62.476 38.837,62.476 38.837,61.927 42.155,61.927 42.155,62.476 
		40.791,62.476 40.791,66.778 40.208,66.778 	"/>
	<rect x="42.976" y="61.927" clip-path="url(#SVGID_1_)" width="0.577" height="4.851"/>
	<path clip-path="url(#SVGID_1_)" d="M49.102,66.159c-0.495,0.482-1.16,0.747-1.838,0.747c-0.685,0-1.343-0.272-1.832-0.747
		c-0.495-0.482-0.76-1.106-0.76-1.797c0-0.692,0.264-1.324,0.76-1.804c0.488-0.476,1.146-0.74,1.832-0.74
		c0.685,0,1.35,0.264,1.838,0.74c0.495,0.481,0.753,1.112,0.753,1.804C49.855,65.053,49.59,65.685,49.102,66.159 M48.667,65.773
		c0.38-0.38,0.583-0.868,0.583-1.411c0-0.542-0.204-1.045-0.583-1.424c-0.38-0.38-0.868-0.583-1.404-0.583
		c-0.537,0-1.031,0.204-1.405,0.583c-0.38,0.387-0.583,0.882-0.583,1.424c0,0.542,0.204,1.024,0.583,1.411
		c0.387,0.387,0.868,0.59,1.405,0.59C47.792,66.363,48.28,66.159,48.667,65.773"/>
	<polygon clip-path="url(#SVGID_1_)" points="50.967,61.737 54.515,65.61 54.515,61.927 55.065,61.927 55.065,66.967 51.516,63.135 
		51.516,66.777 50.967,66.777 	"/>
	<path clip-path="url(#SVGID_1_)" d="M59.129,66.778h-0.563v-4.851h0.855h0.162c0.495,0,0.896,0.013,1.222,0.244
		c0.305,0.217,0.495,0.618,0.495,1.092c0,0.475-0.19,0.874-0.495,1.091c-0.326,0.231-0.72,0.245-1.222,0.245H59.42h-0.292V66.778z
		 M59.42,64.077c0.834,0,1.255-0.109,1.255-0.78c0-0.705-0.414-0.841-1.255-0.841h-0.292v1.621H59.42z"/>
	<path clip-path="url(#SVGID_1_)" d="M66.388,66.159c-0.495,0.482-1.16,0.747-1.838,0.747c-0.685,0-1.343-0.272-1.832-0.747
		c-0.495-0.482-0.76-1.106-0.76-1.797c0-0.692,0.264-1.324,0.76-1.804c0.488-0.476,1.146-0.74,1.832-0.74
		c0.684,0,1.35,0.264,1.838,0.74c0.494,0.481,0.753,1.112,0.753,1.804C67.14,65.053,66.875,65.685,66.388,66.159 M65.953,65.773
		c0.38-0.38,0.583-0.868,0.583-1.411c0-0.542-0.204-1.045-0.583-1.424c-0.38-0.38-0.868-0.583-1.404-0.583
		c-0.537,0-1.032,0.204-1.405,0.583c-0.38,0.387-0.583,0.882-0.583,1.424c0,0.542,0.204,1.024,0.583,1.411
		c0.387,0.387,0.868,0.59,1.405,0.59C65.078,66.363,65.566,66.159,65.953,65.773"/>
	<path clip-path="url(#SVGID_1_)" d="M68.816,61.927v3.018c0,0.971,0.394,1.425,1.296,1.425c0.901,0,1.295-0.454,1.295-1.425v-3.018
		h0.583v3.018c0,1.31-0.617,1.962-1.878,1.962c-1.262,0-1.88-0.652-1.88-1.962v-3.018H68.816z"/>
	<path clip-path="url(#SVGID_1_)" d="M73.307,61.926h0.991h0.149c0.461,0,0.815,0.014,1.113,0.244
		c0.278,0.217,0.454,0.604,0.454,1.079c0,0.794-0.454,1.215-1.31,1.215h-0.102l1.852,2.313h-0.732l-1.771-2.313H73.87v2.313h-0.563
		V61.926z M73.87,64.036h0.44c0.761,0,1.134-0.109,1.134-0.78c0-0.706-0.366-0.841-1.134-0.841h-0.44V64.036z"/>
	<polygon clip-path="url(#SVGID_1_)" points="79.277,61.927 79.854,61.927 79.854,66.228 81.685,66.228 81.685,66.777 
		79.277,66.777 	"/>
	<path clip-path="url(#SVGID_1_)" d="M86.278,66.777h-0.625l-0.632-1.486H83.13l-0.631,1.486h-0.624l2.198-5.041L86.278,66.777z
		 M83.299,64.796h1.547l-0.773-1.783L83.299,64.796z"/>
	<polygon clip-path="url(#SVGID_1_)" points="89.121,61.737 92.668,65.61 92.668,61.927 93.217,61.927 93.217,66.967 89.67,63.135 
		89.67,66.777 89.121,66.777 	"/>
	<path clip-path="url(#SVGID_1_)" d="M98.285,66.777h-0.624l-0.632-1.486h-1.892l-0.63,1.486h-0.625l2.198-5.041L98.285,66.777z
		 M95.307,64.796h1.547l-0.773-1.783L95.307,64.796z"/>
	<polygon clip-path="url(#SVGID_1_)" points="99.427,62.476 98.058,62.476 98.058,61.927 101.374,61.927 101.374,62.476 
		100.011,62.476 100.011,66.778 99.427,66.778 	"/>
	<path clip-path="url(#SVGID_1_)" d="M102.751,61.927v3.018c0,0.971,0.395,1.425,1.296,1.425c0.903,0,1.296-0.454,1.296-1.425
		v-3.018h0.583v3.018c0,1.31-0.618,1.962-1.88,1.962c-1.262,0-1.88-0.652-1.88-1.962v-3.018H102.751z"/>
	<path clip-path="url(#SVGID_1_)" d="M107.243,61.926h0.991h0.149c0.461,0,0.813,0.014,1.113,0.244
		c0.278,0.217,0.454,0.604,0.454,1.079c0,0.794-0.454,1.215-1.31,1.215h-0.102l1.852,2.313h-0.732l-1.771-2.313h-0.081v2.313h-0.563
		V61.926z M107.806,64.036h0.44c0.761,0,1.134-0.109,1.134-0.78c0-0.706-0.366-0.841-1.134-0.841h-0.44V64.036z"/>
	<polygon clip-path="url(#SVGID_1_)" points="111.042,61.927 113.598,61.927 113.598,62.456 111.618,62.456 111.618,63.846 
		113.598,63.846 113.598,64.383 111.618,64.383 111.618,66.241 113.598,66.241 113.598,66.777 111.042,66.777 	"/>
	<polygon clip-path="url(#SVGID_1_)" points="15.258,61.927 17.816,61.927 17.816,62.456 15.835,62.456 15.835,63.846 
		17.816,63.846 17.816,64.383 15.835,64.383 15.835,66.777 15.258,66.777 	"/>
	<path clip-path="url(#SVGID_1_)" d="M23.074,66.159c-0.495,0.482-1.16,0.747-1.838,0.747c-0.685,0-1.344-0.272-1.832-0.747
		c-0.495-0.482-0.761-1.106-0.761-1.797c0-0.692,0.265-1.324,0.761-1.804c0.487-0.476,1.146-0.74,1.832-0.74
		c0.684,0,1.35,0.264,1.838,0.74c0.495,0.481,0.753,1.112,0.753,1.804C23.827,65.053,23.561,65.685,23.074,66.159 M22.639,65.773
		c0.38-0.38,0.583-0.868,0.583-1.411c0-0.542-0.204-1.045-0.583-1.424c-0.38-0.38-0.868-0.583-1.404-0.583
		c-0.537,0-1.032,0.204-1.405,0.583c-0.38,0.387-0.583,0.882-0.583,1.424c0,0.542,0.204,1.024,0.583,1.411
		c0.387,0.387,0.868,0.59,1.405,0.59C21.764,66.363,22.252,66.159,22.639,65.773"/>
	<polygon clip-path="url(#SVGID_1_)" points="24.939,61.737 28.487,65.61 28.487,61.927 29.037,61.927 29.037,66.967 25.488,63.135 
		25.488,66.777 24.939,66.777 	"/>
	<path clip-path="url(#SVGID_1_)" d="M30.366,61.927h0.929c0.909,0,1.608,0,2.199,0.454c0.556,0.428,0.848,1.106,0.848,1.973
		c0,0.868-0.292,1.541-0.848,1.968c-0.564,0.435-1.201,0.455-1.988,0.455h-0.21h-0.929V61.927z M31.316,66.234
		c0.827,0,1.404-0.007,1.811-0.345c0.394-0.326,0.611-0.856,0.611-1.54c0-0.685-0.21-1.201-0.611-1.533
		c-0.4-0.34-0.977-0.354-1.811-0.354H30.95v3.772H31.316z"/>
	<path clip-path="url(#SVGID_1_)" d="M39.066,66.777h-0.624l-0.632-1.486h-1.892l-0.631,1.486h-0.624l2.198-5.041L39.066,66.777z
		 M36.088,64.796h1.547l-0.773-1.783L36.088,64.796z"/>
	<polygon clip-path="url(#SVGID_1_)" points="40.208,62.476 38.837,62.476 38.837,61.927 42.155,61.927 42.155,62.476 
		40.791,62.476 40.791,66.778 40.208,66.778 	"/>
	<rect x="42.976" y="61.927" clip-path="url(#SVGID_1_)" width="0.577" height="4.851"/>
	<path clip-path="url(#SVGID_1_)" d="M49.102,66.159c-0.495,0.482-1.16,0.747-1.838,0.747c-0.685,0-1.343-0.272-1.832-0.747
		c-0.495-0.482-0.76-1.106-0.76-1.797c0-0.692,0.264-1.324,0.76-1.804c0.488-0.476,1.146-0.74,1.832-0.74
		c0.685,0,1.35,0.264,1.838,0.74c0.495,0.481,0.753,1.112,0.753,1.804C49.855,65.053,49.59,65.685,49.102,66.159 M48.667,65.773
		c0.38-0.38,0.583-0.868,0.583-1.411c0-0.542-0.204-1.045-0.583-1.424c-0.38-0.38-0.868-0.583-1.404-0.583
		c-0.537,0-1.031,0.204-1.405,0.583c-0.38,0.387-0.583,0.882-0.583,1.424c0,0.542,0.204,1.024,0.583,1.411
		c0.387,0.387,0.868,0.59,1.405,0.59C47.792,66.363,48.28,66.159,48.667,65.773"/>
	<polygon clip-path="url(#SVGID_1_)" points="50.967,61.737 54.515,65.61 54.515,61.927 55.065,61.927 55.065,66.967 51.516,63.135 
		51.516,66.777 50.967,66.777 	"/>
	<path clip-path="url(#SVGID_1_)" d="M59.129,66.778h-0.563v-4.851h0.855h0.162c0.495,0,0.896,0.013,1.222,0.244
		c0.305,0.217,0.495,0.618,0.495,1.092c0,0.475-0.19,0.874-0.495,1.091c-0.326,0.231-0.72,0.245-1.222,0.245H59.42h-0.292V66.778z
		 M59.42,64.077c0.834,0,1.255-0.109,1.255-0.78c0-0.705-0.414-0.841-1.255-0.841h-0.292v1.621H59.42z"/>
	<path clip-path="url(#SVGID_1_)" d="M66.388,66.159c-0.495,0.482-1.16,0.747-1.838,0.747c-0.685,0-1.343-0.272-1.832-0.747
		c-0.495-0.482-0.76-1.106-0.76-1.797c0-0.692,0.264-1.324,0.76-1.804c0.488-0.476,1.146-0.74,1.832-0.74
		c0.684,0,1.35,0.264,1.838,0.74c0.494,0.481,0.753,1.112,0.753,1.804C67.14,65.053,66.875,65.685,66.388,66.159 M65.953,65.773
		c0.38-0.38,0.583-0.868,0.583-1.411c0-0.542-0.204-1.045-0.583-1.424c-0.38-0.38-0.868-0.583-1.404-0.583
		c-0.537,0-1.032,0.204-1.405,0.583c-0.38,0.387-0.583,0.882-0.583,1.424c0,0.542,0.204,1.024,0.583,1.411
		c0.387,0.387,0.868,0.59,1.405,0.59C65.078,66.363,65.566,66.159,65.953,65.773"/>
	<path clip-path="url(#SVGID_1_)" d="M68.816,61.927v3.018c0,0.971,0.394,1.425,1.296,1.425c0.901,0,1.295-0.454,1.295-1.425v-3.018
		h0.583v3.018c0,1.31-0.617,1.962-1.878,1.962c-1.262,0-1.88-0.652-1.88-1.962v-3.018H68.816z"/>
	<path clip-path="url(#SVGID_1_)" d="M73.307,61.926h0.991h0.149c0.461,0,0.815,0.014,1.113,0.244
		c0.278,0.217,0.454,0.604,0.454,1.079c0,0.794-0.454,1.215-1.31,1.215h-0.102l1.852,2.313h-0.732l-1.771-2.313H73.87v2.313h-0.563
		V61.926z M73.87,64.036h0.44c0.761,0,1.134-0.109,1.134-0.78c0-0.706-0.366-0.841-1.134-0.841h-0.44V64.036z"/>
	<polygon clip-path="url(#SVGID_1_)" points="79.277,61.927 79.854,61.927 79.854,66.228 81.685,66.228 81.685,66.777 
		79.277,66.777 	"/>
	<path clip-path="url(#SVGID_1_)" d="M86.278,66.777h-0.625l-0.632-1.486H83.13l-0.631,1.486h-0.624l2.198-5.041L86.278,66.777z
		 M83.299,64.796h1.547l-0.773-1.783L83.299,64.796z"/>
	<polygon clip-path="url(#SVGID_1_)" points="89.121,61.737 92.668,65.61 92.668,61.927 93.217,61.927 93.217,66.967 89.67,63.135 
		89.67,66.777 89.121,66.777 	"/>
	<path clip-path="url(#SVGID_1_)" d="M98.285,66.777h-0.624l-0.632-1.486h-1.892l-0.63,1.486h-0.625l2.198-5.041L98.285,66.777z
		 M95.307,64.796h1.547l-0.773-1.783L95.307,64.796z"/>
	<polygon clip-path="url(#SVGID_1_)" points="99.427,62.476 98.058,62.476 98.058,61.927 101.374,61.927 101.374,62.476 
		100.011,62.476 100.011,66.778 99.427,66.778 	"/>
	<path clip-path="url(#SVGID_1_)" d="M102.751,61.927v3.018c0,0.971,0.395,1.425,1.296,1.425c0.903,0,1.296-0.454,1.296-1.425
		v-3.018h0.583v3.018c0,1.31-0.618,1.962-1.88,1.962c-1.262,0-1.88-0.652-1.88-1.962v-3.018H102.751z"/>
	<path clip-path="url(#SVGID_1_)" d="M107.243,61.926h0.991h0.149c0.461,0,0.813,0.014,1.113,0.244
		c0.278,0.217,0.454,0.604,0.454,1.079c0,0.794-0.454,1.215-1.31,1.215h-0.102l1.852,2.313h-0.732l-1.771-2.313h-0.081v2.313h-0.563
		V61.926z M107.806,64.036h0.44c0.761,0,1.134-0.109,1.134-0.78c0-0.706-0.366-0.841-1.134-0.841h-0.44V64.036z"/>
	<polygon clip-path="url(#SVGID_1_)" points="111.042,61.927 113.598,61.927 113.598,62.456 111.618,62.456 111.618,63.846 
		113.598,63.846 113.598,64.383 111.618,64.383 111.618,66.241 113.598,66.241 113.598,66.777 111.042,66.777 	"/>
	<path clip-path="url(#SVGID_1_)" d="M34.13,19.836c-6.554,0-12.357,1.064-17.68,3.24c2.616,5.23,8.025,8.824,14.273,8.824
		c7.117,0,13.144-4.663,15.196-11.1C41.542,20.146,37.719,19.836,34.13,19.836"/>
	<path clip-path="url(#SVGID_1_)" d="M30.723,0c-8.809,0-15.95,7.141-15.95,15.95c0,1.482,0.207,2.914,0.585,4.275
		c9.811-4.212,20.672-4.963,31.237-5.841C45.809,6.311,39.003,0,30.723,0"/>
</g>
<g>
	<defs>
		<rect id="SVGID_9_" x="0.651" y="0" width="119.266" height="66.967"/>
	</defs>
	<clipPath id="SVGID_2_">
		<use xlink:href="#SVGID_9_"  overflow="visible"/>
	</clipPath>
	<path clip-path="url(#SVGID_2_)" fill="none" stroke="#FFFFFF" stroke-width="0.791" d="M119.659,14.169
		c-22.431,15.587-44.557,3.313-67.33-0.88c-12.806-2.357-25.815-2.159-39.197,6.984"/>
	<path clip-path="url(#SVGID_2_)" d="M119.659,14.169c-22.431,15.587-44.557,3.313-67.33-0.88
		c-12.806-2.357-25.815-2.159-39.197,6.984C9.058,23.057,4.948,26.669,0.8,31.292c-0.277,0.309-0.134,0.458,0.168,0.185
		c4.598-4.146,8.558-7.251,13.067-9.328c11.866-5.473,24.406-4.665,36.921-2.337c24.896,4.633,49.683,15.284,68.83-5.524
		C119.96,14.097,119.875,14.018,119.659,14.169"/>
</g>
<g>
	<defs>
		<rect id="SVGID_11_" x="0.651" y="0" width="119.266" height="68.753"/>
	</defs>
	<clipPath id="SVGID_3_">
		<use xlink:href="#SVGID_11_"  overflow="visible"/>
	</clipPath>
	<path clip-path="url(#SVGID_3_)" d="M92.102,59.501l3.17-7.026h10.809l3.092,7.026h4.698l-12.717-27.305h-0.995L87.444,59.501
		H92.102z M99.703,42.544c0.304-0.725,0.649-1.718,0.994-3.093c0.38,1.375,0.724,2.368,1.03,3.093l2.788,6.226h-7.6L99.703,42.544z"
		/>
	<path clip-path="url(#SVGID_3_)" d="M21.684,46.058c0.268-1.222,0.459-2.482,0.496-3.781c0.343,1.222,0.802,2.368,1.336,3.476
		l6.609,13.749h1.076l6.599-13.443c0.611-1.26,1.031-2.482,1.26-3.781c0.268,2.024,0.382,3.247,0.496,3.742l3.017,13.482h4.125
		l-6.358-27.306h-0.74l-7.375,16.078c-0.421,0.955-1.032,2.177-1.566,3.704c-0.764-1.985-1.261-3.208-1.489-3.704l-7.556-16.078
		h-0.745l-6.211,27.306h4.085L21.684,46.058z"/>
	<path clip-path="url(#SVGID_3_)" d="M81.249,59.501l11.724-27.306H88.39l-6.11,14.551c-0.65,1.527-1.146,2.979-1.489,4.392
		c-0.305-1.452-0.803-2.865-1.452-4.392l-6.11-14.551h-4.621l11.723,27.306H81.249z"/>
	<path clip-path="url(#SVGID_3_)" d="M55.539,52.474h10.809l3.093,7.026h4.697L61.421,32.195h-0.995L47.71,59.501h4.66
		L55.539,52.474z M59.969,42.544c0.305-0.725,0.649-1.718,0.993-3.093c0.382,1.375,0.725,2.368,1.031,3.093l2.788,6.226h-7.6
		L59.969,42.544z"/>
</g>
</svg>
