<?xml version="1.0" encoding="utf-8"?>
<!-- Generator: Adobe Illustrator 17.0.0, SVG Export Plug-In . SVG Version: 6.00 Build 0)  -->
<!DOCTYPE svg PUBLIC "-//W3C//DTD SVG 1.1//EN" "http://www.w3.org/Graphics/SVG/1.1/DTD/svg11.dtd">
<svg version="1.1" id="Layer_1" xmlns="http://www.w3.org/2000/svg" xmlns:xlink="http://www.w3.org/1999/xlink" x="0px" y="0px"
	 width="150.753px" height="75.009px" viewBox="0 0 150.753 75.009" enable-background="new 0 0 150.753 75.009"
	 xml:space="preserve">
<rect x="0" y="0" fill="#FFFFFF" width="150.753" height="75.009"/>
<g>
	<path d="M26.778,52.973c-0.303,0-0.556,0.192-0.652,0.452l-1.331,3.367l-0.117,0.384l-0.106-0.39l-1.029-3.274
		c0-0.014-0.009-0.025-0.012-0.031v-0.008l0,0c-0.097-0.274-0.356-0.469-0.657-0.469l0,0h-1.661l0,0
		c-0.375,0.02-0.671,0.323-0.671,0.701c0,0.101,0.048,0.233,0.08,0.358l0.216,0.685l-0.814,2.048l-0.127,0.379l-0.107-0.384
		l-1.024-3.28c-0.01-0.014-0.01-0.025-0.013-0.031v-0.008c-0.096-0.274-0.362-0.469-0.658-0.469l0,0h-1.661l0,0
		c-0.368,0.02-0.671,0.323-0.671,0.701c0,0.101,0.042,0.233,0.083,0.358l2.486,7.411c0.076,0.303,0.354,0.527,0.676,0.527
		c0.316,0,0.579-0.203,0.667-0.489l1.742-4.395l0.127-0.391l0.104,0.388l1.467,4.36c0.075,0.303,0.347,0.527,0.677,0.527
		c0.32,0,0.583-0.212,0.675-0.509l2.945-7.509c0.043-0.093,0.071-0.196,0.071-0.302C27.482,53.29,27.165,52.973,26.778,52.973
		L26.778,52.973z"/>
	<path d="M39.17,52.973c-0.302,0-0.56,0.192-0.658,0.452l-1.324,3.367l-0.127,0.384l-0.098-0.39l-1.035-3.274
		c0-0.014,0-0.025-0.004-0.031v-0.008l0,0c-0.1-0.274-0.361-0.469-0.665-0.469l0,0h-1.661l0,0c-0.371,0.02-0.665,0.323-0.665,0.701
		c0,0.101,0.038,0.233,0.08,0.358l0.217,0.685l-0.816,2.048l-0.132,0.379l-0.101-0.384l-1.023-3.28
		c-0.013-0.014-0.013-0.025-0.019-0.031v-0.008c-0.092-0.274-0.353-0.469-0.651-0.469l0,0h-1.665l0,0
		c-0.378,0.02-0.672,0.323-0.672,0.701c0,0.101,0.048,0.233,0.08,0.358l2.495,7.411c0.074,0.303,0.348,0.527,0.675,0.527
		c0.309,0,0.573-0.203,0.666-0.489l1.74-4.395l0.12-0.391l0.111,0.388l1.463,4.36c0.077,0.303,0.351,0.527,0.679,0.527
		c0.318,0,0.59-0.212,0.676-0.509l2.947-7.509c0.045-0.093,0.07-0.196,0.07-0.302C39.873,53.29,39.557,52.973,39.17,52.973
		L39.17,52.973z"/>
	<path d="M47.219,52.989c-0.01,0-5.811,0-5.811,0l0,0c-0.337,0-0.605,0.271-0.605,0.608l0,0V53.6c0,0,0,0.599,0,1.469
		c0,2.096,0,6.245,0,6.245c0,0.005,0-0.002,0,0h0.001c0.017,0.348,0.304,0.632,0.651,0.632l0,0c1.042,0,1.646,0,1.646,0l0,0
		c0.357-0.011,0.637-0.292,0.645-0.651c0,0.062,0-3.603,0-3.603s2.356-0.007,2.366-0.007c0.348-0.002,0.627-0.285,0.627-0.639
		c0-0.346-0.285-0.634-0.639-0.634c-0.01,0-2.352,0-2.352,0l-0.003-2.061c0,0,3.49,0,3.505,0c0.361-0.018,0.65-0.314,0.65-0.683
		C47.9,53.292,47.593,52.989,47.219,52.989L47.219,52.989z"/>
	<path d="M38.208,28.396c1.058,1.185,1.17,4.708,3.825,3.306c1.599-0.842,1.577-4.397-0.555-5.679
		c-1.723-1.02-2.667,0.356-3.291,2.042C38.14,28.197,38.136,28.329,38.208,28.396L38.208,28.396z"/>
	<path d="M34.083,27.834c-1.112,0.92-1.876,3.444-3.919,2.587c-1.649-0.84-1.808-4.111,1.037-5.622
		c1.983-0.912,2.989,0.894,3.002,2.81C34.203,27.677,34.137,27.778,34.083,27.834L34.083,27.834z"/>
	<path d="M36.821,34.272c1.097-0.113,0.85-1.13,0.018-1.386c-0.74-0.221-1.869-0.366-2.664-0.351
		c-1.412,0.033-1.377,1.11-0.642,1.292c0.554,0.186,0.912,0.258,1.393,0.876C35.364,35.553,35.168,34.449,36.821,34.272
		L36.821,34.272z"/>
	<path d="M41.997,16.067c1.379-2.294,3.775-1.85,4.976-0.706c1.323,1.243,1.535,2.677,1.027,3.687
		c-0.69,1.353-2.451,2.997-3.6,1.406c-0.508-0.702-1.585-1.542-2.172-1.785C41.326,18.289,41.154,17.474,41.997,16.067
		L41.997,16.067z"/>
	<path d="M47.482,26.182c-0.124-0.406-0.327-0.384-0.317-0.048c0.111,4.182-2.385,8.66-7.729,8.69
		c-1.365,0.003-0.957,2.192-3.447,1.092c-1.798-1.212-2.827,1.174-4.104-1.394c-0.279-0.74-0.701-1.036-1.246-1.172
		c-5.275-1.307-6.958-8.568-2.308-14.431c0.919,0.549,1.255,0.633,2.236-0.266c0.513-0.474,1.372-0.995,1.84-1.167
		c1.117-0.428,1.723-0.905,0.755-3.037c-1.24-2.769-3.782-1.986-4.943-1.03c-1.31,1.083-2.231,2.824-0.541,4.877
		c-4.728,3.189-5.537,7.105-5.428,10.508c0.11,3.621-0.815,3.312,0.341,6.998c0.101,0.322-0.125,0.315-0.299,0.211
		c-4.925-3.154-7.589-12.772,0.089-18.075c0.173-0.154,0.102-0.357-0.53,0.013c-6.647,3.515-7.258,10.322-6.153,14.908
		c0.538,2.221-0.281,2.63,0.581,5.549c1.977,6.082,3.664,6.561,6.045,6.737c4.336,0,1.397-2.391,1.556-5.395
		c0-0.175,0.214-0.26,0.336,0.102c2.386,5.351,4.072,10.221,10.343,9.766c3.631-0.473,1.616-2.276,1.395-3.298
		c-2.669-8.862,3.81-10.951,1.976-2.311c-1.212,4.95,2.617,4.453,5.312,2.677C46.017,44.86,49.494,32.812,47.482,26.182
		L47.482,26.182 M36.916,36.663c-0.601,1.589-3.718,1.044-3.815-0.494c0-0.061,0.084-0.048,0.119-0.04
		c1.387,0.325,2.708,0.479,3.602,0.475C36.855,36.604,36.93,36.585,36.916,36.663L36.916,36.663z"/>
	<path d="M23,47.402c0,0.642-0.524,1.162-1.162,1.162c-0.642,0-1.159-0.52-1.159-1.162c0-0.636,0.518-1.157,1.159-1.157
		C22.476,46.246,23,46.767,23,47.402 M21.838,46.013c-0.768,0-1.393,0.626-1.393,1.389c0,0.77,0.626,1.395,1.393,1.395
		c0.769,0,1.386-0.625,1.386-1.395C23.224,46.639,22.607,46.013,21.838,46.013z"/>
	<path d="M22.233,47.62c-0.026,0.168-0.169,0.286-0.361,0.286c-0.267,0-0.438-0.236-0.438-0.505c0-0.282,0.155-0.494,0.435-0.494
		c0.189,0,0.327,0.109,0.364,0.274h0.195c-0.034-0.306-0.274-0.478-0.565-0.478c-0.415,0-0.652,0.302-0.652,0.698
		c0,0.397,0.258,0.701,0.66,0.701c0.282,0,0.51-0.183,0.566-0.481H22.233z"/>
	<path d="M47.449,50.723c0,0.644-0.522,1.162-1.161,1.162c-0.646,0-1.166-0.519-1.166-1.162c0-0.64,0.521-1.155,1.166-1.155
		C46.927,49.567,47.449,50.083,47.449,50.723 M46.288,49.331c-0.775,0-1.39,0.623-1.39,1.391c0,0.775,0.614,1.391,1.39,1.391
		c0.765,0,1.39-0.616,1.39-1.391C47.678,49.954,47.053,49.331,46.288,49.331z"/>
	<path d="M46.048,50.817h0.227l0.351,0.566h0.217l-0.374-0.581c0.194-0.024,0.342-0.126,0.342-0.357
		c0-0.262-0.152-0.373-0.459-0.373h-0.508v1.311h0.205V50.817 M46.048,50.645v-0.409h0.269c0.137,0,0.286,0.036,0.286,0.195
		c0,0.204-0.149,0.214-0.323,0.214H46.048z"/>
</g>
<polygon fill="#231F20" points="55.494,65.698 54.994,65.698 54.994,9.211 55.494,9.211 55.494,65.698 "/>
<path fill="#231F20" d="M4.672,70.7h141.409V4.209H4.672V70.7z M144.718,5.541v63.826H5.933V5.541H144.718z"/>
<rect x="60.306" y="19.831" fill="none" width="78.065" height="46.038"/>
<text transform="matrix(1 0 0 1 62.1344 24.2676)"><tspan x="0" y="0" fill="#231F20" font-family="'Arial-BoldMT'" font-size="6.2">DELIVERING RESEARCH </tspan><tspan x="4.827" y="8" fill="#231F20" font-family="'Arial-BoldMT'" font-size="6.2">THAT ACCELERATES </tspan><tspan x="-1.719" y="16" fill="#231F20" font-family="'Arial-BoldMT'" font-size="6.2">GLOBAL CONSERVATION </tspan><tspan x="7.239" y="24" fill="#231F20" font-family="'Arial-BoldMT'" font-size="6.2">THROUGH THE LUC </tspan><tspan x="2.591" y="32" fill="#231F20" font-family="'Arial-BoldMT'" font-size="6.2">HOFFMANN INSTITUTE</tspan></text>
</svg>
