<?xml version="1.0" encoding="utf-8"?>
<!-- Generator: Adobe Illustrator 17.0.0, SVG Export Plug-In . SVG Version: 6.00 Build 0)  -->
<!DOCTYPE svg PUBLIC "-//W3C//DTD SVG 1.1//EN" "http://www.w3.org/Graphics/SVG/1.1/DTD/svg11.dtd">
<svg version="1.1" id="Layer_1" xmlns="http://www.w3.org/2000/svg" xmlns:xlink="http://www.w3.org/1999/xlink" x="0px" y="0px"
	 width="150.753px" height="75.009px" viewBox="0 0 150.753 75.009" enable-background="new 0 0 150.753 75.009"
	 xml:space="preserve">
<rect x="0" y="0" fill="#FFFFFF" width="150.753" height="75.009"/>
<g>
	<path d="M26.778,52.973c-0.303,0-0.556,0.192-0.652,0.452l-1.331,3.367l-0.117,0.384l-0.106-0.39l-1.029-3.274
		c0-0.014-0.009-0.025-0.012-0.031v-0.008l0,0c-0.097-0.274-0.356-0.469-0.657-0.469l0,0h-1.661l0,0
		c-0.375,0.02-0.671,0.323-0.671,0.701c0,0.101,0.048,0.233,0.08,0.358l0.216,0.685l-0.814,2.048l-0.127,0.379l-0.107-0.384
		l-1.024-3.28c-0.01-0.014-0.01-0.025-0.013-0.031v-0.008c-0.096-0.274-0.362-0.469-0.658-0.469l0,0h-1.661l0,0
		c-0.368,0.02-0.671,0.323-0.671,0.701c0,0.101,0.042,0.233,0.083,0.358l2.486,7.411c0.076,0.303,0.354,0.527,0.676,0.527
		c0.316,0,0.579-0.203,0.667-0.489l1.742-4.395l0.127-0.391l0.104,0.388l1.467,4.36c0.075,0.303,0.347,0.527,0.677,0.527
		c0.32,0,0.583-0.212,0.675-0.509l2.945-7.509c0.043-0.093,0.071-0.196,0.071-0.302C27.482,53.29,27.165,52.973,26.778,52.973
		L26.778,52.973z"/>
	<path d="M39.17,52.973c-0.302,0-0.56,0.192-0.658,0.452l-1.324,3.367l-0.127,0.384l-0.098-0.39l-1.035-3.274
		c0-0.014,0-0.025-0.004-0.031v-0.008l0,0c-0.1-0.274-0.361-0.469-0.665-0.469l0,0h-1.661l0,0c-0.371,0.02-0.665,0.323-0.665,0.701
		c0,0.101,0.038,0.233,0.08,0.358l0.217,0.685l-0.816,2.048l-0.132,0.379l-0.101-0.384l-1.023-3.28
		c-0.013-0.014-0.013-0.025-0.019-0.031v-0.008c-0.092-0.274-0.353-0.469-0.651-0.469l0,0h-1.665l0,0
		c-0.378,0.02-0.672,0.323-0.672,0.701c0,0.101,0.048,0.233,0.08,0.358l2.495,7.411c0.074,0.303,0.348,0.527,0.675,0.527
		c0.309,0,0.573-0.203,0.666-0.489l1.74-4.395l0.12-0.391l0.111,0.388l1.463,4.36c0.077,0.303,0.351,0.527,0.679,0.527
		c0.318,0,0.59-0.212,0.676-0.509l2.947-7.509c0.045-0.093,0.07-0.196,0.07-0.302C39.873,53.29,39.557,52.973,39.17,52.973
		L39.17,52.973z"/>
	<path d="M47.219,52.989c-0.01,0-5.811,0-5.811,0l0,0c-0.337,0-0.605,0.271-0.605,0.608l0,0V53.6c0,0,0,0.599,0,1.469
		c0,2.096,0,6.245,0,6.245c0,0.005,0-0.002,0,0h0.001c0.017,0.348,0.304,0.632,0.651,0.632l0,0c1.042,0,1.646,0,1.646,0l0,0
		c0.357-0.011,0.637-0.292,0.645-0.651c0,0.062,0-3.603,0-3.603s2.356-0.007,2.366-0.007c0.348-0.002,0.627-0.285,0.627-0.639
		c0-0.346-0.285-0.634-0.639-0.634c-0.01,0-2.352,0-2.352,0l-0.003-2.061c0,0,3.49,0,3.505,0c0.361-0.018,0.65-0.314,0.65-0.683
		C47.9,53.292,47.593,52.989,47.219,52.989L47.219,52.989z"/>
	<path d="M38.208,28.396c1.058,1.185,1.17,4.708,3.825,3.306c1.599-0.842,1.577-4.397-0.555-5.679
		c-1.723-1.02-2.667,0.356-3.291,2.042C38.14,28.197,38.136,28.329,38.208,28.396L38.208,28.396z"/>
	<path d="M34.083,27.834c-1.112,0.92-1.876,3.444-3.919,2.587c-1.649-0.84-1.808-4.111,1.037-5.622
		c1.983-0.912,2.989,0.894,3.002,2.81C34.203,27.677,34.137,27.778,34.083,27.834L34.083,27.834z"/>
	<path d="M36.821,34.272c1.097-0.113,0.85-1.13,0.018-1.386c-0.74-0.221-1.869-0.366-2.664-0.351
		c-1.412,0.033-1.377,1.11-0.642,1.292c0.554,0.186,0.912,0.258,1.393,0.876C35.364,35.553,35.168,34.449,36.821,34.272
		L36.821,34.272z"/>
	<path d="M41.997,16.067c1.379-2.294,3.775-1.85,4.976-0.706c1.323,1.243,1.535,2.677,1.027,3.687
		c-0.69,1.353-2.451,2.997-3.6,1.406c-0.508-0.702-1.585-1.542-2.172-1.785C41.326,18.289,41.154,17.474,41.997,16.067
		L41.997,16.067z"/>
	<path d="M47.482,26.182c-0.124-0.406-0.327-0.384-0.317-0.048c0.111,4.182-2.385,8.66-7.729,8.69
		c-1.365,0.003-0.957,2.192-3.447,1.092c-1.798-1.212-2.827,1.174-4.104-1.394c-0.279-0.74-0.701-1.036-1.246-1.172
		c-5.275-1.307-6.958-8.568-2.308-14.431c0.919,0.549,1.255,0.633,2.236-0.266c0.513-0.474,1.372-0.995,1.84-1.167
		c1.117-0.428,1.723-0.905,0.755-3.037c-1.24-2.769-3.782-1.986-4.943-1.03c-1.31,1.083-2.231,2.824-0.541,4.877
		c-4.728,3.189-5.537,7.105-5.428,10.508c0.11,3.621-0.815,3.312,0.341,6.998c0.101,0.322-0.125,0.315-0.299,0.211
		c-4.925-3.154-7.589-12.772,0.089-18.075c0.173-0.154,0.102-0.357-0.53,0.013c-6.647,3.515-7.258,10.322-6.153,14.908
		c0.538,2.221-0.281,2.63,0.581,5.549c1.977,6.082,3.664,6.561,6.045,6.737c4.336,0,1.397-2.391,1.556-5.395
		c0-0.175,0.214-0.26,0.336,0.102c2.386,5.351,4.072,10.221,10.343,9.766c3.631-0.473,1.616-2.276,1.395-3.298
		c-2.669-8.862,3.81-10.951,1.976-2.311c-1.212,4.95,2.617,4.453,5.312,2.677C46.017,44.86,49.494,32.812,47.482,26.182
		L47.482,26.182 M36.916,36.663c-0.601,1.589-3.718,1.044-3.815-0.494c0-0.061,0.084-0.048,0.119-0.04
		c1.387,0.325,2.708,0.479,3.602,0.475C36.855,36.604,36.93,36.585,36.916,36.663L36.916,36.663z"/>
	<path d="M23,47.402c0,0.642-0.524,1.162-1.162,1.162c-0.642,0-1.159-0.52-1.159-1.162c0-0.636,0.518-1.157,1.159-1.157
		C22.476,46.246,23,46.767,23,47.402 M21.838,46.013c-0.768,0-1.393,0.626-1.393,1.389c0,0.77,0.626,1.395,1.393,1.395
		c0.769,0,1.386-0.625,1.386-1.395C23.224,46.639,22.607,46.013,21.838,46.013z"/>
	<path d="M22.233,47.62c-0.026,0.168-0.169,0.286-0.361,0.286c-0.267,0-0.438-0.236-0.438-0.505c0-0.282,0.155-0.494,0.435-0.494
		c0.189,0,0.327,0.109,0.364,0.274h0.195c-0.034-0.306-0.274-0.478-0.565-0.478c-0.415,0-0.652,0.302-0.652,0.698
		c0,0.397,0.258,0.701,0.66,0.701c0.282,0,0.51-0.183,0.566-0.481H22.233z"/>
	<path d="M47.449,50.723c0,0.644-0.522,1.162-1.161,1.162c-0.646,0-1.166-0.519-1.166-1.162c0-0.64,0.521-1.155,1.166-1.155
		C46.927,49.567,47.449,50.083,47.449,50.723 M46.288,49.331c-0.775,0-1.39,0.623-1.39,1.391c0,0.775,0.614,1.391,1.39,1.391
		c0.765,0,1.39-0.616,1.39-1.391C47.678,49.954,47.053,49.331,46.288,49.331z"/>
	<path d="M46.048,50.817h0.227l0.351,0.566h0.217l-0.374-0.581c0.194-0.024,0.342-0.126,0.342-0.357
		c0-0.262-0.152-0.373-0.459-0.373h-0.508v1.311h0.205V50.817 M46.048,50.645v-0.409h0.269c0.137,0,0.286,0.036,0.286,0.195
		c0,0.204-0.149,0.214-0.323,0.214H46.048z"/>
</g>
<polygon fill="#231F20" points="55.494,65.698 54.994,65.698 54.994,9.211 55.494,9.211 55.494,65.698 "/>
<path fill="#231F20" d="M4.672,70.7h141.409V4.209H4.672V70.7z M144.718,5.541v63.826H5.933V5.541H144.718z"/>
<g>
	<path fill="#231F20" d="M62.583,19.83h1.638c0.369,0,0.65,0.028,0.845,0.084c0.26,0.077,0.483,0.213,0.669,0.409
		c0.186,0.196,0.327,0.436,0.424,0.719s0.146,0.633,0.146,1.049c0,0.365-0.046,0.68-0.137,0.945c-0.11,0.323-0.27,0.584-0.476,0.784
		c-0.155,0.151-0.365,0.27-0.629,0.354c-0.198,0.062-0.463,0.094-0.793,0.094h-1.687V19.83z M63.478,20.58v2.94h0.67
		c0.25,0,0.431-0.014,0.541-0.042c0.146-0.037,0.267-0.098,0.362-0.185c0.096-0.087,0.174-0.23,0.234-0.429s0.091-0.47,0.091-0.812
		c0-0.343-0.03-0.606-0.091-0.791c-0.061-0.184-0.146-0.327-0.254-0.43c-0.109-0.103-0.247-0.172-0.415-0.209
		c-0.125-0.028-0.37-0.042-0.735-0.042H63.478z"/>
	<path fill="#231F20" d="M67.063,24.268V19.83h3.291v0.75H67.96v0.984h2.228v0.748H67.96v1.208h2.479v0.748H67.063z"/>
	<path fill="#231F20" d="M71.224,24.268v-4.402h0.896v3.654h2.229v0.748H71.224z"/>
	<path fill="#231F20" d="M74.959,24.268V19.83h0.896v4.438H74.959z"/>
	<path fill="#231F20" d="M77.841,24.268l-1.586-4.438h0.972l1.123,3.285l1.087-3.285h0.95l-1.589,4.438H77.841z"/>
	<path fill="#231F20" d="M80.845,24.268V19.83h3.291v0.75h-2.395v0.984h2.228v0.748h-2.228v1.208h2.479v0.748H80.845z"/>
	<path fill="#231F20" d="M84.983,24.268V19.83h1.886c0.475,0,0.819,0.04,1.034,0.12c0.215,0.08,0.387,0.221,0.516,0.425
		c0.13,0.204,0.194,0.437,0.194,0.699c0,0.333-0.098,0.608-0.294,0.825c-0.195,0.217-0.488,0.354-0.878,0.411
		c0.194,0.113,0.354,0.237,0.48,0.372c0.126,0.135,0.296,0.375,0.51,0.721l0.542,0.866h-1.072l-0.647-0.966
		c-0.23-0.345-0.388-0.562-0.473-0.652c-0.084-0.09-0.174-0.151-0.27-0.185c-0.095-0.033-0.245-0.05-0.45-0.05H85.88v1.853H84.983z
		 M85.88,21.707h0.663c0.43,0,0.698-0.018,0.805-0.055c0.107-0.036,0.19-0.099,0.251-0.188s0.091-0.2,0.091-0.333
		c0-0.149-0.039-0.27-0.119-0.362s-0.192-0.15-0.338-0.174c-0.072-0.01-0.29-0.015-0.653-0.015H85.88V21.707z"/>
	<path fill="#231F20" d="M89.431,24.268V19.83h0.896v4.438H89.431z"/>
	<path fill="#231F20" d="M91.189,24.268V19.83h0.872l1.816,2.964V19.83h0.832v4.438h-0.898l-1.789-2.894v2.894H91.189z"/>
	<path fill="#231F20" d="M97.723,22.636v-0.748h1.932v1.768c-0.188,0.182-0.46,0.341-0.816,0.479
		c-0.355,0.138-0.717,0.208-1.082,0.208c-0.464,0-0.869-0.097-1.214-0.292s-0.604-0.474-0.778-0.835
		c-0.173-0.362-0.26-0.756-0.26-1.183c0-0.462,0.097-0.873,0.29-1.232c0.194-0.359,0.478-0.635,0.851-0.827
		c0.285-0.147,0.64-0.221,1.063-0.221c0.551,0,0.98,0.115,1.291,0.347c0.31,0.231,0.509,0.55,0.598,0.958l-0.89,0.167
		c-0.062-0.218-0.181-0.39-0.354-0.516c-0.172-0.126-0.388-0.189-0.646-0.189c-0.392,0-0.703,0.125-0.935,0.373
		c-0.23,0.248-0.347,0.617-0.347,1.105c0,0.527,0.117,0.922,0.352,1.185c0.234,0.264,0.541,0.395,0.92,0.395
		c0.188,0,0.376-0.037,0.564-0.11c0.189-0.074,0.352-0.163,0.486-0.268v-0.563H97.723z"/>
	<path fill="#231F20" d="M102.206,24.268V19.83h1.886c0.475,0,0.819,0.04,1.034,0.12c0.215,0.08,0.387,0.221,0.516,0.425
		c0.13,0.204,0.194,0.437,0.194,0.699c0,0.333-0.098,0.608-0.294,0.825c-0.195,0.217-0.488,0.354-0.878,0.411
		c0.194,0.113,0.354,0.237,0.48,0.372c0.126,0.135,0.296,0.375,0.51,0.721l0.542,0.866h-1.072l-0.647-0.966
		c-0.23-0.345-0.388-0.562-0.473-0.652c-0.084-0.09-0.174-0.151-0.27-0.185c-0.095-0.033-0.245-0.05-0.45-0.05h-0.182v1.853H102.206
		z M103.103,21.707h0.663c0.43,0,0.698-0.018,0.805-0.055c0.107-0.036,0.19-0.099,0.251-0.188s0.091-0.2,0.091-0.333
		c0-0.149-0.039-0.27-0.119-0.362s-0.192-0.15-0.338-0.174c-0.072-0.01-0.29-0.015-0.653-0.015h-0.699V21.707z"/>
	<path fill="#231F20" d="M106.681,24.268V19.83h3.291v0.75h-2.395v0.984h2.228v0.748h-2.228v1.208h2.479v0.748H106.681z"/>
	<path fill="#231F20" d="M110.589,22.824l0.872-0.085c0.053,0.292,0.159,0.508,0.319,0.645c0.161,0.137,0.377,0.206,0.649,0.206
		c0.289,0,0.506-0.061,0.652-0.183s0.22-0.265,0.22-0.428c0-0.105-0.031-0.194-0.093-0.268s-0.169-0.138-0.322-0.192
		c-0.104-0.036-0.344-0.101-0.717-0.193c-0.48-0.119-0.817-0.266-1.012-0.439c-0.272-0.244-0.408-0.542-0.408-0.893
		c0-0.226,0.063-0.438,0.192-0.634c0.128-0.197,0.312-0.347,0.554-0.45s0.532-0.154,0.873-0.154c0.558,0,0.977,0.122,1.258,0.366
		c0.282,0.244,0.43,0.57,0.443,0.978l-0.896,0.039c-0.038-0.228-0.121-0.392-0.247-0.492c-0.126-0.1-0.315-0.15-0.567-0.15
		c-0.261,0-0.464,0.053-0.611,0.16c-0.095,0.069-0.143,0.161-0.143,0.276c0,0.105,0.044,0.195,0.133,0.269
		c0.113,0.095,0.388,0.194,0.824,0.297c0.436,0.103,0.758,0.209,0.967,0.319s0.372,0.26,0.49,0.451s0.178,0.426,0.178,0.707
		c0,0.254-0.071,0.492-0.212,0.714c-0.142,0.222-0.342,0.387-0.6,0.495c-0.259,0.108-0.58,0.162-0.966,0.162
		c-0.562,0-0.992-0.129-1.293-0.389C110.827,23.698,110.647,23.32,110.589,22.824z"/>
	<path fill="#231F20" d="M114.952,24.268V19.83h3.291v0.75h-2.395v0.984h2.228v0.748h-2.228v1.208h2.479v0.748H114.952z"/>
	<path fill="#231F20" d="M123.09,24.268h-0.975l-0.388-1.008h-1.774l-0.366,1.008h-0.95l1.729-4.438h0.947L123.09,24.268z
		 M121.44,22.512l-0.612-1.647l-0.599,1.647H121.44z"/>
	<path fill="#231F20" d="M123.568,24.268V19.83h1.886c0.475,0,0.819,0.04,1.034,0.12c0.215,0.08,0.387,0.221,0.516,0.425
		c0.13,0.204,0.194,0.437,0.194,0.699c0,0.333-0.098,0.608-0.294,0.825c-0.195,0.217-0.488,0.354-0.878,0.411
		c0.194,0.113,0.354,0.237,0.48,0.372c0.126,0.135,0.296,0.375,0.51,0.721l0.542,0.866h-1.072l-0.647-0.966
		c-0.23-0.345-0.388-0.562-0.473-0.652c-0.084-0.09-0.174-0.151-0.27-0.185c-0.095-0.033-0.245-0.05-0.45-0.05h-0.182v1.853H123.568
		z M124.465,21.707h0.663c0.43,0,0.698-0.018,0.805-0.055c0.107-0.036,0.19-0.099,0.251-0.188s0.091-0.2,0.091-0.333
		c0-0.149-0.039-0.27-0.119-0.362s-0.192-0.15-0.338-0.174c-0.072-0.01-0.29-0.015-0.653-0.015h-0.699V21.707z"/>
	<path fill="#231F20" d="M130.883,22.636l0.868,0.275c-0.133,0.484-0.354,0.844-0.664,1.08c-0.31,0.235-0.703,0.353-1.179,0.353
		c-0.59,0-1.074-0.201-1.453-0.604c-0.38-0.402-0.569-0.953-0.569-1.651c0-0.739,0.19-1.312,0.572-1.721
		c0.381-0.409,0.883-0.613,1.504-0.613c0.543,0,0.984,0.16,1.323,0.481c0.202,0.189,0.354,0.462,0.454,0.817l-0.887,0.212
		c-0.053-0.23-0.162-0.412-0.329-0.545c-0.166-0.133-0.368-0.2-0.606-0.2c-0.329,0-0.596,0.118-0.801,0.354
		c-0.205,0.236-0.308,0.619-0.308,1.147c0,0.561,0.102,0.96,0.303,1.199c0.202,0.238,0.465,0.357,0.787,0.357
		c0.238,0,0.443-0.076,0.615-0.227C130.685,23.199,130.808,22.961,130.883,22.636z"/>
	<path fill="#231F20" d="M132.523,24.268V19.83h0.896v1.747h1.756V19.83h0.896v4.438h-0.896v-1.94h-1.756v1.94H132.523z"/>
	<path fill="#231F20" d="M68.987,32.268V28.58H67.67v-0.75h3.527v0.75h-1.314v3.688H68.987z"/>
	<path fill="#231F20" d="M71.778,32.268V27.83h0.896v1.747h1.756V27.83h0.896v4.438h-0.896v-1.94h-1.756v1.94H71.778z"/>
	<path fill="#231F20" d="M80.255,32.268H79.28l-0.388-1.008h-1.774l-0.366,1.008h-0.95l1.729-4.438h0.947L80.255,32.268z
		 M78.605,30.512l-0.612-1.647l-0.599,1.647H78.605z"/>
	<path fill="#231F20" d="M81.27,32.268V28.58h-1.317v-0.75h3.527v0.75h-1.314v3.688H81.27z"/>
	<path fill="#231F20" d="M89.552,32.268h-0.975l-0.388-1.008h-1.774l-0.366,1.008h-0.95l1.729-4.438h0.947L89.552,32.268z
		 M87.902,30.512l-0.612-1.647l-0.599,1.647H87.902z"/>
	<path fill="#231F20" d="M92.867,30.636l0.868,0.275c-0.133,0.484-0.354,0.844-0.664,1.08c-0.31,0.235-0.703,0.353-1.179,0.353
		c-0.59,0-1.074-0.201-1.453-0.604c-0.38-0.402-0.569-0.953-0.569-1.651c0-0.739,0.19-1.312,0.572-1.721
		c0.381-0.409,0.883-0.613,1.504-0.613c0.543,0,0.984,0.16,1.323,0.481c0.202,0.189,0.354,0.462,0.454,0.817l-0.887,0.212
		c-0.053-0.23-0.162-0.412-0.329-0.545c-0.166-0.133-0.368-0.2-0.606-0.2c-0.329,0-0.596,0.118-0.801,0.354
		c-0.205,0.236-0.308,0.619-0.308,1.147c0,0.561,0.102,0.96,0.303,1.199c0.202,0.238,0.465,0.357,0.787,0.357
		c0.238,0,0.443-0.076,0.615-0.227C92.669,31.199,92.792,30.961,92.867,30.636z"/>
	<path fill="#231F20" d="M97.345,30.636l0.868,0.275c-0.133,0.484-0.354,0.844-0.664,1.08c-0.31,0.235-0.703,0.353-1.179,0.353
		c-0.59,0-1.074-0.201-1.453-0.604c-0.38-0.402-0.569-0.953-0.569-1.651c0-0.739,0.19-1.312,0.572-1.721
		c0.381-0.409,0.883-0.613,1.504-0.613c0.543,0,0.984,0.16,1.323,0.481c0.202,0.189,0.354,0.462,0.454,0.817l-0.887,0.212
		c-0.053-0.23-0.162-0.412-0.329-0.545c-0.166-0.133-0.368-0.2-0.606-0.2c-0.329,0-0.596,0.118-0.801,0.354
		c-0.205,0.236-0.308,0.619-0.308,1.147c0,0.561,0.102,0.96,0.303,1.199c0.202,0.238,0.465,0.357,0.787,0.357
		c0.238,0,0.443-0.076,0.615-0.227C97.146,31.199,97.27,30.961,97.345,30.636z"/>
	<path fill="#231F20" d="M98.982,32.268V27.83h3.291v0.75h-2.395v0.984h2.228v0.748h-2.228v1.208h2.479v0.748H98.982z"/>
	<path fill="#231F20" d="M103.143,32.268v-4.402h0.896v3.654h2.229v0.748H103.143z"/>
	<path fill="#231F20" d="M106.905,32.268V27.83h3.291v0.75h-2.395v0.984h2.228v0.748h-2.228v1.208h2.479v0.748H106.905z"/>
	<path fill="#231F20" d="M111.044,32.268V27.83h1.886c0.475,0,0.819,0.04,1.034,0.12c0.215,0.08,0.387,0.221,0.516,0.425
		c0.13,0.204,0.194,0.437,0.194,0.699c0,0.333-0.098,0.608-0.294,0.825c-0.195,0.217-0.488,0.354-0.878,0.411
		c0.194,0.113,0.354,0.237,0.48,0.372c0.126,0.135,0.296,0.375,0.51,0.721l0.542,0.866h-1.072l-0.647-0.966
		c-0.23-0.345-0.388-0.562-0.473-0.652c-0.084-0.09-0.174-0.151-0.27-0.185c-0.095-0.033-0.245-0.05-0.45-0.05h-0.182v1.853H111.044
		z M111.94,29.707h0.663c0.43,0,0.698-0.018,0.805-0.055c0.107-0.036,0.19-0.099,0.251-0.188s0.091-0.2,0.091-0.333
		c0-0.149-0.039-0.27-0.119-0.362s-0.192-0.15-0.338-0.174c-0.072-0.01-0.29-0.015-0.653-0.015h-0.699V29.707z"/>
	<path fill="#231F20" d="M119.52,32.268h-0.975l-0.388-1.008h-1.774l-0.366,1.008h-0.95l1.729-4.438h0.947L119.52,32.268z
		 M117.871,30.512l-0.612-1.647l-0.599,1.647H117.871z"/>
	<path fill="#231F20" d="M120.535,32.268V28.58h-1.317v-0.75h3.527v0.75h-1.314v3.688H120.535z"/>
	<path fill="#231F20" d="M123.323,32.268V27.83h3.291v0.75h-2.395v0.984h2.228v0.748h-2.228v1.208h2.479v0.748H123.323z"/>
	<path fill="#231F20" d="M127.231,30.824l0.872-0.085c0.053,0.292,0.159,0.508,0.319,0.645c0.161,0.137,0.377,0.206,0.649,0.206
		c0.289,0,0.506-0.061,0.652-0.183s0.22-0.265,0.22-0.428c0-0.105-0.031-0.194-0.093-0.268s-0.169-0.138-0.322-0.192
		c-0.104-0.036-0.344-0.101-0.717-0.193c-0.48-0.119-0.817-0.266-1.012-0.439c-0.272-0.244-0.408-0.542-0.408-0.893
		c0-0.226,0.063-0.438,0.192-0.634c0.128-0.197,0.312-0.347,0.554-0.45c0.241-0.103,0.532-0.154,0.873-0.154
		c0.558,0,0.977,0.122,1.258,0.366c0.282,0.244,0.43,0.57,0.443,0.978l-0.896,0.039c-0.038-0.228-0.121-0.392-0.247-0.492
		c-0.126-0.1-0.315-0.15-0.567-0.15c-0.261,0-0.464,0.053-0.611,0.16c-0.095,0.069-0.143,0.161-0.143,0.276
		c0,0.105,0.044,0.195,0.133,0.269c0.113,0.095,0.388,0.194,0.824,0.297c0.436,0.103,0.758,0.209,0.967,0.319s0.372,0.26,0.49,0.451
		s0.178,0.426,0.178,0.707c0,0.254-0.071,0.492-0.212,0.714c-0.142,0.222-0.342,0.387-0.6,0.495
		c-0.259,0.108-0.58,0.162-0.966,0.162c-0.562,0-0.992-0.129-1.293-0.389C127.47,31.698,127.29,31.32,127.231,30.824z"/>
	<path fill="#231F20" d="M63.504,38.636v-0.748h1.932v1.768c-0.188,0.182-0.46,0.341-0.816,0.479
		c-0.355,0.138-0.717,0.208-1.082,0.208c-0.464,0-0.869-0.097-1.214-0.292s-0.604-0.474-0.778-0.835
		c-0.173-0.362-0.26-0.756-0.26-1.183c0-0.462,0.097-0.873,0.29-1.232c0.194-0.359,0.478-0.635,0.851-0.827
		c0.285-0.147,0.64-0.221,1.063-0.221c0.551,0,0.98,0.115,1.291,0.347c0.31,0.231,0.509,0.55,0.598,0.958l-0.89,0.167
		c-0.062-0.218-0.181-0.39-0.354-0.516c-0.172-0.126-0.388-0.189-0.646-0.189c-0.392,0-0.703,0.125-0.935,0.373
		c-0.23,0.248-0.347,0.617-0.347,1.105c0,0.527,0.117,0.922,0.352,1.185c0.234,0.264,0.541,0.395,0.92,0.395
		c0.188,0,0.376-0.037,0.564-0.11c0.189-0.074,0.352-0.163,0.486-0.268v-0.563H63.504z"/>
	<path fill="#231F20" d="M66.286,40.268v-4.402h0.896v3.654h2.229v0.748H66.286z"/>
	<path fill="#231F20" d="M69.867,38.076c0-0.452,0.067-0.832,0.203-1.138c0.101-0.226,0.238-0.429,0.413-0.608
		c0.174-0.18,0.365-0.313,0.573-0.4c0.276-0.117,0.596-0.175,0.957-0.175c0.653,0,1.177,0.203,1.569,0.608s0.589,0.97,0.589,1.692
		c0,0.716-0.194,1.277-0.584,1.682s-0.91,0.607-1.562,0.607c-0.66,0-1.185-0.201-1.574-0.604
		C70.062,39.337,69.867,38.782,69.867,38.076z M70.79,38.045c0,0.502,0.116,0.884,0.349,1.143s0.526,0.389,0.884,0.389
		s0.65-0.128,0.88-0.386c0.229-0.257,0.344-0.644,0.344-1.158c0-0.508-0.112-0.888-0.335-1.138c-0.223-0.25-0.52-0.375-0.889-0.375
		s-0.667,0.127-0.893,0.38C70.903,37.153,70.79,37.535,70.79,38.045z"/>
	<path fill="#231F20" d="M74.874,35.83h1.774c0.351,0,0.612,0.015,0.785,0.044s0.327,0.09,0.463,0.183
		c0.137,0.093,0.25,0.216,0.341,0.371c0.091,0.155,0.137,0.328,0.137,0.52c0,0.208-0.057,0.398-0.168,0.572
		c-0.112,0.174-0.265,0.304-0.456,0.391c0.271,0.079,0.479,0.213,0.624,0.403c0.145,0.189,0.218,0.413,0.218,0.669
		c0,0.202-0.047,0.398-0.141,0.589s-0.223,0.343-0.385,0.457c-0.162,0.114-0.363,0.184-0.601,0.21
		c-0.149,0.016-0.51,0.026-1.081,0.03h-1.511V35.83z M75.77,36.568v1.026h0.587c0.35,0,0.566-0.005,0.65-0.015
		c0.154-0.018,0.274-0.071,0.362-0.159s0.132-0.203,0.132-0.347c0-0.137-0.038-0.249-0.113-0.334
		c-0.076-0.086-0.188-0.138-0.338-0.156c-0.089-0.01-0.344-0.015-0.766-0.015H75.77z M75.77,38.333v1.187H76.6
		c0.323,0,0.527-0.009,0.614-0.027c0.134-0.024,0.242-0.083,0.326-0.177c0.083-0.094,0.125-0.219,0.125-0.377
		c0-0.133-0.032-0.246-0.097-0.339s-0.158-0.161-0.28-0.203c-0.122-0.042-0.387-0.063-0.794-0.063H75.77z"/>
	<path fill="#231F20" d="M83.351,40.268h-0.975l-0.388-1.008h-1.774l-0.366,1.008h-0.95l1.729-4.438h0.947L83.351,40.268z
		 M81.701,38.512l-0.612-1.647l-0.599,1.647H81.701z"/>
	<path fill="#231F20" d="M83.851,40.268v-4.402h0.896v3.654h2.229v0.748H83.851z"/>
	<path fill="#231F20" d="M92.063,38.636l0.868,0.275c-0.133,0.484-0.354,0.844-0.664,1.08c-0.31,0.235-0.703,0.353-1.179,0.353
		c-0.59,0-1.074-0.201-1.453-0.604c-0.38-0.402-0.569-0.953-0.569-1.651c0-0.739,0.19-1.312,0.572-1.721
		c0.381-0.409,0.883-0.613,1.504-0.613c0.543,0,0.984,0.16,1.323,0.481c0.202,0.189,0.354,0.462,0.454,0.817l-0.887,0.212
		c-0.053-0.23-0.162-0.412-0.329-0.545c-0.166-0.133-0.368-0.2-0.606-0.2c-0.329,0-0.596,0.118-0.801,0.354
		c-0.205,0.236-0.308,0.619-0.308,1.147c0,0.561,0.102,0.96,0.303,1.199c0.202,0.238,0.465,0.357,0.787,0.357
		c0.238,0,0.443-0.076,0.615-0.227C91.865,39.199,91.988,38.961,92.063,38.636z"/>
	<path fill="#231F20" d="M93.52,38.076c0-0.452,0.067-0.832,0.203-1.138c0.101-0.226,0.238-0.429,0.413-0.608
		c0.174-0.18,0.365-0.313,0.573-0.4c0.276-0.117,0.596-0.175,0.957-0.175c0.653,0,1.177,0.203,1.569,0.608s0.589,0.97,0.589,1.692
		c0,0.716-0.194,1.277-0.584,1.682s-0.91,0.607-1.562,0.607c-0.66,0-1.185-0.201-1.574-0.604
		C93.714,39.337,93.52,38.782,93.52,38.076z M94.442,38.045c0,0.502,0.116,0.884,0.349,1.143s0.526,0.389,0.884,0.389
		s0.65-0.128,0.88-0.386c0.229-0.257,0.344-0.644,0.344-1.158c0-0.508-0.112-0.888-0.335-1.138c-0.223-0.25-0.52-0.375-0.889-0.375
		s-0.667,0.127-0.893,0.38C94.556,37.153,94.442,37.535,94.442,38.045z"/>
	<path fill="#231F20" d="M98.532,40.268V35.83h0.872l1.816,2.964V35.83h0.832v4.438h-0.898l-1.789-2.894v2.894H98.532z"/>
	<path fill="#231F20" d="M102.773,38.824l0.872-0.085c0.053,0.292,0.159,0.508,0.319,0.645c0.161,0.137,0.377,0.206,0.649,0.206
		c0.289,0,0.506-0.061,0.652-0.183s0.22-0.265,0.22-0.428c0-0.105-0.031-0.194-0.093-0.268s-0.169-0.138-0.322-0.192
		c-0.104-0.036-0.344-0.101-0.717-0.193c-0.48-0.119-0.817-0.266-1.012-0.439c-0.272-0.244-0.408-0.542-0.408-0.893
		c0-0.226,0.063-0.438,0.192-0.634c0.128-0.197,0.312-0.347,0.554-0.45s0.532-0.154,0.873-0.154c0.558,0,0.977,0.122,1.258,0.366
		c0.282,0.244,0.43,0.57,0.443,0.978l-0.896,0.039c-0.038-0.228-0.121-0.392-0.247-0.492c-0.126-0.1-0.315-0.15-0.567-0.15
		c-0.261,0-0.464,0.053-0.611,0.16c-0.095,0.069-0.143,0.161-0.143,0.276c0,0.105,0.044,0.195,0.133,0.269
		c0.113,0.095,0.388,0.194,0.824,0.297c0.436,0.103,0.758,0.209,0.967,0.319s0.372,0.26,0.49,0.451s0.178,0.426,0.178,0.707
		c0,0.254-0.071,0.492-0.212,0.714c-0.142,0.222-0.342,0.387-0.6,0.495c-0.259,0.108-0.58,0.162-0.966,0.162
		c-0.562,0-0.992-0.129-1.293-0.389C103.012,39.698,102.832,39.32,102.773,38.824z"/>
	<path fill="#231F20" d="M107.137,40.268V35.83h3.291v0.75h-2.395v0.984h2.228v0.748h-2.228v1.208h2.479v0.748H107.137z"/>
	<path fill="#231F20" d="M111.275,40.268V35.83h1.886c0.475,0,0.819,0.04,1.034,0.12c0.215,0.08,0.387,0.221,0.516,0.425
		c0.13,0.204,0.194,0.437,0.194,0.699c0,0.333-0.098,0.608-0.294,0.825c-0.195,0.217-0.488,0.354-0.878,0.411
		c0.194,0.113,0.354,0.237,0.48,0.372c0.126,0.135,0.296,0.375,0.51,0.721l0.542,0.866h-1.072l-0.647-0.966
		c-0.23-0.345-0.388-0.562-0.473-0.652c-0.084-0.09-0.174-0.151-0.27-0.185c-0.095-0.033-0.245-0.05-0.45-0.05h-0.182v1.853H111.275
		z M112.172,37.707h0.663c0.43,0,0.698-0.018,0.805-0.055c0.107-0.036,0.19-0.099,0.251-0.188s0.091-0.2,0.091-0.333
		c0-0.149-0.039-0.27-0.119-0.362s-0.192-0.15-0.338-0.174c-0.072-0.01-0.29-0.015-0.653-0.015h-0.699V37.707z"/>
	<path fill="#231F20" d="M116.77,40.268l-1.586-4.438h0.972l1.123,3.285l1.087-3.285h0.95l-1.589,4.438H116.77z"/>
	<path fill="#231F20" d="M123.315,40.268h-0.975l-0.388-1.008h-1.774l-0.366,1.008h-0.95l1.729-4.438h0.947L123.315,40.268z
		 M121.666,38.512l-0.612-1.647l-0.599,1.647H121.666z"/>
	<path fill="#231F20" d="M124.33,40.268V36.58h-1.317v-0.75h3.527v0.75h-1.314v3.688H124.33z"/>
	<path fill="#231F20" d="M127.091,40.268V35.83h0.896v4.438H127.091z"/>
	<path fill="#231F20" d="M128.659,38.076c0-0.452,0.067-0.832,0.203-1.138c0.101-0.226,0.238-0.429,0.413-0.608
		c0.174-0.18,0.365-0.313,0.573-0.4c0.276-0.117,0.596-0.175,0.957-0.175c0.653,0,1.177,0.203,1.569,0.608s0.589,0.97,0.589,1.692
		c0,0.716-0.194,1.277-0.584,1.682s-0.91,0.607-1.562,0.607c-0.66,0-1.185-0.201-1.574-0.604
		C128.853,39.337,128.659,38.782,128.659,38.076z M129.582,38.045c0,0.502,0.116,0.884,0.349,1.143s0.526,0.389,0.884,0.389
		s0.65-0.128,0.88-0.386c0.229-0.257,0.344-0.644,0.344-1.158c0-0.508-0.112-0.888-0.335-1.138c-0.223-0.25-0.52-0.375-0.889-0.375
		s-0.667,0.127-0.893,0.38C129.695,37.153,129.582,37.535,129.582,38.045z"/>
	<path fill="#231F20" d="M133.672,40.268V35.83h0.872l1.816,2.964V35.83h0.832v4.438h-0.898l-1.789-2.894v2.894H133.672z"/>
	<path fill="#231F20" d="M70.824,48.268V44.58h-1.317v-0.75h3.527v0.75H71.72v3.688H70.824z"/>
	<path fill="#231F20" d="M73.615,48.268V43.83h0.896v1.747h1.756V43.83h0.896v4.438h-0.896v-1.94h-1.756v1.94H73.615z"/>
	<path fill="#231F20" d="M78.093,48.268V43.83h1.886c0.475,0,0.819,0.04,1.034,0.12c0.215,0.08,0.387,0.221,0.516,0.425
		c0.13,0.204,0.194,0.437,0.194,0.699c0,0.333-0.098,0.608-0.294,0.825c-0.195,0.217-0.488,0.354-0.878,0.411
		c0.194,0.113,0.354,0.237,0.48,0.372c0.126,0.135,0.296,0.375,0.51,0.721l0.542,0.866h-1.072l-0.647-0.966
		c-0.23-0.345-0.388-0.562-0.473-0.652c-0.084-0.09-0.174-0.151-0.27-0.185c-0.095-0.033-0.245-0.05-0.45-0.05h-0.182v1.853H78.093z
		 M78.989,45.707h0.663c0.43,0,0.698-0.018,0.805-0.055c0.107-0.036,0.19-0.099,0.251-0.188s0.091-0.2,0.091-0.333
		c0-0.149-0.039-0.27-0.119-0.362s-0.192-0.15-0.338-0.174c-0.072-0.01-0.29-0.015-0.653-0.015h-0.699V45.707z"/>
	<path fill="#231F20" d="M82.386,46.076c0-0.452,0.067-0.832,0.203-1.138c0.101-0.226,0.238-0.429,0.413-0.608
		c0.174-0.18,0.365-0.313,0.573-0.4c0.276-0.117,0.596-0.175,0.957-0.175c0.653,0,1.177,0.203,1.569,0.608s0.589,0.97,0.589,1.692
		c0,0.716-0.194,1.277-0.584,1.682s-0.91,0.607-1.562,0.607c-0.66,0-1.185-0.201-1.574-0.604
		C82.58,47.337,82.386,46.782,82.386,46.076z M83.309,46.045c0,0.502,0.116,0.884,0.349,1.143s0.526,0.389,0.884,0.389
		s0.65-0.128,0.88-0.386c0.229-0.257,0.344-0.644,0.344-1.158c0-0.508-0.112-0.888-0.335-1.138c-0.223-0.25-0.52-0.375-0.889-0.375
		s-0.667,0.127-0.893,0.38C83.422,45.153,83.309,45.535,83.309,46.045z"/>
	<path fill="#231F20" d="M87.384,43.83h0.896v2.404c0,0.381,0.012,0.628,0.033,0.742c0.039,0.182,0.13,0.327,0.274,0.437
		c0.145,0.11,0.342,0.165,0.592,0.165c0.254,0,0.446-0.052,0.575-0.156s0.207-0.231,0.233-0.383s0.039-0.403,0.039-0.754V43.83
		h0.896v2.331c0,0.533-0.024,0.909-0.073,1.129c-0.048,0.22-0.138,0.406-0.268,0.557s-0.305,0.272-0.522,0.362
		s-0.502,0.135-0.854,0.135c-0.424,0-0.745-0.049-0.964-0.147c-0.22-0.098-0.393-0.225-0.52-0.381s-0.211-0.32-0.251-0.492
		c-0.059-0.254-0.088-0.63-0.088-1.126V43.83z"/>
	<path fill="#231F20" d="M93.932,46.636v-0.748h1.932v1.768c-0.188,0.182-0.46,0.341-0.816,0.479
		c-0.355,0.138-0.717,0.208-1.082,0.208c-0.464,0-0.869-0.097-1.214-0.292s-0.604-0.474-0.778-0.835
		c-0.173-0.362-0.26-0.756-0.26-1.183c0-0.462,0.097-0.873,0.29-1.232c0.194-0.359,0.478-0.635,0.851-0.827
		c0.285-0.147,0.64-0.221,1.063-0.221c0.551,0,0.98,0.115,1.291,0.347c0.31,0.231,0.509,0.55,0.598,0.958l-0.89,0.167
		c-0.062-0.218-0.181-0.39-0.354-0.516c-0.172-0.126-0.388-0.189-0.646-0.189c-0.392,0-0.703,0.125-0.935,0.373
		c-0.23,0.248-0.347,0.617-0.347,1.105c0,0.527,0.117,0.922,0.352,1.185c0.234,0.264,0.541,0.395,0.92,0.395
		c0.188,0,0.376-0.037,0.564-0.11c0.189-0.074,0.352-0.163,0.486-0.268v-0.563H93.932z"/>
	<path fill="#231F20" d="M96.692,48.268V43.83h0.896v1.747h1.756V43.83h0.896v4.438h-0.896v-1.94h-1.756v1.94H96.692z"/>
	<path fill="#231F20" d="M103.889,48.268V44.58h-1.317v-0.75h3.527v0.75h-1.314v3.688H103.889z"/>
	<path fill="#231F20" d="M106.68,48.268V43.83h0.896v1.747h1.756V43.83h0.896v4.438h-0.896v-1.94h-1.756v1.94H106.68z"/>
	<path fill="#231F20" d="M111.154,48.268V43.83h3.291v0.75h-2.395v0.984h2.228v0.748h-2.228v1.208h2.479v0.748H111.154z"/>
	<path fill="#231F20" d="M117.037,48.268v-4.402h0.896v3.654h2.229v0.748H117.037z"/>
	<path fill="#231F20" d="M120.794,43.83h0.896v2.404c0,0.381,0.012,0.628,0.033,0.742c0.039,0.182,0.13,0.327,0.274,0.437
		c0.145,0.11,0.342,0.165,0.592,0.165c0.254,0,0.446-0.052,0.575-0.156s0.207-0.231,0.233-0.383s0.039-0.403,0.039-0.754V43.83
		h0.896v2.331c0,0.533-0.024,0.909-0.073,1.129c-0.048,0.22-0.138,0.406-0.268,0.557s-0.305,0.272-0.522,0.362
		s-0.502,0.135-0.854,0.135c-0.424,0-0.745-0.049-0.964-0.147c-0.22-0.098-0.393-0.225-0.52-0.381s-0.211-0.32-0.251-0.492
		c-0.059-0.254-0.088-0.63-0.088-1.126V43.83z"/>
	<path fill="#231F20" d="M128.117,46.636l0.868,0.275c-0.133,0.484-0.354,0.844-0.664,1.08c-0.31,0.235-0.703,0.353-1.179,0.353
		c-0.59,0-1.074-0.201-1.453-0.604c-0.38-0.402-0.569-0.953-0.569-1.651c0-0.739,0.19-1.312,0.572-1.721
		c0.381-0.409,0.883-0.613,1.504-0.613c0.543,0,0.984,0.16,1.323,0.481c0.202,0.189,0.354,0.462,0.454,0.817l-0.887,0.212
		c-0.053-0.23-0.162-0.412-0.329-0.545c-0.166-0.133-0.368-0.2-0.606-0.2c-0.329,0-0.596,0.118-0.801,0.354
		c-0.205,0.236-0.308,0.619-0.308,1.147c0,0.561,0.102,0.96,0.303,1.199c0.202,0.238,0.465,0.357,0.787,0.357
		c0.238,0,0.443-0.076,0.615-0.227C127.919,47.199,128.042,46.961,128.117,46.636z"/>
	<path fill="#231F20" d="M65.18,56.268V51.83h0.896v1.747h1.756V51.83h0.896v4.438h-0.896v-1.94h-1.756v1.94H65.18z"/>
	<path fill="#231F20" d="M69.473,54.076c0-0.452,0.067-0.832,0.203-1.138c0.101-0.226,0.238-0.429,0.413-0.608
		c0.174-0.18,0.365-0.313,0.573-0.4c0.276-0.117,0.596-0.175,0.957-0.175c0.653,0,1.177,0.203,1.569,0.608s0.589,0.97,0.589,1.692
		c0,0.716-0.194,1.277-0.584,1.682s-0.91,0.607-1.562,0.607c-0.66,0-1.185-0.201-1.574-0.604
		C69.667,55.337,69.473,54.782,69.473,54.076z M70.395,54.045c0,0.502,0.116,0.884,0.349,1.143s0.526,0.389,0.884,0.389
		s0.65-0.128,0.88-0.386c0.229-0.257,0.344-0.644,0.344-1.158c0-0.508-0.112-0.888-0.335-1.138c-0.223-0.25-0.52-0.375-0.889-0.375
		s-0.667,0.127-0.893,0.38C70.509,53.153,70.395,53.535,70.395,54.045z"/>
	<path fill="#231F20" d="M74.482,56.268V51.83h3.043v0.75h-2.146v1.051h1.853v0.75h-1.853v1.886H74.482z"/>
	<path fill="#231F20" d="M78.27,56.268V51.83h3.043v0.75h-2.146v1.051h1.853v0.75h-1.853v1.886H78.27z"/>
	<path fill="#231F20" d="M82.039,56.268V51.83h1.341l0.805,3.027l0.797-3.027h1.344v4.438h-0.832v-3.494l-0.882,3.494h-0.862
		l-0.878-3.494v3.494H82.039z"/>
	<path fill="#231F20" d="M91.218,56.268h-0.975l-0.388-1.008h-1.774l-0.366,1.008h-0.95l1.729-4.438h0.947L91.218,56.268z
		 M89.568,54.512l-0.612-1.647l-0.599,1.647H89.568z"/>
	<path fill="#231F20" d="M91.702,56.268V51.83h0.872l1.816,2.964V51.83h0.832v4.438h-0.898l-1.789-2.894v2.894H91.702z"/>
	<path fill="#231F20" d="M96.18,56.268V51.83h0.872l1.816,2.964V51.83H99.7v4.438h-0.898l-1.789-2.894v2.894H96.18z"/>
	<path fill="#231F20" d="M102.344,56.268V51.83h0.896v4.438H102.344z"/>
	<path fill="#231F20" d="M104.103,56.268V51.83h0.872l1.816,2.964V51.83h0.832v4.438h-0.898l-1.789-2.894v2.894H104.103z"/>
	<path fill="#231F20" d="M108.344,54.824l0.872-0.085c0.053,0.292,0.159,0.508,0.319,0.645c0.161,0.137,0.377,0.206,0.649,0.206
		c0.289,0,0.506-0.061,0.652-0.183s0.22-0.265,0.22-0.428c0-0.105-0.031-0.194-0.093-0.268s-0.169-0.138-0.322-0.192
		c-0.104-0.036-0.344-0.101-0.717-0.193c-0.48-0.119-0.817-0.266-1.012-0.439c-0.272-0.244-0.408-0.542-0.408-0.893
		c0-0.226,0.063-0.438,0.192-0.634c0.128-0.197,0.312-0.347,0.554-0.45s0.532-0.154,0.873-0.154c0.558,0,0.977,0.122,1.258,0.366
		c0.282,0.244,0.43,0.57,0.443,0.978l-0.896,0.039c-0.038-0.228-0.121-0.392-0.247-0.492c-0.126-0.1-0.315-0.15-0.567-0.15
		c-0.261,0-0.464,0.053-0.611,0.16c-0.095,0.069-0.143,0.161-0.143,0.276c0,0.105,0.044,0.195,0.133,0.269
		c0.113,0.095,0.388,0.194,0.824,0.297c0.436,0.103,0.758,0.209,0.967,0.319s0.372,0.26,0.49,0.451s0.178,0.426,0.178,0.707
		c0,0.254-0.071,0.492-0.212,0.714c-0.142,0.222-0.342,0.387-0.6,0.495c-0.259,0.108-0.58,0.162-0.966,0.162
		c-0.562,0-0.992-0.129-1.293-0.389C108.582,55.698,108.402,55.32,108.344,54.824z"/>
	<path fill="#231F20" d="M113.706,56.268V52.58h-1.317v-0.75h3.527v0.75h-1.314v3.688H113.706z"/>
	<path fill="#231F20" d="M116.467,56.268V51.83h0.896v4.438H116.467z"/>
	<path fill="#231F20" d="M119.216,56.268V52.58h-1.317v-0.75h3.527v0.75h-1.314v3.688H119.216z"/>
	<path fill="#231F20" d="M121.998,51.83h0.896v2.404c0,0.381,0.012,0.628,0.033,0.742c0.039,0.182,0.13,0.327,0.274,0.437
		c0.145,0.11,0.342,0.165,0.592,0.165c0.254,0,0.446-0.052,0.575-0.156s0.207-0.231,0.233-0.383s0.039-0.403,0.039-0.754V51.83
		h0.896v2.331c0,0.533-0.024,0.909-0.073,1.129c-0.048,0.22-0.138,0.406-0.268,0.557s-0.305,0.272-0.522,0.362
		s-0.502,0.135-0.854,0.135c-0.424,0-0.745-0.049-0.964-0.147c-0.22-0.098-0.393-0.225-0.52-0.381s-0.211-0.32-0.251-0.492
		c-0.059-0.254-0.088-0.63-0.088-1.126V51.83z"/>
	<path fill="#231F20" d="M127.48,56.268V52.58h-1.317v-0.75h3.527v0.75h-1.314v3.688H127.48z"/>
	<path fill="#231F20" d="M130.269,56.268V51.83h3.291v0.75h-2.395v0.984h2.228v0.748h-2.228v1.208h2.479v0.748H130.269z"/>
</g>
</svg>
